<svg width="249" height="237" viewBox="0 0 249 237" fill="none" xmlns="http://www.w3.org/2000/svg">
<path d="M126.019 236.338C193.939 236.338 249 230.894 249 224.179C249 217.464 193.939 212.02 126.019 212.02C58.0982 212.02 3.03766 217.464 3.03766 224.179C3.03766 230.894 58.0982 236.338 126.019 236.338Z" fill="#CED3E6"/>
<path d="M194.959 206.125C193.507 207.577 191.933 208.96 190.222 210.269C181.675 216.832 169.857 221.535 154.161 223.109C73.893 231.145 47.3666 193.489 40.8849 135.556C37.9951 109.738 44.7562 92.6992 53.1394 81.7465C54.0186 80.6014 54.9115 79.5246 55.8111 78.509C56.3223 77.9365 56.8403 77.3776 57.3787 76.8324C68.202 65.7774 83.8302 60.5703 99.1858 63.0989C111.256 65.0823 122.223 71.5298 131.117 84.4182C145.348 105.022 131.887 122.736 172.549 123.922C203.676 124.828 223.401 177.751 194.952 206.132L194.959 206.125Z" fill="#F4AD4B"/>
<path d="M72.0732 81.0239C72.0732 81.0239 62.579 101.334 73.5386 138.616C84.4981 175.897 99.0154 172.96 108.394 172.96C124.778 172.96 157.957 157.529 164.439 145.37C170.92 133.211 158.686 132.489 135.779 130.689C112.865 128.89 95.7711 72.9815 72.0732 81.0239Z" fill="#D57635"/>
<path d="M92.6564 188.602C92.4792 188.602 92.2951 188.534 92.1588 188.39C91.8998 188.118 91.9066 187.688 92.1861 187.423C100.378 179.632 108.203 175.045 113.328 172.565C118.897 169.872 122.488 169.034 122.638 169C123.006 168.918 123.374 169.143 123.456 169.511C123.538 169.879 123.313 170.247 122.945 170.329C122.781 170.37 108.516 173.778 93.1335 188.411C93.004 188.534 92.8336 188.602 92.6632 188.602H92.6564Z" fill="#D57635"/>
<path d="M95.3623 179.476C95.1442 179.476 94.9261 179.373 94.7966 179.176C94.5853 178.862 94.6671 178.44 94.9806 178.228C95.301 178.01 102.928 172.953 114.732 171.665C115.107 171.624 115.441 171.897 115.482 172.272C115.523 172.646 115.25 172.98 114.875 173.021C103.405 174.275 95.8121 179.305 95.7372 179.36C95.6213 179.442 95.485 179.476 95.3555 179.476H95.3623Z" fill="#D57635"/>
<path d="M70.6078 123.07C70.267 123.07 69.9739 122.817 69.933 122.47C68.9448 114.571 65.5438 108.532 62.872 104.858C59.9618 100.864 57.2491 98.7174 57.2219 98.6969C56.9288 98.4652 56.8743 98.0358 57.106 97.7359C57.3377 97.436 57.7671 97.3883 58.067 97.62C58.1829 97.7086 60.9296 99.8828 63.9489 104.013C66.7297 107.823 70.2602 114.087 71.2961 122.299C71.3439 122.674 71.078 123.015 70.7032 123.063C70.6759 123.063 70.6487 123.063 70.6146 123.063L70.6078 123.07Z" fill="#D57635"/>
<path d="M194.959 206.125C193.507 207.576 191.933 208.96 190.222 210.269C180.346 216.198 168.289 220.104 155.013 221.63C150.896 222.101 146.738 222.339 142.581 222.339C131.117 222.339 119.626 220.553 108.796 217.043C80.62 207.917 60.289 188.39 51.5514 162.069C46.76 147.633 44.4086 133.6 44.5586 120.35C44.6744 109.738 46.3988 99.6033 49.6635 90.225C50.754 87.0967 51.9399 84.275 53.1394 81.7464C54.0186 80.6014 54.9115 79.5245 55.8112 78.509C56.3223 77.9364 56.8403 77.3776 57.3788 76.8323C55.2386 80.4991 52.9486 85.1542 50.9925 90.7771C45.9558 105.274 42.2004 129.333 52.9145 161.612C61.5022 187.491 81.5061 206.69 109.232 215.673C138.689 225.215 172.76 221.344 194.012 206.05C194.305 205.839 194.7 205.879 194.945 206.132L194.959 206.125Z" fill="#221E1B"/>
<path d="M77.2462 57.5646C77.2462 57.5646 66.1639 46.237 82.3033 38.2559C98.4496 30.2748 117.465 42.468 120.58 51.3624C123.701 60.2568 77.2393 57.5646 77.2393 57.5646H77.2462Z" fill="#E05042"/>
<path d="M96.5276 49.7948C96.4322 49.7948 96.3299 49.7608 96.2482 49.6926C91.8453 45.9236 84.4639 46.2712 84.389 46.2712C84.3822 46.2712 84.3753 46.2712 84.3685 46.2712C84.1436 46.2712 83.9528 46.094 83.946 45.8691C83.9323 45.6305 84.1164 45.4328 84.3481 45.4192C84.6616 45.3988 92.1452 45.0512 96.807 49.0451C96.9843 49.1951 97.0047 49.4677 96.8548 49.6449C96.773 49.7403 96.6503 49.7948 96.5276 49.7948Z" fill="#B11722"/>
<path d="M85.7113 50.3333C85.5613 50.3333 85.4114 50.2515 85.3364 50.1084C85.2274 49.8971 85.3023 49.6449 85.5136 49.529C85.7317 49.4132 90.8366 46.7278 94.4557 47.573C94.6875 47.6275 94.8306 47.8524 94.7761 48.0841C94.7215 48.3159 94.4966 48.459 94.2649 48.4045C90.9525 47.6343 85.9634 50.2583 85.9157 50.2856C85.8544 50.3197 85.7862 50.3333 85.7181 50.3333H85.7113Z" fill="#B11722"/>
<path d="M197.385 199.316L203.07 209.792C203.07 209.792 210.056 211.434 218.371 212.075C231 213.043 234.742 211.052 235.635 213.874C236.33 216.076 226.727 221.044 222.283 221.828C217.839 222.612 208.134 226.592 201.829 227.294C195.531 227.989 192.751 220.035 191.319 217.207C189.895 214.372 185.403 204.782 185.403 204.782L197.378 199.316H197.385Z" fill="#F69D84"/>
<path d="M230.68 216.641C230.707 217.432 230.564 218.181 230.148 218.788C230.08 218.883 230.012 218.972 229.93 219.061C227.694 221.528 218.739 222.727 218.739 222.727C219.454 222.039 219.795 221.071 219.897 219.988C220.177 217.139 218.821 213.485 218.234 212.061C218.071 211.672 217.969 211.454 217.969 211.454C219.516 211.093 220.988 210.889 222.317 210.793C223.626 210.698 224.798 210.698 225.766 210.739C227.592 210.82 228.71 211.045 228.71 211.045C228.71 211.045 229.024 211.55 229.398 212.327C229.944 213.445 230.618 215.121 230.673 216.641H230.68Z" fill="#E05042"/>
<path d="M226.876 214.91L223.775 215.23C223.775 215.23 223.366 213.717 222.903 212.327C222.712 211.761 222.508 211.209 222.324 210.8C223.632 210.705 224.804 210.705 225.772 210.746C225.956 211.154 226.174 211.734 226.365 212.374C226.611 213.186 226.822 214.099 226.87 214.91H226.876Z" fill="#B11722"/>
<path d="M234.544 215.421C234.544 215.421 205.619 224.581 201.727 225.256C197.842 225.938 195.722 225.174 195.722 225.174C195.722 225.174 195.845 226.769 196.172 228.255C196.554 230.013 198.38 231.049 200.098 230.518C207.834 228.125 233.413 220.138 235.158 218.72C237.216 217.05 236.766 215.271 234.544 215.421Z" fill="#E05042"/>
<path d="M170.736 196.91L170.361 206.322C170.361 206.322 175.528 211.311 182.343 216.11C192.703 223.402 196.935 223.607 196.261 226.483C195.736 228.725 184.933 228.092 180.721 226.49C176.502 224.895 166.122 223.348 160.349 220.731C154.576 218.107 156.26 209.853 156.478 206.69C156.703 203.528 157.173 196.399 157.173 196.399L170.736 196.91Z" fill="#F69D84"/>
<path d="M190.59 226.326C190.208 227.021 189.704 227.594 189.029 227.901C188.927 227.948 188.818 227.989 188.702 228.023C185.519 229.005 177.211 225.454 177.211 225.454C178.172 225.229 178.963 224.575 179.61 223.695C181.307 221.392 182.009 217.561 182.227 216.035C182.289 215.619 182.309 215.374 182.309 215.374C183.829 215.857 185.192 216.437 186.385 217.03C187.557 217.616 188.566 218.216 189.377 218.747C190.903 219.749 191.749 220.513 191.749 220.513C191.749 220.513 191.762 221.105 191.687 221.964C191.585 223.205 191.306 224.99 190.576 226.326H190.59Z" fill="#E05042"/>
<path d="M188.205 222.891L185.376 221.583C185.376 221.583 185.799 220.07 186.112 218.638C186.242 218.052 186.344 217.48 186.398 217.03C187.571 217.616 188.579 218.216 189.39 218.747C189.336 219.19 189.234 219.804 189.07 220.451C188.866 221.276 188.579 222.169 188.205 222.891Z" fill="#B11722"/>
<path d="M194.529 227.253C194.529 227.253 164.984 220.329 161.296 218.925C157.609 217.52 156.178 215.782 156.178 215.782C156.178 215.782 155.469 217.214 154.985 218.659C154.419 220.363 155.455 222.189 157.2 222.612C165.072 224.513 191.142 230.729 193.364 230.402C195.988 230.02 196.513 228.262 194.523 227.246L194.529 227.253Z" fill="#E05042"/>
<path d="M180.782 122.143C173.285 116.377 146.357 118.748 125.262 121.734C124.663 131.289 127.607 123.356 125.828 132.755C152.164 134.104 159.565 136.183 159.565 136.183C159.565 136.183 155.626 157.618 155.817 166.58C156.008 175.543 152.832 201.477 152.832 201.477L171.82 205.055C171.82 205.055 191.517 130.396 180.782 122.143Z" fill="#0C0ABD"/>
<path d="M172.781 200.884C172.699 200.911 172.61 200.918 172.522 200.897L153.772 197.067C153.493 197.012 153.315 196.74 153.37 196.46C153.424 196.181 153.697 196.004 153.977 196.058L172.726 199.889C173.006 199.943 173.183 200.216 173.128 200.495C173.088 200.679 172.958 200.822 172.788 200.877L172.781 200.884Z" fill="#0C0ABD"/>
<path d="M157.384 197.237C157.302 197.264 157.207 197.271 157.118 197.251C156.839 197.189 156.669 196.917 156.723 196.644C156.744 196.549 158.747 187.075 158.863 171.76C158.979 156.337 163.709 133.361 163.757 133.136C163.811 132.857 164.084 132.679 164.363 132.741C164.643 132.795 164.82 133.068 164.759 133.347C164.711 133.579 160.001 156.452 159.892 171.774C159.777 187.198 157.752 196.767 157.732 196.862C157.691 197.046 157.561 197.183 157.391 197.237H157.384Z" fill="#0C0ABD"/>
<path d="M170.716 66.4044C170.021 65.4707 170.525 63.5146 170.348 61.9879C170.123 59.9773 170.402 56.8898 171.016 55.1927C171.943 52.6437 175.071 45.276 177.157 44.4172C179.235 43.5516 177.027 50.1151 176.604 51.4714C176.175 52.8277 176.393 53.9046 176.393 53.9046C176.393 53.9046 182.629 39.251 184.361 38.7466C186.085 38.2491 183.372 46.9458 182.691 49.0859C182.691 49.0859 188 38.3036 189.2 38.3309C191.599 38.3922 186.044 50.5308 186.044 50.5308C186.044 50.5308 190.979 41.6842 192.403 42.5429C193.916 43.4426 188.614 52.9027 188.614 52.9027C188.614 52.9027 192.669 47.6069 194.236 47.7773C195.804 47.9477 188.143 59.7251 186.746 61.395C185.349 63.0648 181.962 67.8698 179.794 69.71C178.322 70.9641 172.91 69.3556 170.716 66.3976V66.4044Z" fill="#F69D84"/>
<path d="M187.837 56.733C188 56.583 188.027 56.3308 187.898 56.1468C184.824 51.7916 179.576 51.2464 179.351 51.2259C179.106 51.2055 178.888 51.3827 178.867 51.6281C178.847 51.8734 179.024 52.0915 179.269 52.112C179.317 52.112 184.333 52.6504 187.169 56.658C187.312 56.8625 187.591 56.9102 187.789 56.7671C187.802 56.7534 187.816 56.7466 187.83 56.733H187.837Z" fill="#FF7C66"/>
<path d="M179.447 64.2439C179.576 64.1281 179.631 63.9372 179.562 63.76C177.702 58.7642 180.694 55.8403 180.721 55.813C180.898 55.6426 180.905 55.3632 180.735 55.1792C180.564 55.002 180.292 54.9951 180.108 55.1587C179.965 55.295 176.659 58.5188 178.724 64.0667C178.813 64.2985 179.065 64.4143 179.297 64.3326C179.351 64.3121 179.399 64.2848 179.44 64.2439H179.447Z" fill="#FF7C66"/>
<path d="M128.997 56.147V56.1129H128.991L129.004 56.147L129.045 56.2424L129.14 56.4605L129.352 56.9512C129.502 57.292 129.665 57.6464 129.829 58.0008C130.163 58.7165 130.51 59.4389 130.878 60.1614C131.621 61.5995 132.405 63.0444 133.257 64.4416C133.687 65.1436 134.116 65.8388 134.559 66.5272C135.002 67.2156 135.459 67.8903 135.929 68.5582C136.399 69.2262 136.883 69.8805 137.374 70.528C137.864 71.1754 138.362 71.8161 138.88 72.4431C142.969 77.4663 147.74 81.7533 153.077 85.0384C153.411 85.2429 153.745 85.4474 154.086 85.645C154.42 85.8495 154.767 86.0335 155.108 86.2243L155.367 86.3675C155.258 86.3061 155.142 86.2584 155.013 86.1971C154.76 86.088 154.474 85.9858 154.188 85.9108C153.895 85.8359 153.595 85.7813 153.309 85.7541C153.022 85.72 152.75 85.72 152.511 85.7336C152.034 85.7541 151.673 85.8495 151.468 85.9108C151.257 85.979 151.169 86.0335 151.162 86.0403C151.155 86.0608 151.428 85.9176 151.775 85.6518C152.13 85.386 152.566 85.0112 153.022 84.5681C153.486 84.1251 153.97 83.614 154.461 83.0619C155.449 81.9646 156.451 80.6969 157.439 79.3678C159.422 76.7029 161.351 73.7654 163.225 70.7529C164.166 69.2466 165.093 67.7131 165.999 66.1728C166.456 65.4026 166.913 64.6256 167.356 63.8555L168.651 61.6131L184.456 68.7968L184.163 69.5601L183.884 70.269L183.318 71.6662C182.929 72.5863 182.534 73.5064 182.132 74.4197C181.321 76.2395 180.469 78.0456 179.576 79.8449C177.77 83.4367 175.807 86.9877 173.476 90.5318C172.311 92.3107 171.043 94.0759 169.598 95.8616C168.869 96.7545 168.085 97.6473 167.226 98.5538C166.361 99.4603 165.413 100.367 164.289 101.287C163.164 102.2 161.876 103.134 160.179 104.006C159.334 104.443 158.366 104.851 157.248 105.192C156.137 105.533 154.842 105.792 153.425 105.867C152.709 105.901 151.966 105.881 151.209 105.812C150.453 105.731 149.69 105.594 148.94 105.397C148.197 105.192 147.461 104.94 146.779 104.633C146.432 104.483 146.111 104.313 145.784 104.149L145.423 103.952C144.939 103.686 144.455 103.42 143.971 103.141C143.487 102.868 143.017 102.589 142.54 102.296C141.593 101.723 140.666 101.123 139.746 100.51C138.839 99.8829 137.933 99.249 137.053 98.5811C136.167 97.92 135.309 97.2384 134.457 96.5364C133.618 95.8276 132.78 95.1119 131.976 94.369C128.732 91.4179 125.808 88.1668 123.19 84.7249C121.882 83.0006 120.655 81.2285 119.517 79.4087C118.379 77.5889 117.295 75.7351 116.313 73.8267C115.823 72.8725 115.352 71.9115 114.896 70.9369C114.439 69.9623 114.01 68.9808 113.601 67.9789C113.192 66.977 112.797 65.9615 112.435 64.9187C112.251 64.3939 112.074 63.8691 111.904 63.317C111.815 63.0444 111.727 62.765 111.645 62.4787L111.352 61.4495L128.984 56.147H128.997Z" fill="#E05042"/>
<path d="M155.592 93.7418C155.353 93.8236 155.088 93.7145 154.972 93.4828C153.227 89.9796 152.423 85.6108 152.389 85.4267C152.341 85.1473 152.525 84.8815 152.797 84.8338C153.077 84.7861 153.343 84.9701 153.39 85.2427C153.397 85.2836 154.208 89.6524 155.885 93.0262C156.008 93.2783 155.905 93.585 155.653 93.7145C155.633 93.7282 155.606 93.735 155.585 93.7418H155.592Z" fill="#B11722"/>
<path d="M151.646 90.8657C151.557 90.8929 151.462 90.8997 151.359 90.8725C151.087 90.8043 150.916 90.5249 150.991 90.2523C151.032 90.1023 151.925 86.565 152.463 85.4472C152.586 85.1951 152.893 85.086 153.145 85.2087C153.397 85.3314 153.506 85.6381 153.384 85.8903C152.886 86.9126 151.993 90.4635 151.98 90.4976C151.932 90.6748 151.802 90.8043 151.646 90.8588V90.8657Z" fill="#B11722"/>
<path d="M180.762 77.2073C180.619 77.255 180.455 77.2414 180.319 77.146C175.255 73.7995 164.854 69.2876 164.745 69.2467C164.486 69.1376 164.364 68.8309 164.479 68.5719C164.589 68.3129 164.895 68.1902 165.154 68.3061C165.256 68.3538 175.746 72.893 180.885 76.294C181.123 76.4508 181.185 76.7643 181.028 77.0028C180.96 77.1051 180.864 77.1732 180.762 77.2073Z" fill="#B11722"/>
<path d="M129.147 56.4604C130.49 60.5361 128.261 70.4461 130.422 87.8736C130.579 89.1549 130.763 90.4772 130.974 91.8471C131.172 93.1285 131.39 94.4575 131.635 95.8275C131.867 97.102 132.119 98.4174 132.392 99.7601C132.637 100.939 132.896 102.152 133.182 103.386C133.475 104.661 133.782 105.955 134.116 107.285C134.211 107.659 134.314 108.068 134.423 108.491C134.45 108.6 134.477 108.702 134.504 108.818C134.532 108.913 134.552 109.009 134.579 109.111C134.6 109.186 134.613 109.261 134.634 109.329C134.648 109.384 134.661 109.438 134.675 109.493C134.702 109.588 134.723 109.69 134.75 109.786C134.75 109.806 134.757 109.827 134.763 109.84C134.791 109.956 134.825 110.079 134.859 110.202C134.859 110.222 134.866 110.236 134.872 110.256C134.9 110.358 134.927 110.467 134.954 110.57C135.084 111.06 135.22 111.578 135.356 112.11C135.39 112.239 135.425 112.376 135.465 112.512C135.513 112.689 135.561 112.873 135.609 113.057C135.704 113.419 135.806 113.78 135.902 114.155C135.949 114.339 136.004 114.53 136.052 114.714C136.161 115.116 136.27 115.518 136.386 115.934C136.406 116.009 136.426 116.083 136.447 116.158C136.713 117.14 136.999 118.149 137.285 119.185C137.415 119.655 137.551 120.125 137.681 120.595C137.844 121.168 138.008 121.747 138.171 122.327C138.417 123.179 138.662 124.031 138.914 124.882L139.234 125.966C139.33 126.293 139.432 126.62 139.528 126.948C139.643 127.336 139.759 127.731 139.875 128.12C139.95 128.379 140.032 128.638 140.114 128.897C140.161 129.06 140.209 129.217 140.257 129.381C140.352 129.701 140.454 130.021 140.55 130.342C140.645 130.662 140.748 130.976 140.843 131.289C140.911 131.514 140.979 131.732 141.047 131.95C141.109 132.148 141.17 132.339 141.231 132.53C141.252 132.584 141.266 132.632 141.279 132.686C141.313 132.795 141.347 132.911 141.388 133.02C141.463 133.245 141.531 133.477 141.606 133.695C141.688 133.954 141.777 134.22 141.858 134.479C142.533 136.551 143.194 138.48 143.815 140.149C139.207 145.445 131.383 150.073 122.182 152.847L117.077 149.528L112.803 154.946C103.814 156.262 94.1832 155.744 85.3092 152.513C82.3785 146.522 77.5462 124.542 76.1763 117.971C75.9037 116.663 75.6583 115.347 75.4334 114.032C74.3429 107.7 73.7636 101.273 73.3751 94.5188C73.3546 94.1508 73.3342 93.7828 73.3137 93.4147C73.3137 93.3738 73.3137 93.3261 73.3069 93.2852C72.8912 87.5942 65.4553 70.8277 66.205 64.7959C67.6908 52.8413 75.3107 55.9901 82.1809 54.1431C84.4368 53.5365 86.3316 52.7731 87.8855 51.9893C88.533 51.6622 89.1192 51.335 89.6508 51.0147C89.8757 50.8852 90.0802 50.7557 90.2778 50.6194C92.4111 49.2358 93.5766 48.0704 93.5766 48.0704L109.164 46.4414C110.704 48.2544 112.524 49.3108 114.439 49.9924C114.651 50.0673 114.862 50.1355 115.08 50.2036C115.4 50.3059 115.721 50.3945 116.041 50.4763C121.548 51.9076 127.375 51.1238 129.141 56.4672L129.147 56.4604Z" fill="#E05042"/>
<path d="M90.0325 140.375C89.8621 140.375 89.6985 140.266 89.6304 140.095C81.104 117.202 76.6875 77.6709 76.6466 77.2756C76.6193 77.0438 76.7897 76.8326 77.0215 76.8053C77.2532 76.778 77.4645 76.9484 77.4917 77.1801C77.5326 77.5755 81.9355 117.004 90.4278 139.795C90.5096 140.013 90.4005 140.259 90.1756 140.347C90.1279 140.368 90.0734 140.375 90.0257 140.375H90.0325Z" fill="#B11722"/>
<path d="M105.109 56.0516C105.272 56.5492 104.679 57.1899 103.78 57.4829C102.88 57.776 102.021 57.6192 101.858 57.1217C101.694 56.6242 102.287 55.9835 103.187 55.6904C104.086 55.3973 104.945 55.5541 105.109 56.0516Z" fill="#B11722"/>
<path d="M112.067 54.2796C112.231 54.7771 111.638 55.4178 110.738 55.7108C109.839 56.0039 108.98 55.8472 108.816 55.3496C108.653 54.8521 109.246 54.2114 110.145 53.9183C111.045 53.6253 111.904 53.782 112.067 54.2796Z" fill="#B11722"/>
<path d="M114.037 58.0009C113.846 58.0009 113.676 57.8714 113.621 57.6806C113.56 57.4488 113.703 57.2171 113.928 57.1626C119.939 55.6223 120.314 52.0032 120.328 51.8532C120.348 51.6215 120.553 51.4443 120.785 51.4647C121.016 51.4852 121.193 51.6896 121.173 51.9214C121.159 52.0986 120.771 56.2902 114.132 57.9941C114.098 58.0009 114.064 58.0077 114.023 58.0077L114.037 58.0009Z" fill="#B11722"/>
<path d="M123.279 95.6914C115.264 95.6914 108.319 93.633 103.671 91.7656C97.8774 89.4414 94.2787 86.8924 94.2446 86.8651C94.0538 86.7288 94.0061 86.463 94.1424 86.2722C94.2787 86.0813 94.5445 86.0336 94.7354 86.1699C94.7694 86.1972 98.2999 88.6985 104.005 90.9818C109.259 93.0878 117.5 95.446 126.878 94.6895C127.116 94.669 127.321 94.8462 127.335 95.078C127.355 95.3097 127.178 95.521 126.946 95.5346C125.699 95.6368 124.472 95.6777 123.272 95.6777L123.279 95.6914Z" fill="#B11722"/>
<path d="M99.0155 110.774C99.0155 110.774 118.167 105.894 130.102 105.751L133.748 121.543C133.748 121.543 114.835 124.726 102.866 126.811L99.0155 110.774Z" fill="#B11722"/>
<path d="M88.2741 61.7018C84.5869 61.7018 81.7652 60.6726 79.8432 59.6094C76.783 57.9191 75.2904 55.8403 75.229 55.7517C75.0927 55.5609 75.1404 55.2951 75.3312 55.1588C75.5221 55.0224 75.7879 55.0702 75.9242 55.261C75.9242 55.261 77.3827 57.292 80.2862 58.8801C82.9647 60.3454 87.4699 61.7495 93.7402 60.1069C93.9652 60.0456 94.2037 60.1819 94.2582 60.4136C94.3196 60.6385 94.1833 60.8771 93.9515 60.9316C91.8728 61.4768 89.9712 61.6949 88.2673 61.6949L88.2741 61.7018Z" fill="#B11722"/>
<path d="M137.306 119.178C137.019 118.142 136.733 117.133 136.467 116.152C136.74 117.133 137.019 118.142 137.306 119.178Z" fill="#26120C"/>
<path d="M135.922 114.148C135.82 113.773 135.724 113.412 135.629 113.051C135.724 113.412 135.827 113.773 135.922 114.148Z" fill="#26120C"/>
<path d="M131.703 93.7283C131.703 93.7283 131.642 93.7487 131.608 93.7487C131.328 93.7828 131.069 93.5851 131.035 93.3057C130.102 86.1766 129.072 77.7047 128.977 75.3125C128.963 75.033 129.182 74.7945 129.468 74.7808C129.747 74.7672 129.986 74.9853 129.999 75.2716C130.095 77.6298 131.124 86.0607 132.051 93.1762C132.085 93.4216 131.935 93.6533 131.703 93.7283Z" fill="#B11722"/>
<path d="M113.069 14.1354C113.069 14.1354 118.011 18.0203 114.766 23.9431C114.766 23.9431 112.987 17.0253 113.069 14.1354Z" fill="#26120C"/>
<path d="M93.2835 40.8595C93.2835 40.8595 90.0801 43.9742 89.419 41.6774C88.7579 39.3805 89.8756 38.2355 89.8756 38.2355C89.8756 38.2355 86.4133 41.5615 86.3588 39.0534C86.3042 36.552 88.1104 34.3165 88.1104 34.3165C88.1104 34.3165 84.9002 31.9651 85.9498 28.2029C86.9994 24.4407 87.1289 21.6871 86.0793 18.6065C85.0297 15.5258 85.5068 12.3429 87.0267 10.9662C89.2486 8.94874 92.4792 9.26226 92.4792 9.26226C92.4792 9.26226 94.1967 3.63255 100.631 3.7825C107.065 3.93244 110.813 -1.09068 114.057 0.217922C117.302 1.52652 121.023 12.2475 112.292 15.4236C112.292 15.4236 94.9942 27.0238 93.2835 40.8663V40.8595Z" fill="#26120C"/>
<path d="M109.614 43.9196L110.036 47.9886C109.6 48.4248 109.157 48.8064 108.7 49.1472C102.082 54.1226 93.9172 49.672 93.9172 49.672L92.4451 35.5773L107.562 42.9314L109.607 43.9264L109.614 43.9196Z" fill="#F69D84"/>
<path d="M109.58 43.5653L110.043 47.9886C109.607 48.4248 109.164 48.8065 108.707 49.1473C102.45 47.3957 97.4138 41.5479 97.4138 41.5479L107.569 42.9314L109.58 43.5721V43.5653Z" fill="#26120C"/>
<path d="M112.817 25.3676C112.817 25.3676 114.841 22.3959 116.429 24.9927C118.017 27.5894 117.595 33.2123 113.982 32.6739L112.81 25.3676H112.817Z" fill="#FF7C66"/>
<path d="M116.279 34.6777C116.279 34.6777 117.172 43.0813 108.421 43.9742C99.731 44.867 93.0926 38.658 92.7518 38.3786L92.7382 38.3717L92.4588 36.6133L91.007 27.494L90.2301 22.6208C90.2301 22.6208 88.199 13.9105 96.4186 11.4228C102.423 9.60299 108.278 10.0256 111.508 12.9154C111.611 13.0108 111.713 13.1062 111.808 13.2016C112.837 14.2308 113.56 15.5394 113.887 17.1411L115.08 25.9196L115.373 28.0733L116.273 34.6777H116.279Z" fill="#F69D84"/>
<path d="M91.0139 27.5009C91.0139 27.5009 92.9836 28.1143 93.8492 30.5066C95.151 30.3703 96.0575 29.1571 95.819 27.8689C95.6826 27.1192 95.5054 26.2264 95.301 25.2177C94.6739 22.1983 93.7129 21.2442 95.4645 19.3494C97.2161 17.4547 95.5668 16.3301 97.1616 14.9942C98.9133 13.5289 103.234 16.1256 106.417 15.4645C110.193 14.6807 109.873 12.118 113.165 15.0556C113.165 15.0556 112.292 10.6322 107.998 9.4395C103.705 8.23995 91.641 9.29637 89.7939 15.0419C87.9469 20.7875 91.0139 27.5009 91.0139 27.5009Z" fill="#26120C"/>
<path d="M97.9318 21.1556C98.5111 22.1507 99.7788 22.4983 100.788 21.9326C101.374 21.6055 102.069 21.2715 102.819 21.0261C103.875 20.6785 104.434 19.5199 104.025 18.4839C104.025 18.4839 99.6629 18.5384 97.9318 21.1625V21.1556Z" fill="#26120C"/>
<path d="M114.105 19.3427C113.764 20.3719 112.66 20.9376 111.624 20.6172C111.018 20.4264 110.309 20.256 109.58 20.1742C108.537 20.0583 107.801 19.0973 107.971 18.0614C107.971 18.0614 112.006 17.2639 114.105 19.3427Z" fill="#26120C"/>
<path d="M103.8 28.2028C103.861 28.8162 102.655 29.4432 101.101 29.6068C99.547 29.7704 98.2316 29.4023 98.1703 28.7957C98.1089 28.1823 99.3153 27.5553 100.869 27.3917C102.423 27.2282 103.739 27.5962 103.8 28.2028Z" fill="#FF7C66"/>
<path d="M115.38 28.0802C115.162 28.128 114.937 28.162 114.705 28.1825C113.151 28.3461 111.836 27.978 111.774 27.3646C111.713 26.7512 112.919 26.1242 114.473 25.9606C114.685 25.9401 114.889 25.9265 115.087 25.9265L115.38 28.0802Z" fill="#FF7C66"/>
<path d="M103.957 24.7815C104.045 25.6199 103.732 26.3423 103.262 26.39C102.791 26.4377 102.342 25.7971 102.253 24.9587C102.164 24.1204 102.478 23.398 102.948 23.3503C103.418 23.3025 103.868 23.9432 103.957 24.7815Z" fill="#26120C"/>
<path d="M112.408 23.8954C112.497 24.7337 112.183 25.4562 111.713 25.5039C111.243 25.5516 110.793 24.9109 110.704 24.0726C110.616 23.2343 110.929 22.5118 111.399 22.4641C111.87 22.4164 112.32 23.0571 112.408 23.8954Z" fill="#26120C"/>
<path d="M109.655 32.5853C106.581 32.9056 103.793 30.5338 103.752 30.4997C103.609 30.377 103.589 30.1521 103.718 30.009C103.841 29.8659 104.066 29.8454 104.209 29.9749C104.393 30.1317 108.714 33.7985 112.231 30.6906C112.374 30.5611 112.592 30.5747 112.722 30.7178C112.851 30.861 112.838 31.0791 112.694 31.2086C111.713 32.081 110.67 32.4763 109.655 32.5853Z" fill="#26120C"/>
<path d="M95.1373 34.6846C95.11 34.78 94.2717 37.4654 92.7586 38.3787L92.7518 38.3719L92.4724 36.6134C92.4724 36.6134 93.8286 36.2318 95.1441 34.6778L95.1373 34.6846Z" fill="#26120C"/>
<path d="M92.9836 29.0073C92.9836 29.0073 89.1532 24.8429 87.0608 28.646C85.3365 31.7812 89.9711 38.999 93.7129 35.966L92.9836 29.0004V29.0073Z" fill="#F69D84"/>
<path d="M93.1131 34.6642C92.9359 34.6846 92.7723 34.5688 92.7382 34.3916C92.009 31.011 89.0237 30.125 88.8942 30.0841C88.7102 30.0296 88.6011 29.8387 88.6557 29.6547C88.7102 29.4707 88.901 29.3616 89.0851 29.4162C89.2282 29.457 92.5951 30.4453 93.4198 34.2416C93.4607 34.4325 93.338 34.6165 93.154 34.6574C93.1404 34.6574 93.1267 34.6574 93.1131 34.6574V34.6642Z" fill="#26120C"/>
<path d="M89.6644 32.8987C89.5622 32.9123 89.4599 32.8783 89.3849 32.7965C89.2486 32.6602 89.2486 32.4421 89.3849 32.3057C89.5144 32.1762 90.6526 31.0721 91.7159 31.2289C91.9067 31.2561 92.0362 31.4333 92.0089 31.6242C91.9817 31.815 91.8045 31.9445 91.6137 31.9173C91.0002 31.8287 90.1551 32.5238 89.8757 32.7965C89.8143 32.8578 89.7394 32.8851 89.6644 32.8987Z" fill="#26120C"/>
<path d="M107.835 28.6528C107.644 28.6732 107.474 28.5369 107.453 28.3461C107.433 28.1552 107.569 27.9849 107.76 27.9644C109.034 27.8349 109.559 27.0988 109.723 26.7853C108.046 24.0863 106.376 21.3669 106.356 21.3328C106.254 21.1692 106.308 20.9579 106.472 20.8557C106.635 20.7535 106.847 20.808 106.949 20.9716C106.969 20.9988 108.7 23.8273 110.411 26.574C110.466 26.6626 110.479 26.7717 110.445 26.8739C110.425 26.9353 109.88 28.4415 107.835 28.6528Z" fill="#26120C"/>
<g opacity="0.5">
<path d="M108.005 25.8993C108.073 27.0716 106.179 28.1348 103.759 28.2848C101.346 28.4347 99.3289 27.6032 99.2608 26.4309C99.1926 25.2586 101.087 24.1954 103.507 24.0454C105.92 23.9023 107.937 24.727 108.005 25.8993Z" fill="white"/>
</g>
<g opacity="0.5">
<path d="M119.19 25.429C119.258 26.6013 117.363 27.6646 114.944 27.8145C112.531 27.9576 110.513 27.1329 110.445 25.9607C110.377 24.7884 112.272 23.7251 114.691 23.5752C117.104 23.4321 119.121 24.2568 119.19 25.429Z" fill="white"/>
</g>
<path d="M110.466 25.9471C110.404 25.9471 110.343 25.9267 110.295 25.8858C109.375 25.0815 108.162 25.8721 108.114 25.9062C107.998 25.9812 107.835 25.9539 107.76 25.8381C107.685 25.7222 107.712 25.5654 107.828 25.4836C108.373 25.1156 109.661 24.6521 110.629 25.5041C110.738 25.5995 110.745 25.7563 110.657 25.8653C110.609 25.9267 110.534 25.9539 110.466 25.9539V25.9471Z" fill="#26120C"/>
<path d="M90.012 27.1264C89.9371 27.1264 89.8621 27.0923 89.8076 27.0242C89.719 26.9151 89.7394 26.7516 89.8553 26.663C93.7129 23.6709 99.145 25.8314 99.3699 25.9201C99.4994 25.9746 99.5607 26.1245 99.513 26.254C99.4585 26.3835 99.3086 26.4449 99.1791 26.3971C99.1245 26.3767 93.7947 24.257 90.1688 27.0719C90.1211 27.106 90.0666 27.1264 90.012 27.1264Z" fill="#26120C"/>
<path d="M82.8282 145.411C82.8282 145.411 84.0346 180.587 126.489 166.58C149.165 159.097 159.225 153.351 159.225 153.351C159.225 153.351 166.374 173.198 170.218 181.295C174.062 189.392 184.742 209.212 184.742 209.212L203.063 204.7C203.063 204.7 181.73 130.451 168.555 127.309C155.381 124.167 139.575 129.163 111.699 135.488C111.699 135.488 87.3538 139.216 82.8351 145.411H82.8282Z" fill="#0C0ABD"/>
<path d="M185.253 202.546C185.035 202.621 184.783 202.533 184.66 202.328C178.744 192.759 172.869 178.262 168.153 166.615C166.17 161.714 164.452 157.475 163.021 154.312C161.085 150.025 160.295 149.173 159.995 149.044C158.679 148.478 154.358 150.434 148.892 152.901C140.972 156.48 129.011 161.891 115.093 164.781C107.957 166.26 101.769 165.292 96.7184 161.898C87.7218 155.859 85.4999 144.416 85.4113 143.932C85.3568 143.653 85.5408 143.387 85.8202 143.339C86.0997 143.285 86.3655 143.469 86.42 143.748C86.4405 143.864 88.6624 155.267 97.2978 161.06C102.116 164.29 108.032 165.204 114.889 163.786C128.691 160.923 140.597 155.539 148.476 151.975C154.835 149.098 158.672 147.367 160.404 148.11C161.978 148.785 164.473 154.789 169.107 166.233C173.81 177.84 179.665 192.296 185.54 201.79C185.69 202.028 185.615 202.349 185.376 202.492C185.342 202.512 185.308 202.533 185.267 202.54L185.253 202.546Z" fill="#0C0ABD"/>
<path d="M200.848 199.009C200.848 199.009 200.827 199.009 200.82 199.016L182.302 203.91C182.03 203.985 181.75 203.821 181.675 203.549C181.6 203.276 181.764 202.99 182.036 202.922L200.554 198.028C200.827 197.953 201.107 198.117 201.182 198.389C201.25 198.655 201.1 198.921 200.848 199.003V199.009Z" fill="#0C0ABD"/>
<path d="M179.964 124.396L123.807 129.695C123.698 129.705 123.619 129.802 123.629 129.91L124.287 136.886C124.297 136.994 124.394 137.074 124.502 137.064L180.659 131.766C180.768 131.755 180.847 131.659 180.837 131.55L180.179 124.575C180.169 124.466 180.072 124.386 179.964 124.396Z" fill="#26120C"/>
<path d="M186.753 131.207C188.879 131.01 190.61 129.401 190.965 127.295L197.808 86.6876C198.223 84.2067 196.179 82.0053 193.671 82.237L168.351 84.6225C166.64 84.786 165.249 86.0605 164.943 87.7508L156.525 134.056L186.753 131.207Z" fill="#26120C"/>
<path d="M170.286 122.994L169.823 124.841L171.54 124.712L171.24 126.893L169.25 127.043L168.732 129.053L166.456 129.231L166.974 127.22L165.57 127.329L165.052 129.34L162.775 129.517L163.293 127.506L161.576 127.636L161.876 125.455L163.866 125.305L164.329 123.458L162.612 123.587L162.912 121.406L164.902 121.256L165.42 119.246L167.696 119.069L167.178 121.079L168.582 120.97L169.1 118.96L171.377 118.782L170.859 120.793L172.576 120.663L172.276 122.844L170.286 122.994ZM168.01 123.172L166.606 123.281L166.142 125.128L167.546 125.019L168.01 123.172Z" fill="#E05042"/>
<path d="M194.686 93.3737C194.093 96.025 191.687 98.3423 189.309 98.5536C186.93 98.7649 185.485 96.7815 186.078 94.1302C186.671 91.479 189.077 89.1616 191.456 88.9504C193.834 88.7391 195.279 90.7224 194.686 93.3737Z" fill="#F4AD4B"/>
<path d="M189.875 92.897C189.759 93.4286 189.493 93.8716 189.288 93.8921C189.084 93.9125 189.009 93.4967 189.132 92.9651C189.248 92.4335 189.513 91.9905 189.718 91.9701C189.922 91.9496 189.997 92.3654 189.875 92.897Z" fill="#26120C"/>
<path d="M192.117 92.6992C192.001 93.2308 191.735 93.6738 191.531 93.6943C191.326 93.7147 191.251 93.299 191.374 92.7673C191.49 92.2357 191.756 91.7927 191.96 91.7723C192.165 91.7518 192.239 92.1676 192.117 92.6992Z" fill="#26120C"/>
<path d="M189.895 96.0865C188.041 96.25 188.082 94.219 188.082 94.1986C188.082 94.0895 188.177 93.9736 188.28 93.9396C188.389 93.9055 188.47 93.9668 188.464 94.0827C188.464 94.1576 188.443 95.807 189.983 95.6707C191.531 95.5344 192.26 93.8169 192.287 93.7487C192.335 93.6329 192.451 93.5579 192.546 93.5715C192.642 93.5851 192.682 93.6942 192.635 93.8101C192.628 93.8305 191.742 95.9297 189.888 96.0933L189.895 96.0865Z" fill="#26120C"/>
<path d="M164.936 87.7507L156.587 133.674L153.69 133.947L162.04 88.0234C162.346 86.3331 163.737 85.0517 165.447 84.895L168.344 84.6224C166.633 84.7859 165.243 86.0605 164.936 87.7507Z" fill="#26120C"/>
<path d="M156.853 133.375C156.853 133.375 156.805 133.375 156.778 133.368C156.546 133.327 156.389 133.102 156.437 132.87L164.691 87.0488C164.732 86.8171 164.957 86.6603 165.188 86.7012C165.42 86.7421 165.577 86.967 165.529 87.1987L157.275 133.02C157.241 133.225 157.057 133.375 156.853 133.375Z" fill="#564C54"/>
<path d="M174.151 108.886C173.81 111.428 175.548 113.296 178.036 113.064C180.523 112.832 182.814 110.576 183.154 108.034C183.495 105.492 181.757 103.624 179.269 103.856C176.782 104.088 174.492 106.344 174.151 108.879V108.886Z" fill="#0C0ABD"/>
<path d="M138.662 119.921C138.662 119.921 151.843 116.976 156.451 119.171L154.842 127.534C154.842 127.534 147.413 127.016 145.682 127.875C143.951 128.733 143.855 132.066 137.19 132.257L138.669 119.921H138.662Z" fill="#F69D84"/>
<path d="M137.217 118.264L135.67 118.012L132.562 117.508C130.49 117.16 128.425 116.792 126.36 116.404C122.236 115.647 118.14 114.816 114.132 113.902C112.129 113.439 110.145 112.948 108.203 112.437C106.26 111.919 104.359 111.367 102.546 110.76C100.746 110.161 99.0085 109.52 97.5772 108.845C96.8683 108.511 96.2413 108.17 95.8119 107.891C95.8119 107.891 95.8051 107.891 95.7983 107.877L95.7369 107.782C95.4984 107.407 95.2803 107.019 95.0622 106.63C94.626 105.853 94.2034 105.069 93.8081 104.265C93.0039 102.663 92.2951 101.007 91.6544 99.317C90.3662 95.9296 89.4121 92.3719 88.7237 88.7187C88.3829 86.8921 88.1171 85.0451 87.9194 83.1776C87.715 81.3101 87.5855 79.429 87.5241 77.5479C87.456 75.6668 87.4492 73.7788 87.5241 71.9182C87.5582 70.9844 87.6127 70.0643 87.6877 69.1578C87.7218 68.708 87.7627 68.2582 87.8036 67.8288L87.8717 67.2086L87.9262 66.7928L66.607 63.4804L66.5524 63.8621L66.5115 64.1415L66.4502 64.6664L66.3412 65.6478C66.273 66.2885 66.2185 66.9155 66.1776 67.5357C66.089 68.783 66.0345 70.0098 66.0072 71.2298C65.939 73.6698 65.9731 76.0962 66.0958 78.5157C66.3616 83.3548 66.9955 88.1803 68.0451 92.9716C68.3109 94.1644 68.5971 95.3639 68.9107 96.5499C69.231 97.7358 69.5786 98.9217 69.9466 100.101C70.6963 102.459 71.5551 104.79 72.5297 107.087C73.443 109.193 74.4449 111.272 75.5627 113.303C75.6581 113.48 75.7535 113.657 75.8558 113.834C76.4624 114.932 77.1167 116.015 77.7914 117.085C78.1322 117.617 78.473 118.149 78.8274 118.673L79.0932 119.069L79.2227 119.266L79.4885 119.648C79.9656 120.323 80.4495 120.888 80.913 121.372C81.3764 121.856 81.8263 122.279 82.2556 122.64C82.6918 123.015 83.1008 123.328 83.5097 123.622C84.314 124.194 85.0637 124.664 85.7861 125.066C86.8017 125.632 87.749 126.096 88.6691 126.498C89.0508 126.668 89.4325 126.825 89.8005 126.982C91.0682 127.5 92.2882 127.929 93.481 128.317C94.6737 128.713 95.846 129.054 97.0115 129.367C99.3288 129.994 101.598 130.519 103.848 130.982C106.097 131.453 108.325 131.855 110.554 132.223C114.998 132.959 119.408 133.531 123.804 134.015C126.005 134.247 128.207 134.458 130.408 134.649C131.512 134.745 132.609 134.833 133.714 134.915L135.377 135.031L137.087 135.133L138.723 118.489L137.217 118.258V118.264ZM95.3894 107.578C95.3894 107.578 95.3485 107.53 95.3825 107.55C95.403 107.564 95.4643 107.605 95.5598 107.7C95.5802 107.721 95.6007 107.748 95.6279 107.775C95.5121 107.693 95.4303 107.625 95.3825 107.584L95.3894 107.578Z" fill="#E05042"/>
<path d="M88.6624 126.511C87.7423 126.109 86.7881 125.646 85.7793 125.08C85.0637 124.671 84.3072 124.208 83.5029 123.635C83.094 123.342 82.685 123.029 82.2488 122.654C81.8195 122.293 81.3696 121.87 80.9062 121.386C80.4495 120.909 79.9588 120.336 79.4817 119.662L79.2159 119.28L79.0864 119.082L78.8206 118.687C78.4594 118.162 78.1254 117.631 77.7846 117.099C77.1099 116.029 76.4624 114.945 75.849 113.848C75.7467 113.671 75.6513 113.494 75.5559 113.316C75.6104 113.289 75.665 113.262 75.7263 113.235C75.7263 113.235 89.4802 113.419 88.6624 126.511Z" fill="#B11722"/>
<path d="M117.363 133.811C117.295 133.831 117.227 133.838 117.152 133.831C116.981 133.818 99.6969 132.134 90.0187 127.595C80.2655 123.022 75.6922 114.291 75.5082 113.923C75.3787 113.671 75.481 113.364 75.7263 113.235C75.9785 113.105 76.2852 113.207 76.4147 113.453C76.4624 113.541 81.0289 122.245 90.4549 126.668C99.9695 131.132 117.077 132.795 117.247 132.809C117.527 132.836 117.738 133.088 117.711 133.368C117.69 133.579 117.547 133.743 117.363 133.804V133.811Z" fill="#B11722"/>
<path d="M89.5484 113.896C89.378 113.95 89.1803 113.916 89.0372 113.78C88.8327 113.589 88.8191 113.262 89.0168 113.057C91.409 110.508 94.8441 107.952 94.9941 107.843C95.219 107.673 95.5393 107.721 95.7097 107.952C95.8801 108.177 95.8324 108.498 95.6007 108.668C95.5666 108.695 92.0906 111.279 89.7597 113.759C89.6983 113.821 89.6233 113.868 89.5484 113.896Z" fill="#B11722"/>
<path d="M95.2122 108.927C95.2122 108.927 95.1781 108.941 95.1577 108.941C93.1198 109.37 90.4412 110.242 90.414 110.249C90.1482 110.338 89.8551 110.188 89.7665 109.922C89.6779 109.656 89.8278 109.363 90.0936 109.281C90.2027 109.247 92.854 108.389 94.9464 107.946C95.2258 107.884 95.4916 108.061 95.553 108.341C95.6075 108.6 95.4575 108.852 95.2122 108.934V108.927Z" fill="#B11722"/>
<path d="M90.6116 96.4411C90.6116 96.4411 90.6048 96.4411 90.5979 96.4411C90.3253 96.5228 90.0391 96.3661 89.9641 96.0935C89.7664 95.4323 85.1932 79.8791 85.1863 72.0479C85.1863 71.7685 85.4181 71.5368 85.6975 71.5368C85.977 71.5368 86.2087 71.7685 86.2087 72.0479C86.2087 79.7291 90.8978 95.6436 90.9455 95.8072C91.0273 96.073 90.8774 96.3525 90.6184 96.4411H90.6116Z" fill="#B11722"/>
<path d="M86.1748 76.8871C86.0385 76.9348 85.8749 76.9212 85.7454 76.8326C85.5068 76.6826 85.4319 76.3691 85.5818 76.1306L87.2585 73.4588C87.4084 73.2203 87.7219 73.1453 87.9605 73.2953C88.199 73.4452 88.274 73.7587 88.124 73.9973L86.4474 76.669C86.3792 76.7712 86.2838 76.8462 86.1748 76.8803V76.8871Z" fill="#B11722"/>
<path d="M129.099 134.445C129.031 134.465 128.956 134.479 128.881 134.465C128.602 134.438 128.397 134.179 128.425 133.9L130.183 117.76C130.217 117.481 130.469 117.276 130.749 117.31C131.028 117.338 131.233 117.597 131.199 117.876L129.44 134.016C129.42 134.22 129.277 134.384 129.093 134.445H129.099Z" fill="#B11722"/>
<path d="M115.686 108.845C115.509 108.845 115.339 108.729 115.284 108.552C110.336 93.7827 103.187 56.992 103.118 56.6171C103.071 56.3854 103.227 56.1605 103.459 56.1196C103.691 56.0719 103.916 56.2286 103.957 56.4604C104.025 56.8284 111.161 93.5647 116.095 108.286C116.17 108.511 116.048 108.75 115.83 108.825C115.782 108.838 115.741 108.845 115.693 108.845H115.686Z" fill="white"/>
<path d="M126.264 107.441C126.053 107.441 125.869 107.285 125.842 107.073C122.829 85.0861 110.254 55.4926 110.125 55.1927C110.029 54.9746 110.132 54.7224 110.35 54.6338C110.568 54.5384 110.82 54.6406 110.909 54.8587C111.038 55.1586 123.661 84.8543 126.687 106.957C126.721 107.189 126.557 107.407 126.319 107.441C126.298 107.441 126.278 107.441 126.257 107.441H126.264Z" fill="white"/>
<path d="M95.8733 164.795C94.9668 164.795 93.9922 164.481 92.9971 163.861C89.3712 161.591 84.9819 154.708 83.353 144.457C83.3189 144.225 83.4757 144.007 83.7074 143.966C83.9391 143.925 84.1572 144.089 84.1981 144.321C85.7861 154.312 89.9914 160.971 93.4537 163.139C94.6328 163.875 95.7506 164.113 96.6843 163.827C97.4341 163.595 98.0202 163.084 98.4564 162.253C101.476 156.562 96.2277 139.42 96.1732 139.25C96.105 139.025 96.2277 138.786 96.4526 138.718C96.6775 138.65 96.9161 138.773 96.9842 138.998C97.2091 139.713 102.389 156.657 99.2061 162.655C98.6609 163.684 97.8907 164.352 96.9229 164.645C96.5821 164.747 96.2277 164.802 95.8665 164.802L95.8733 164.795Z" fill="white"/>
<path d="M72.2913 219.272C72.1823 219.749 72.0528 220.219 71.9028 220.676C70.9009 223.75 69.0607 226.204 66.5594 227.219C57.0857 231.063 48.1776 229.734 30.0481 229.311C11.9253 228.889 -1.53553 224.091 0.141113 209.165C0.277425 207.985 0.502338 206.888 0.809041 205.859C1.21116 204.509 1.75641 203.289 2.4039 202.185C3.16043 200.884 4.06009 199.738 5.04154 198.743C10.126 193.577 17.7868 191.887 24.6501 194.238C31.4248 196.562 43.3999 197.687 55.8657 197.932C69.2584 198.205 74.2679 210.718 72.2913 219.258V219.272Z" fill="#F4AD4B"/>
<path d="M72.2913 219.272C72.1823 219.749 72.0528 220.219 71.9028 220.676C68.6926 223.477 62.6404 225.249 53.8687 225.945C51.1151 226.17 48.0822 226.272 44.8243 226.272C37.2794 226.272 28.4873 225.686 18.8841 224.534C10.7598 223.559 5.26643 220.697 2.547 216.028C0.522758 212.552 0.420521 208.756 0.809012 205.866C1.21113 204.516 1.75638 203.296 2.40387 202.192C1.70186 204.353 0.154713 210.487 3.17404 215.673C5.77079 220.138 11.087 222.878 18.9727 223.825C47.462 227.246 66.8524 225.583 72.2913 219.272Z" fill="#D57635"/>
<path d="M18.1275 200.809C12.5591 201.258 8.44247 206.336 9.35576 211.85C9.37621 211.959 9.38984 212.061 9.4171 212.17C10.6167 218.175 18.6932 217.998 41.1166 218.209C58.6805 218.372 67.7112 212.088 63.0356 204.325C59.3211 198.151 29.9867 199.854 18.1275 200.809Z" fill="#D57635"/>
<path d="M60.4866 205.354C52.3146 215.53 18.9862 216.103 14.6106 208.483C12.4773 204.775 13.0703 200.018 14.2289 196.119C14.3516 195.71 14.4811 195.308 14.6106 194.92C15.8102 191.41 17.3164 188.847 17.3164 188.847C17.3164 188.847 17.1801 192.473 29.4755 191.171C30.8795 191.021 32.4812 190.96 34.1919 190.98C34.5122 190.98 34.8326 190.987 35.1597 191.001C48.4161 191.396 67.5408 196.569 60.4798 205.361L60.4866 205.354Z" fill="#26120C"/>
<path d="M33.7011 199.288C31.7791 201.435 28.4326 202.246 24.0366 201.626C23.9343 201.612 23.8389 201.599 23.7435 201.585C18.2024 200.733 15.5034 198.096 14.2289 196.119C14.3516 195.71 14.4811 195.308 14.6106 194.92C15.5511 196.739 18.032 199.84 24.1729 200.699C28.2418 201.272 31.302 200.563 33.0059 198.661C34.5394 196.944 34.9484 194.292 34.1987 190.973C34.519 190.973 34.8393 190.98 35.1665 190.994C35.923 194.524 35.4187 197.38 33.7079 199.288H33.7011Z" fill="#F4AD4B"/>
<path d="M55.8656 197.946C55.8656 197.946 63.6899 197.367 64.6168 193.42C65.5438 189.474 47.5914 192.936 45.6149 184.799C43.6315 176.668 51.5717 170.179 54.148 172.558C57.2014 175.379 50.5153 176.579 50.1541 180.764C49.8542 184.24 52.0079 187.443 58.6941 187.92C65.3802 188.397 68.3654 189.433 68.3382 192.541C68.3041 195.922 62.8925 199.411 59.6005 199.629C56.3086 199.847 55.8656 197.946 55.8656 197.946Z" fill="#26120C"/>
<path d="M21.5285 185.848C21.5285 185.848 19.2044 182.829 15.4285 180.818C14.8765 180.525 14.2222 180.968 14.2903 181.588L15.006 188.513C15.006 188.513 20.4312 188.976 21.5353 185.855L21.5285 185.848Z" fill="#26120C"/>
<path d="M16.328 187.675C16.0213 186.107 15.9463 184.458 15.5851 182.604C15.5851 182.604 19.6677 185.037 19.9062 186.373C19.9062 186.373 17.657 188.077 16.328 187.675Z" fill="#564C54"/>
<path d="M28.6167 186.128C28.6167 186.128 31.8064 184.206 35.9844 183.681C36.666 183.592 37.1703 184.315 36.8636 184.935L34.0079 190.633C34.0079 190.633 28.5076 189.44 28.6235 186.128H28.6167Z" fill="#26120C"/>
<path d="M32.7947 189.713C33.6535 188.363 34.3214 186.85 35.3301 185.262C35.3301 185.262 30.6478 186.046 29.9321 187.204C29.9321 187.204 31.4111 189.61 32.7947 189.719V189.713Z" fill="#564C54"/>
<path d="M18.4954 185.971C18.4954 185.971 13.6631 186.707 14.0244 192.371C14.3856 198.034 19.8994 198.634 19.8994 198.634C19.8994 198.634 20.8809 200.454 24.2887 201.19C26.4697 201.66 29.7139 201.51 30.5386 199.909C30.5386 199.909 35.2687 198.178 35.2141 193.959C35.1528 189.283 29.5231 183.544 18.4954 185.971Z" fill="#26120C"/>
<path d="M13.5883 199.357C13.5883 199.357 15.558 207.392 17.2142 209.055C18.8636 210.711 20.6561 211.625 22.9598 211.904C26.6743 212.354 25.9927 214.835 24.8818 215.687C23.6004 216.675 21.324 216.109 17.9026 216.109C14.9514 216.109 12.1706 215.523 11.1687 213.581C10.1737 211.638 10.235 205.9 11.2982 202.669C11.9525 200.679 12.8726 199.636 13.5815 199.363L13.5883 199.357Z" fill="#26120C"/>
<path d="M38.5608 199.888C38.5608 199.888 36.5911 207.924 34.9349 209.587C33.2855 211.243 31.4794 212.068 29.1893 212.436C26.3881 212.879 26.6471 215.523 27.2673 216.219C28.351 217.425 30.8251 216.641 34.2465 216.641C37.1977 216.641 40.6873 215.462 41.6892 213.52C42.6842 211.577 41.9141 206.431 40.8508 203.201C40.1965 201.211 39.2764 200.168 38.5676 199.895L38.5608 199.888Z" fill="#26120C"/>
<path d="M55.0613 198.287C55.0613 198.287 60.2616 197.04 61.9383 200.958C64.5759 207.12 62.4699 210.643 55.443 211.625C48.4161 212.606 40.435 213.935 46.4668 208.933C52.5054 203.937 55.0613 198.287 55.0613 198.287Z" fill="#26120C"/>
<path d="M27.0696 195.117C27.0696 195.117 24.9704 194.893 24.4115 195.152C23.471 195.581 24.984 197.333 25.945 197.482C26.906 197.632 27.8398 196.508 27.8261 195.772C27.8125 195.042 27.0696 195.117 27.0696 195.117Z" fill="#564C54"/>
<path d="M28.1533 193.502C28.0511 193.441 27.9421 193.57 28.017 193.659C28.4328 194.156 29.203 194.811 30.2457 194.593C31.1045 194.409 31.4317 193.809 31.5475 193.284C31.5748 193.168 31.4112 193.1 31.3567 193.209C31.1318 193.598 30.7024 193.993 29.8641 194.047C29.2302 194.088 28.5827 193.775 28.1533 193.509V193.502Z" fill="#564C54"/>
<path d="M20.0153 193.073C19.9267 192.991 19.7973 193.1 19.8518 193.202C20.1721 193.768 20.806 194.552 21.8692 194.531C22.7484 194.511 23.1778 193.979 23.3891 193.482C23.4368 193.373 23.2937 193.277 23.2119 193.373C22.9256 193.713 22.4281 194.027 21.5898 193.925C20.9627 193.85 20.3766 193.42 20.0085 193.08L20.0153 193.073Z" fill="#564C54"/>
</svg>
