<svg width="221" height="261" viewBox="0 0 221 261" fill="none" xmlns="http://www.w3.org/2000/svg">
<path d="M213.48 254.695C213.48 258.171 165.707 261 106.74 261C47.8126 261 0 258.171 0 254.695C0 251.219 47.8126 248.43 106.74 248.43C165.707 248.43 213.48 251.219 213.48 254.695Z" fill="#CED3E6"/>
<path d="M148.571 257.645C115.227 256.473 80.752 251.906 62.888 190.473C57.5934 172.205 61.0288 158.383 66.8488 147.955C68.3038 145.369 69.88 143.024 71.5371 140.842C72.1299 140.007 72.7496 139.212 73.3962 138.457C86.4103 122.493 108.276 116.754 127.635 123.827C138.507 127.787 152.451 133.607 164.859 141.246C189.836 156.523 195.696 173.983 203.82 203.891C204.548 206.478 205.235 209.348 205.76 212.419C206.043 214.036 206.285 215.734 206.447 217.431C208.266 236.588 200.87 259.464 148.571 257.645Z" fill="#39393B"/>
<path d="M206.447 217.431C205.356 220.543 203.78 223.736 201.678 226.727C195.373 235.78 182.238 246.693 155.482 247.38C154.297 247.434 153.138 247.461 152.006 247.461C141.781 247.461 132.768 246.208 124.523 243.702C115.914 241.075 108.397 237.074 101.526 231.577C90.0883 222.322 80.6309 208.782 70.9309 187.725C67.0914 179.399 65.111 170.952 65.0301 162.626C64.9493 157.655 65.596 152.765 66.8489 147.955C68.3039 145.369 69.8801 143.025 71.5372 140.842C71.1061 141.785 70.7019 142.782 70.3247 143.833C66.8489 153.412 64.4239 168.649 72.7901 186.836C89.8458 223.857 109.609 246.531 155.442 245.318C181.308 244.631 193.918 234.204 199.981 225.555C203.133 221.028 204.911 216.461 205.76 212.42C206.043 214.036 206.286 215.734 206.447 217.431Z" fill="#FFE818"/>
<path d="M158.756 104.063C158.756 104.063 179.691 132.476 184.461 146.621C189.23 160.767 177.63 170.79 177.63 170.79L166.879 174.832C166.879 174.832 155.805 124.877 158.756 104.063Z" fill="#0C0ABD"/>
<path d="M156.897 183.602C147.762 186.634 125.412 194.596 115.672 191.403C115.268 191.268 114.89 191.106 114.54 190.918C113.449 190.392 112.6 189.705 112.034 188.816C108.195 182.996 104.436 158.665 106.133 144.398C106.336 142.62 106.457 140.68 106.497 138.619C106.538 135.628 106.416 132.435 106.295 129.202C105.81 117.036 103.911 108.67 109.084 105.72C113.772 103.052 119.673 100.991 123.432 100.102C125.735 99.5361 129.575 98.3641 132.242 98.4449L143.802 100.547C143.802 100.547 153.825 102.204 156.129 103.901C158.432 105.599 159.604 113.076 163.767 119.946C167.93 126.817 168.819 133.688 164.859 141.246C161.383 147.793 161.989 145.288 161.544 156.079C160.979 169.214 174.761 177.702 156.897 183.602Z" fill="white"/>
<g opacity="0.8">
<path d="M126.18 121.887C126.18 121.887 138.709 118.653 154.714 121.644L155.118 132.718C155.118 132.718 137.497 130.738 126.423 133.567L126.18 121.887Z" fill="#CED3E6"/>
</g>
<g opacity="0.8">
<path d="M140.568 112.55C140.407 112.55 140.232 112.537 140.043 112.51C133.213 112.187 126.908 106.124 126.665 105.882C126.463 105.68 126.463 105.397 126.665 105.195C126.827 105.033 127.11 104.993 127.312 105.195C127.393 105.235 133.617 111.257 140.124 111.58C146.348 111.904 147.075 105.72 147.116 105.478C147.156 105.235 147.399 105.033 147.641 105.073C147.884 105.073 148.086 105.316 148.045 105.558C148.045 105.639 147.237 112.55 140.568 112.55Z" fill="#CED3E6"/>
</g>
<g opacity="0.8">
<path d="M121.128 167.921C121.101 167.894 121.061 167.854 121.007 167.8C120.886 167.557 120.966 167.274 121.168 167.113C130.1 161.737 138.669 159.838 144.246 159.191C150.349 158.463 154.269 159.07 154.431 159.07C154.714 159.11 154.876 159.353 154.835 159.636C154.795 159.878 154.552 160.08 154.269 160.04C154.229 160.04 150.309 159.474 144.327 160.161C138.83 160.808 130.424 162.667 121.694 167.961C121.532 168.083 121.29 168.042 121.128 167.921Z" fill="#CED3E6"/>
</g>
<path d="M132.808 188.008C124.563 185.421 117.127 180.167 112.034 175.479C111.63 175.102 111.239 174.738 110.862 174.388C108.235 171.801 106.376 173.135 105.568 171.639C102.496 166.021 104.234 143.914 105.568 135.79C106.901 127.666 101.284 112.793 104.315 107.498C107.306 102.163 117.693 100.304 117.693 100.304C117.693 100.304 116.238 98.6068 119.026 96.6264C121.815 94.6864 129.252 95.4947 129.252 95.4947C129.575 130.617 134.546 163.273 132.808 188.008Z" fill="#0875F7"/>
<path d="M124.685 177.944C124.483 177.944 124.281 177.782 124.24 177.54C120.481 153.169 124.2 107.337 124.24 106.892C124.281 106.609 124.483 106.447 124.725 106.447C125.008 106.488 125.17 106.69 125.17 106.973C125.129 107.417 121.411 153.169 125.17 177.419C125.21 177.661 125.008 177.904 124.765 177.944C124.739 177.944 124.712 177.944 124.685 177.944Z" fill="white"/>
<path d="M132.243 181.622C132.04 181.622 131.838 181.46 131.798 181.218C126.867 153.209 126.503 104.912 126.503 104.427C126.503 104.184 126.706 103.982 126.948 103.982C127.191 103.982 127.393 104.184 127.393 104.427C127.433 104.912 127.797 153.128 132.687 181.056C132.728 181.299 132.566 181.541 132.323 181.582C132.296 181.609 132.27 181.622 132.243 181.622Z" fill="#0C0ABD"/>
<path d="M124.119 104.144C124.065 104.144 124.025 104.144 123.998 104.144C120.118 103.093 117.733 100.829 117.612 100.708C117.45 100.547 117.45 100.264 117.612 100.062C117.814 99.8999 118.097 99.8999 118.258 100.062C118.299 100.102 120.603 102.284 124.24 103.254C124.483 103.335 124.604 103.578 124.563 103.82C124.483 104.022 124.321 104.144 124.119 104.144Z" fill="#0C0ABD"/>
<path d="M168.496 172.69C168.496 172.69 165.546 182.552 154.633 187.28C153.259 160.484 150.187 129.849 146.227 97.3133C146.227 97.3133 150.39 96.5858 152.127 98.9704C152.895 99.9808 153.057 101.719 153.057 101.719C153.057 101.719 155.199 102.123 157.543 103.214C159.847 104.305 159.604 105.801 160.17 109.6C160.696 113.399 166.596 119.3 168.496 127.262C170.396 135.224 165.344 140.276 163.767 146.985C162.191 153.654 168.496 172.69 168.496 172.69Z" fill="#0875F7"/>
<path d="M159.119 176.812C158.837 176.812 158.634 176.651 158.634 176.368C157.584 139.912 150.915 107.337 150.875 107.013C150.794 106.771 150.955 106.528 151.238 106.488C151.481 106.407 151.723 106.569 151.764 106.811C151.844 107.135 158.513 139.791 159.564 176.368C159.564 176.61 159.362 176.812 159.119 176.812Z" fill="white"/>
<path d="M149.056 105.154C148.813 105.154 148.611 105.033 148.611 104.79C148.53 104.548 148.732 104.305 148.975 104.265C149.015 104.265 151.925 103.74 152.612 101.597C152.693 101.355 152.936 101.234 153.178 101.274C153.421 101.355 153.582 101.638 153.502 101.88C152.653 104.548 149.258 105.154 149.137 105.154C149.11 105.154 149.083 105.154 149.056 105.154Z" fill="#0C0ABD"/>
<path d="M158.028 176.812C157.786 176.812 157.624 176.651 157.584 176.408C154.35 149.531 149.217 106.569 149.177 106.164C149.137 105.882 149.339 105.679 149.581 105.639C149.824 105.599 150.066 105.801 150.107 106.043C150.147 106.488 155.24 149.45 158.473 176.327C158.513 176.57 158.352 176.812 158.109 176.812C158.082 176.812 158.055 176.812 158.028 176.812Z" fill="#0C0ABD"/>
<path d="M130.868 196.132C132.283 197.142 134.465 198.193 137.78 199.244C156.533 205.185 173.75 195.566 173.75 195.566C174.761 190.433 174.114 184.573 172.416 182.471C172.942 181.703 172.578 180.773 172.578 180.773L189.836 162.869C180.015 170.993 167.89 173.66 158.432 179.359C155.724 181.016 153.259 182.471 151.481 183.481C148.732 185.017 145.216 185.179 141.821 184.694C135.153 183.764 128.726 180.49 128.726 180.49C128.726 180.49 107.225 170.75 103.224 171.073C100.071 171.316 116.925 188.938 130.868 196.132Z" fill="#21B573"/>
<path d="M164.091 211.126C164.091 211.126 158.554 209.55 156.856 207.772L153.017 216.825L166.112 220.907C166.112 220.907 166.273 212.945 164.091 211.126Z" fill="#EA9B7A"/>
<path d="M195.696 237.316L178.762 199.769C178.115 199.688 177.347 199.89 176.458 200.214C173.184 201.386 168.577 204.7 165.586 206.64C165.236 206.855 164.912 207.057 164.616 207.246C164.131 207.569 163.686 207.812 163.363 207.933C160.776 209.105 162.151 210.52 162.151 210.52C167.001 212.945 164.05 220.179 167.001 221.836C167.001 221.836 168.254 222.604 172.295 224.342C176.296 226.121 180.378 230.405 184.097 233.921C188.947 238.448 191.978 238.973 193.716 238.528C195.131 238.205 195.696 237.316 195.696 237.316Z" fill="#EBB12B"/>
<path d="M195.696 237.316L178.762 199.769C178.115 199.688 177.347 199.89 176.458 200.214L193.716 238.528C195.131 238.205 195.696 237.316 195.696 237.316Z" fill="#C77E2E"/>
<path d="M180.5 203.568L179.974 202.477C179.206 204.134 177.751 206.074 174.882 207.206C171.083 208.701 167.607 207.569 165.586 206.64C165.236 206.855 164.913 207.057 164.616 207.246C166.637 208.337 170.719 209.873 175.246 208.095C177.954 207.044 179.57 205.266 180.5 203.568Z" fill="#C77E2E"/>
<path d="M174.195 222.725C174.074 222.443 173.791 222.281 173.467 222.321C173.104 222.402 172.861 222.766 172.942 223.13L173.386 225.716C173.467 226.12 173.831 226.363 174.195 226.282C174.559 226.201 174.801 225.878 174.72 225.474L174.276 222.887C174.249 222.833 174.222 222.779 174.195 222.725Z" fill="white"/>
<path d="M171.204 221.271C171.083 220.988 170.8 220.826 170.476 220.866C170.113 220.947 169.87 221.311 169.911 221.675L170.396 224.302C170.476 224.666 170.8 224.908 171.204 224.827C171.568 224.746 171.81 224.423 171.729 224.059L171.244 221.432C171.244 221.378 171.231 221.324 171.204 221.271Z" fill="white"/>
<path d="M176.62 224.463C176.498 224.181 176.216 224.019 175.892 224.059C175.528 224.14 175.286 224.504 175.367 224.868L175.811 227.454C175.892 227.818 176.256 228.061 176.62 228.02C176.983 227.939 177.226 227.576 177.145 227.212L176.701 224.625C176.674 224.571 176.647 224.517 176.62 224.463Z" fill="white"/>
<path d="M179.004 226.201C178.883 225.918 178.56 225.757 178.277 225.838C177.873 225.878 177.63 226.242 177.711 226.606L178.196 229.233C178.236 229.596 178.6 229.839 178.964 229.758C179.328 229.718 179.611 229.354 179.53 228.99L179.045 226.363C179.045 226.309 179.031 226.255 179.004 226.201Z" fill="white"/>
<path d="M181.348 228.222C181.227 227.939 180.944 227.778 180.621 227.818C180.257 227.899 180.015 228.263 180.096 228.626L180.54 231.213C180.621 231.617 180.985 231.86 181.348 231.779C181.712 231.698 181.955 231.375 181.874 230.971L181.429 228.384C181.402 228.33 181.375 228.276 181.348 228.222Z" fill="white"/>
<path d="M183.652 230.526C183.531 230.243 183.208 230.081 182.925 230.122C182.521 230.203 182.278 230.566 182.359 230.93L182.844 233.557C182.884 233.921 183.248 234.163 183.612 234.083C183.976 234.002 184.258 233.678 184.178 233.315L183.693 230.688C183.693 230.634 183.679 230.58 183.652 230.526Z" fill="white"/>
<path d="M103.224 171.073C103.224 171.073 89.6032 163.718 81.722 169.416C67.3337 179.763 91.7857 199.729 119.754 209.469C147.682 219.25 156.775 217.916 156.775 217.916C156.775 217.916 162.838 216.219 160.696 206.397C160.696 206.397 144.57 200.254 136.203 193.828C127.797 187.402 122.098 179.561 103.224 171.073Z" fill="#21B573"/>
<path d="M159.604 209.267C153.744 207.852 141.781 202.356 127.635 194.596C117.046 188.776 104.84 181.339 103.062 178.753C102.092 177.378 101.849 176.247 102.334 175.398C103.062 174.105 105.163 173.983 106.093 173.983C106.376 173.983 106.538 174.186 106.538 174.428C106.497 174.671 106.336 174.832 106.093 174.832C105.163 174.832 103.547 174.994 103.062 175.802C102.698 176.489 103.223 177.54 103.749 178.268C105.204 180.369 115.429 186.917 128.039 193.828C138.911 199.81 152.976 206.761 159.807 208.418L159.604 209.267Z" fill="#217C58"/>
<path d="M158.513 205.064C157.867 210.237 156.492 214.966 153.582 218.563C153.582 218.563 156.088 220.381 158.352 219.088C160.13 218.078 163.484 209.994 162.191 205.67C160.736 204.902 159.483 204.619 158.513 205.064Z" fill="#217C58"/>
<path d="M123.028 210.116C123.028 210.116 128.565 209.065 130.141 207.125L134.587 215.936L121.815 220.866C121.815 220.866 120.966 212.056 123.028 210.116Z" fill="#EA9B7A"/>
<path d="M93.4023 239.216L107.791 200.618C108.397 200.537 109.205 200.658 110.094 200.901C113.449 201.871 118.299 204.862 121.371 206.6C121.748 206.815 122.085 207.004 122.381 207.165C122.906 207.408 123.351 207.65 123.674 207.772C126.382 208.742 125.251 209.51 125.251 209.51C119.956 211.975 123.836 220.018 121.007 221.877C121.007 221.877 119.794 222.685 115.874 224.747C111.994 226.767 108.235 231.294 104.719 235.053C100.192 239.903 97.2015 240.63 95.4232 240.307C94.049 240.105 93.4023 239.216 93.4023 239.216Z" fill="#EBB12B"/>
<path d="M93.4023 239.216L107.791 200.618C108.397 200.537 109.205 200.658 110.094 200.901L95.4232 240.307C94.049 240.105 93.4023 239.216 93.4023 239.216Z" fill="#C77E2E"/>
<path d="M106.295 204.538L106.74 203.407C107.629 205.023 109.205 206.842 112.156 207.772C116.036 209.024 119.431 207.691 121.371 206.599C121.748 206.815 122.085 207.004 122.381 207.165C120.441 208.378 116.48 210.197 111.832 208.701C109.044 207.812 107.346 206.155 106.295 204.538Z" fill="#C77E2E"/>
<path d="M113.853 223.251C113.934 222.928 114.257 222.766 114.54 222.807C114.944 222.847 115.187 223.17 115.147 223.534L114.864 226.161C114.823 226.565 114.459 226.808 114.096 226.767C113.732 226.727 113.449 226.404 113.489 226.04L113.813 223.413C113.813 223.332 113.826 223.278 113.853 223.251Z" fill="white"/>
<path d="M116.763 221.594C116.844 221.311 117.127 221.109 117.45 221.149C117.814 221.19 118.097 221.513 118.056 221.917L117.774 224.544C117.733 224.908 117.369 225.191 117.006 225.11C116.642 225.07 116.359 224.746 116.399 224.383L116.723 221.756C116.723 221.702 116.736 221.648 116.763 221.594Z" fill="white"/>
<path d="M111.549 225.11C111.671 224.827 111.954 224.666 112.277 224.666C112.641 224.747 112.883 225.07 112.843 225.434L112.56 228.061C112.519 228.424 112.196 228.707 111.792 228.667C111.428 228.627 111.186 228.303 111.226 227.899L111.509 225.272C111.509 225.218 111.522 225.164 111.549 225.11Z" fill="white"/>
<path d="M109.286 227.05C109.407 226.727 109.69 226.565 110.014 226.606C110.377 226.646 110.66 226.969 110.62 227.333L110.296 229.96C110.256 230.364 109.933 230.607 109.569 230.566C109.205 230.526 108.922 230.203 108.963 229.839L109.246 227.212C109.273 227.131 109.286 227.077 109.286 227.05Z" fill="white"/>
<path d="M107.063 229.192C107.184 228.909 107.467 228.707 107.791 228.748C108.154 228.788 108.437 229.152 108.397 229.515L108.074 232.143C108.033 232.506 107.71 232.789 107.346 232.749C106.982 232.708 106.699 232.345 106.74 231.981L107.023 229.354C107.05 229.3 107.063 229.246 107.063 229.192Z" fill="white"/>
<path d="M104.961 231.658C105.042 231.375 105.366 231.173 105.649 231.213C106.053 231.253 106.295 231.577 106.255 231.981L105.972 234.608C105.931 234.972 105.568 235.255 105.204 235.214C104.84 235.174 104.557 234.81 104.598 234.446L104.921 231.819C104.921 231.765 104.935 231.712 104.961 231.658Z" fill="white"/>
<path d="M184.299 165.092C184.299 165.092 197.192 156.564 205.558 161.495C220.835 170.467 198.324 192.615 171.366 204.862C144.408 217.148 135.274 216.663 135.274 216.663C135.274 216.663 129.05 215.532 130.303 205.549C130.303 205.549 145.782 197.95 153.542 190.797C161.302 183.643 166.273 175.277 184.299 165.092Z" fill="#21B573"/>
<path d="M160.777 209.509C159.295 209.994 157.772 210.479 156.21 210.964C150.188 212.864 143.276 214.844 137.052 216.38V217.269C142.67 215.895 149.258 214.036 156.452 211.773C157.867 211.328 159.322 210.884 160.736 210.399L160.777 209.509Z" fill="#217C58"/>
<path d="M131.636 208.297C137.335 206.357 148.732 199.81 162.151 190.756C172.134 184.007 183.612 175.479 185.148 172.771C185.996 171.276 186.158 170.104 185.592 169.336C184.744 168.123 182.642 168.164 181.672 168.285C181.429 168.285 181.268 168.527 181.308 168.77C181.349 168.972 181.551 169.134 181.753 169.134C182.682 169.012 184.339 169.053 184.865 169.821C185.309 170.427 184.865 171.518 184.42 172.326C183.167 174.549 173.589 181.986 161.666 190.069C151.36 197.021 138.022 205.225 131.353 207.489L131.636 208.297Z" fill="#217C58"/>
<path d="M132.364 204.053C133.495 209.146 135.274 213.713 138.507 217.027C138.507 217.027 136.163 219.048 133.778 217.957C131.96 217.148 127.837 209.388 128.726 204.983C130.101 204.053 131.353 203.649 132.364 204.053Z" fill="#217C58"/>
<path d="M130.626 163.192L129.575 177.985C129.575 177.985 112.034 175.479 103.385 173.256C100.879 172.65 98.0907 171.801 95.504 170.427C90.7349 167.921 86.7741 163.516 87.057 154.907C87.1782 152.159 87.7036 148.966 88.7949 145.288C95.0594 123.827 105.568 105.841 105.568 105.841C119.067 111.621 117.935 121.24 117.935 121.24C114.096 131.546 105.568 153.452 105.568 153.452C110.498 159.514 130.626 163.192 130.626 163.192Z" fill="#0875F7"/>
<path d="M105.568 153.896C105.487 153.896 105.406 153.883 105.325 153.856C103.83 152.926 99.7477 151.956 99.7073 151.956C99.4648 151.876 99.3032 151.633 99.384 151.391C99.4244 151.148 99.6669 150.986 99.9094 151.067C100.071 151.108 102.941 151.754 104.8 152.563C104.53 151.943 104.086 151.283 103.466 150.582C103.304 150.38 103.304 150.097 103.506 149.936C103.709 149.774 103.991 149.774 104.153 149.976C105.244 151.188 105.851 152.32 106.012 153.371C106.053 153.573 105.972 153.735 105.81 153.816C105.729 153.869 105.649 153.896 105.568 153.896Z" fill="#0C0ABD"/>
<path d="M95.504 170.427C90.7349 167.921 86.7741 163.515 87.057 154.907C90.8561 156.887 97.4036 161.656 95.504 170.427Z" fill="#0C0ABD"/>
<path d="M119.592 160.929C119.538 160.929 119.498 160.929 119.471 160.929C110.741 158.706 105.487 153.977 105.244 153.775C105.083 153.654 105.042 153.411 105.163 153.25C111.347 141.044 115.268 131.344 117.49 122.776C117.571 122.533 117.814 122.372 118.056 122.412C118.299 122.493 118.461 122.735 118.38 122.978C116.157 131.587 112.277 141.246 106.133 153.331C107.306 154.301 112.277 158.14 119.673 160.04C119.915 160.121 120.077 160.363 120.037 160.606C119.956 160.808 119.794 160.929 119.592 160.929Z" fill="#0C0ABD"/>
<path d="M116.076 129.606C115.995 129.606 115.901 129.566 115.793 129.485C115.591 129.364 115.591 129.04 115.712 128.838L118.946 124.797C119.107 124.595 119.39 124.554 119.592 124.716C119.794 124.877 119.835 125.16 119.673 125.362L116.44 129.445C116.359 129.525 116.238 129.606 116.076 129.606Z" fill="#0C0ABD"/>
<path d="M131.111 92.3827L146.712 94.6056C156.856 93.5951 160.089 89.5535 161.747 81.0661C162.595 76.7819 162.029 72.9828 161.221 70.1536C160.979 66.9607 160.251 64.2124 158.756 62.3937C151.925 54.1083 145.863 54.4316 145.863 54.4316C142.832 53.0575 132.687 52.0875 126.018 60.1708C125.816 60.3728 121.734 64.657 120.805 73.7507C119.875 82.3594 125.655 93.3931 131.111 92.3827Z" fill="#39393B"/>
<path d="M139.841 56.6949C139.841 56.6949 141.458 42.3067 128.686 44.1658C120.36 45.3379 115.187 56.6545 122.826 61.7874C130.424 66.9203 139.841 56.6949 139.841 56.6949Z" fill="#39393B"/>
<path d="M124.078 63.2424C124.025 63.2424 123.971 63.2289 123.917 63.202C123.715 63.0807 123.634 62.8382 123.755 62.6362C126.705 57.2608 130.909 54.9166 133.94 53.8658C137.214 52.7341 139.76 52.8554 139.881 52.8554C140.083 52.8958 140.245 53.0575 140.245 53.3C140.245 53.502 140.043 53.6637 139.8 53.6637C139.72 53.6637 129.858 53.2191 124.442 63.0403C124.361 63.1616 124.24 63.2424 124.078 63.2424Z" fill="#EBB12B"/>
<path d="M132.364 89.1494C132.364 89.1494 122.381 83.5719 124.361 71.9724C126.301 60.3729 133.94 53.4212 145.62 56.7758C145.62 56.7758 144.489 90.281 132.364 89.1494Z" fill="#39393B"/>
<path d="M160.009 67.8095C160.009 67.8095 161.06 77.7519 159.241 79.2069C157.422 80.6619 155.644 76.7011 155.644 76.7011C155.644 76.7011 158.109 67.9307 160.009 67.8095Z" fill="#39393B"/>
<path d="M155.442 80.096C155.442 80.096 158.392 77.5093 159.402 80.7022C160.372 83.8951 158.392 89.7555 154.674 88.2197L155.442 80.096Z" fill="#D46A43"/>
<path d="M159.079 87.4923C158.675 87.8696 158.23 88.1929 157.745 88.4623C155.886 89.4323 153.461 89.5536 150.511 88.0177C150.511 88.0177 146.793 83.1678 152.33 74.5995C152.33 74.5995 157.382 73.2658 160.292 76.297C160.615 76.6473 160.898 77.0514 161.14 77.5095C161.302 77.7789 161.45 78.0753 161.585 78.3986C162.595 80.9853 161.666 85.1482 159.079 87.4923Z" fill="#21B573"/>
<path d="M158.958 75.2866C159.2 74.1146 159.443 72.7 159.564 71.1238C159.51 71.1507 159.443 71.1776 159.362 71.2046C159.039 71.2046 158.715 71.0833 158.432 70.8408C158.311 72.3362 158.069 73.67 157.867 74.7612L158.958 75.2866Z" fill="white"/>
<path d="M159.079 87.4923C158.675 87.8695 158.23 88.1929 157.745 88.4623C160.332 83.1273 160.372 78.2774 160.292 76.297C160.615 76.6472 160.898 77.0514 161.14 77.5095C161.14 79.7324 160.817 83.4103 159.079 87.4923Z" fill="#217C58"/>
<path d="M146.793 94.4843L145.58 102.689C145.58 102.689 140.528 109.155 128.888 98.6067C130.181 95.2522 132.243 90.968 131.717 87.6539C131.717 87.6539 132.566 88.4622 134.021 89.3918C134.317 89.5804 134.641 89.7825 134.991 89.998C138.022 91.8168 142.63 94.1609 146.793 94.4843Z" fill="#EA9B7A"/>
<path d="M146.793 94.4843L146.227 98.3239C142.832 97.0306 136.931 94.161 134.021 89.3919C134.317 89.5805 134.641 89.7826 134.991 89.9981C138.022 91.8168 142.63 94.161 146.793 94.4843Z" fill="#39393B"/>
<path d="M157.988 80.4598C157.853 81.322 157.718 82.1303 157.584 82.8848C156.654 88.5431 155.805 91.6147 154.229 92.8272C146.227 98.9301 132.162 88.1389 131.717 87.7752C131.663 87.1016 131.623 86.4414 131.596 85.7948C131.434 80.3385 132.121 75.4077 133.334 70.8003C133.819 65.7886 137.456 61.6257 142.347 60.6153C147.439 59.6049 151.44 62.3532 153.946 63.5253C157.665 65.344 159.402 70.7599 158.352 77.9944C158.217 78.8566 158.096 79.6784 157.988 80.4598Z" fill="#EA9B7A"/>
<path d="M150.834 87.0882C146.388 87.0882 144.61 82.8041 144.57 82.7636C144.489 82.5616 144.61 82.3191 144.812 82.2382C145.014 82.1574 145.257 82.2787 145.338 82.4807C145.418 82.6424 147.278 87.0882 152.128 86.1586C152.37 86.1182 152.572 86.2395 152.613 86.482C152.653 86.684 152.532 86.8861 152.289 86.9265C151.777 87.0343 151.292 87.0882 150.834 87.0882Z" fill="#39393B"/>
<path d="M147.399 71.6896C148.571 71.2854 148.328 69.5879 147.116 69.5071C145.055 69.3858 141.74 69.4262 141.458 71.0833C141.053 73.5487 144.893 72.5383 147.318 71.6896C147.345 71.6896 147.372 71.6896 147.399 71.6896Z" fill="#39393B"/>
<path d="M153.502 72.4171C152.612 71.5683 153.502 70.1134 154.633 70.5175C156.573 71.245 159.605 72.6192 159.16 74.2762C158.554 76.6608 155.442 74.155 153.542 72.4575C153.515 72.4306 153.502 72.4171 153.502 72.4171Z" fill="#39393B"/>
<path d="M147.56 89.0686C148.369 89.2707 149.056 89.109 149.096 89.109C149.258 89.0686 149.339 88.9473 149.298 88.7857C149.258 88.6644 149.137 88.5432 148.975 88.5836C148.975 88.5836 147.641 88.9069 146.631 88.0177C146.51 87.8965 146.348 87.8965 146.227 88.0177C146.146 88.139 146.146 88.3007 146.267 88.4219C146.671 88.7857 147.116 88.9877 147.56 89.0686Z" fill="#D46A43"/>
<path d="M150.349 83.5314C150.268 83.5045 150.214 83.4506 150.187 83.3698C150.147 83.2081 150.228 83.0465 150.39 83.006L152.33 82.3594L151.198 81.1873C151.117 81.1065 151.077 81.0256 151.077 80.9448L151.44 77.7115C151.481 77.5498 151.602 77.4286 151.764 77.469C151.925 77.469 152.047 77.6307 152.047 77.7923L151.683 80.864L153.097 82.2785C153.178 82.3594 153.178 82.4402 153.178 82.5615C153.138 82.6423 153.057 82.7231 152.976 82.7635L150.592 83.5314C150.511 83.5584 150.43 83.5584 150.349 83.5314Z" fill="#39393B"/>
<path d="M145.297 80.4598C145.216 81.1065 143.761 81.4702 142.064 81.1873C140.326 80.9448 139.033 80.2173 139.154 79.5303C139.235 78.8836 140.69 78.5198 142.387 78.8028C144.085 79.0453 145.418 79.7728 145.297 80.4598Z" fill="#D46A43"/>
<g opacity="0.8">
<path d="M157.988 81.2681C157.853 82.1034 157.718 82.8982 157.584 83.6527C156.048 83.3697 154.916 82.6827 154.997 82.036C155.078 81.4298 156.412 81.066 157.988 81.2681Z" fill="#D46A43"/>
</g>
<path d="M146.954 78.0752C146.833 78.9644 146.307 79.6515 145.782 79.5706C145.257 79.4898 144.974 78.6815 145.095 77.7923C145.216 76.8627 145.782 76.1756 146.267 76.2565C146.792 76.3373 147.116 77.1456 146.954 78.0752Z" fill="#39393B"/>
<path d="M156.048 79.4089C155.927 80.3385 155.401 81.0256 154.876 80.9447C154.35 80.8639 154.067 80.0556 154.189 79.126C154.31 78.1964 154.835 77.5497 155.361 77.5902C155.886 77.671 156.169 78.4793 156.048 79.4089Z" fill="#39393B"/>
<path d="M135.274 84.5015C135.193 84.5823 133.576 87.2094 131.717 87.7752C131.663 87.1016 131.623 86.4415 131.596 85.7948C131.677 85.7948 133.496 85.7544 135.274 84.5015Z" fill="#39393B"/>
<path d="M134.546 77.8731C134.546 77.8731 131.596 72.3765 128.322 75.8523C125.655 78.7218 128.565 87.856 133.496 85.431L134.546 77.8731Z" fill="#EA9B7A"/>
<path d="M133.132 83.9355C132.93 83.8951 132.808 83.7335 132.808 83.5314C132.93 79.7322 130.02 77.9539 129.898 77.8731C129.696 77.7922 129.656 77.5497 129.737 77.3477C129.858 77.186 130.101 77.1052 130.262 77.2264C130.424 77.3073 133.738 79.2876 133.576 83.5718C133.536 83.7739 133.374 83.9355 133.172 83.9355C133.145 83.9355 133.132 83.9355 133.132 83.9355Z" fill="#39393B"/>
<path d="M129.939 81.1065C129.818 81.066 129.737 81.0256 129.656 80.9044C129.575 80.7427 129.616 80.5002 129.818 80.379C129.979 80.2981 131.475 79.409 132.566 79.894C132.768 79.9748 132.849 80.1769 132.768 80.379C132.687 80.5811 132.485 80.6619 132.283 80.5811C131.636 80.3386 130.545 80.864 130.181 81.0661C130.101 81.093 130.02 81.1065 129.939 81.1065Z" fill="#39393B"/>
<path fill-rule="evenodd" clip-rule="evenodd" d="M143.64 82.8848C140.771 81.7935 139.316 78.5602 140.407 75.6907C141.538 72.7807 144.772 71.3661 147.641 72.4573C150.511 73.5486 151.966 76.7819 150.875 79.6515C149.743 82.521 146.51 83.976 143.64 82.8848ZM147.358 73.2252C144.893 72.2553 142.104 73.5082 141.175 75.9736C140.245 78.439 141.498 81.1873 143.923 82.1169C146.388 83.0464 149.177 81.834 150.107 79.3685C151.036 76.9031 149.783 74.1548 147.358 73.2252Z" fill="white"/>
<path d="M140.609 76.4181C140.555 76.4181 140.501 76.4047 140.447 76.3777C137.416 75.0036 134.587 76.0544 134.546 76.0544C134.344 76.1352 134.102 76.0544 134.021 75.8119C133.94 75.6098 134.061 75.3673 134.263 75.2865C134.385 75.2461 137.456 74.1144 140.771 75.6502C141.013 75.731 141.094 75.9736 140.973 76.1756C140.932 76.3373 140.771 76.4181 140.609 76.4181Z" fill="white"/>
<path fill-rule="evenodd" clip-rule="evenodd" d="M156.007 84.2993C153.138 83.1676 151.683 79.9343 152.774 77.0647C153.865 74.1952 157.099 72.7402 160.009 73.8314C162.878 74.9631 164.333 78.1964 163.242 81.066C162.11 83.9355 158.877 85.3905 156.007 84.2993ZM159.726 74.5993C157.26 73.6698 154.472 74.9227 153.542 77.3477C152.613 79.8131 153.825 82.6018 156.29 83.5314C158.756 84.4609 161.504 83.208 162.474 80.7831C163.404 78.3177 162.151 75.5289 159.726 74.5993Z" fill="white"/>
<path d="M150.592 77.3074C150.538 77.2535 150.484 77.1996 150.43 77.1457C150.309 76.9437 150.39 76.7012 150.551 76.5799C150.632 76.5395 152.006 75.7312 153.38 76.8224C153.583 76.9437 153.623 77.1862 153.461 77.3882C153.34 77.5499 153.098 77.5903 152.895 77.4691C151.925 76.7012 150.996 77.267 150.996 77.267C150.875 77.3478 150.713 77.3478 150.592 77.3074Z" fill="white"/>
<path d="M153.582 58.5137C156.977 60.0495 159.645 62.8787 160.817 66.3949C161.585 68.6178 162.191 71.5278 159.12 71.1641C150.632 70.1132 146.105 61.3429 146.105 61.3429C146.105 61.3429 144.448 69.4261 137.78 68.4561C131.151 67.4457 131.353 62.4341 135.112 59.605C138.224 57.3012 146.065 55.1187 153.582 58.5137Z" fill="#39393B"/>
<path d="M138.063 67.5266C138.063 67.5266 134.263 71.5682 135.638 75.9332C136.971 80.3386 137.093 83.8144 135.678 86.199C135.678 86.199 135.274 81.5915 133.617 78.0753C132.243 75.2057 130.949 73.0232 131.919 69.7091C132.606 67.4458 134.263 65.2633 138.063 67.5266Z" fill="#39393B"/>
<path d="M131.919 87.3306C128.969 88.0581 126.706 87.6539 125.008 86.6031C124.739 86.4144 124.483 86.2258 124.24 86.0372C120.724 83.0868 120.481 76.984 122.624 73.9527C123.391 72.9019 124.281 72.2148 125.21 71.7298C125.48 71.5951 125.763 71.4873 126.059 71.4065C129.696 70.194 133.657 72.3765 133.657 72.3765C137.78 83.7739 131.919 87.3306 131.919 87.3306Z" fill="#21B573"/>
<path d="M142.226 92.3421C133.657 90.5638 130.02 84.3801 129.818 84.0972C129.696 83.8547 129.777 83.5718 130.02 83.4101C130.262 83.2889 130.545 83.3697 130.707 83.6122C130.747 83.693 135.193 91.1701 145.62 91.7359C145.863 91.7763 146.105 92.0188 146.065 92.2613C146.065 92.5442 145.823 92.7463 145.54 92.7463C144.354 92.6924 143.249 92.5577 142.226 92.3421Z" fill="white"/>
<path d="M148.328 92.6251C148.167 93.4738 147.318 94.0396 146.469 93.8375C145.62 93.6759 145.055 92.8271 145.216 91.9784C145.418 91.1297 146.227 90.5638 147.116 90.7255C147.965 90.9276 148.53 91.7359 148.328 92.6251Z" fill="#243434"/>
<path d="M125.008 86.6029C124.739 86.4143 124.483 86.2257 124.24 86.0371C126.988 79.8938 126.059 74.5184 125.21 71.7297C125.48 71.595 125.763 71.4872 126.059 71.4063C126.948 74.3567 127.958 80.0959 125.008 86.6029Z" fill="#217C58"/>
<path d="M159.847 64.0911C159.12 62.7573 158.311 61.8682 157.907 61.4236C157.584 60.4536 157.22 59.524 156.695 58.6753C154.916 55.8461 152.047 54.1082 148.248 53.502C144.125 52.8957 140.568 53.7041 137.618 55.927C136.729 56.614 135.921 57.4224 135.193 58.3115C134.183 59.524 133.374 60.8982 132.687 62.2319C130.303 66.9606 129.737 71.8106 129.737 71.8914L128.605 71.7702C128.686 71.2852 129.939 60.4132 136.931 55.0378C140.124 52.6128 144.004 51.7236 148.409 52.4107C152.572 53.0574 155.684 54.957 157.665 58.1094C158.796 59.9282 159.483 61.9894 159.847 64.0911Z" fill="white"/>
<path d="M117.167 188.493L113.287 181.056C112.317 179.197 113.651 176.974 115.753 177.015L177.186 177.661L175.407 187.199L117.167 188.493Z" fill="#39393B"/>
<path d="M174.316 186.391H119.35C118.016 186.391 117.046 185.34 117.208 184.007L120.966 150.016C121.088 148.683 122.3 147.632 123.634 147.632H178.6C179.934 147.632 180.904 148.683 180.742 150.016L176.984 184.007C176.862 185.34 175.65 186.391 174.316 186.391Z" fill="#39393B"/>
<path d="M118.501 187.887C118.501 187.887 118.487 187.887 118.461 187.887C118.218 187.846 118.016 187.604 118.056 187.361L122.623 150.946C122.664 150.704 122.866 150.501 123.149 150.542C123.391 150.582 123.553 150.825 123.553 151.067L118.986 187.482C118.946 187.685 118.743 187.887 118.501 187.887Z" fill="#564C54"/>
<path d="M145.257 167.638C145.055 170.346 147.075 172.69 149.743 172.852C152.451 173.054 154.795 170.952 154.997 168.244C155.24 165.496 153.219 163.152 150.511 162.99C147.843 162.828 145.499 164.89 145.257 167.638Z" fill="#0C0ABD"/>
<path d="M174.599 189.382H118.824C117.612 189.382 116.682 188.291 116.844 187.078L117.369 183.198H177.186L176.62 187.604C176.458 188.614 175.609 189.382 174.599 189.382Z" fill="#39393B"/>
<path fill-rule="evenodd" clip-rule="evenodd" d="M134.183 178.389L133.778 180.329H135.638L135.435 182.632H133.293L132.849 184.734H130.424L130.868 182.632H129.373L128.928 184.734H126.503L126.948 182.632H125.089L125.291 180.329H127.433L127.837 178.389H125.978L126.18 176.085H128.322L128.767 173.983H131.192L130.747 176.085H132.243L132.687 173.983H135.153L134.668 176.085H136.527L136.325 178.389H134.183ZM131.758 178.389H130.262L129.858 180.329H131.353L131.758 178.389Z" fill="#EBB12B"/>
<path d="M189.755 124.675C189.755 133.082 196.545 139.872 204.911 139.872C213.318 139.872 220.108 133.082 220.108 124.675C220.108 116.309 213.318 109.519 204.911 109.519C196.545 109.519 189.755 116.309 189.755 124.675Z" fill="#DF615C"/>
<path d="M197.151 137.083L189.028 138.821L192.544 131.789L197.151 137.083Z" fill="#DF615C"/>
<path d="M206.205 121.442C206.205 120.715 205.518 120.351 204.669 120.351C203.699 120.351 202.769 120.957 202.284 121.927L198.202 119.866C199.374 117.683 201.678 116.147 205.356 116.147C208.953 116.147 211.661 117.683 211.661 120.553C211.661 124.029 207.983 124.675 207.983 126.413H203.254C203.254 123.665 206.205 122.816 206.205 121.442ZM202.608 130.051C202.608 128.515 203.82 127.343 205.598 127.343C207.417 127.343 208.63 128.515 208.63 130.051C208.63 131.546 207.417 132.799 205.598 132.799C203.82 132.799 202.608 131.546 202.608 130.051Z" fill="white"/>
<path d="M38.9614 210.884C38.9614 210.884 32.7777 201.184 17.7428 192.333C7.1133 186.068 0.88916 168.406 0.88916 168.406C0.88916 168.406 21.259 169.295 30.1102 181.703C38.9614 194.07 38.9614 210.884 38.9614 210.884Z" fill="#21B573"/>
<path d="M39.0423 211.167C38.921 211.167 38.7998 211.086 38.7594 210.924C35.8898 200.133 29.6252 192.292 24.8561 187.644C19.7232 182.552 15.1966 180.046 15.1562 180.006C14.9945 179.925 14.9541 179.723 15.0349 179.601C15.1158 179.44 15.2774 179.399 15.4391 179.48C15.4795 179.521 20.087 182.067 25.3007 187.2C30.1102 191.928 36.4152 199.85 39.3252 210.803C39.3656 210.965 39.2848 211.126 39.1231 211.167C39.0962 211.167 39.0692 211.167 39.0423 211.167Z" fill="#39393B"/>
<path d="M36.2939 210.681C36.2939 210.681 34.5156 207.125 26.5536 208.014C18.5916 208.903 14.1862 213.349 0 205.387C0 205.387 10.6295 196.536 22.1482 198.274C33.6265 200.052 34.5156 204.498 36.2939 210.681Z" fill="#21B573"/>
<path d="M36.3344 210.965C36.2536 210.965 36.1323 210.924 36.0919 210.843C36.0515 210.803 32.4948 205.185 26.7557 204.134C16.7324 202.315 9.90205 205.508 9.86163 205.549C9.69996 205.63 9.5383 205.549 9.45747 205.428C9.37663 205.266 9.45746 205.104 9.57871 205.023C9.65954 204.983 16.6516 201.709 26.8769 203.528C32.8586 204.619 36.4556 210.277 36.6173 210.52C36.6981 210.682 36.6577 210.843 36.496 210.924C36.4422 210.951 36.3883 210.965 36.3344 210.965Z" fill="#39393B"/>
<path d="M39.7698 209.833C39.7698 209.833 39.0827 205.912 45.9939 201.871C52.9051 197.829 59.1292 198.718 65.7171 183.885C65.7171 183.885 51.8947 183.118 43.7306 191.443C35.5665 199.729 37.5064 203.811 39.7698 209.833Z" fill="#21B573"/>
<path d="M39.7293 210.156C39.608 210.156 39.4464 210.035 39.4464 209.873C39.406 209.59 38.921 202.921 43.0838 198.476C50.1971 190.877 57.755 189.341 57.8358 189.341C57.9975 189.301 58.1592 189.382 58.1592 189.584C58.1996 189.746 58.1188 189.907 57.9167 189.907C57.8763 189.948 50.4801 191.443 43.5284 198.88C39.5676 203.123 40.0526 209.752 40.0526 209.833C40.0526 209.994 39.9314 210.156 39.7697 210.156C39.7697 210.156 39.7562 210.156 39.7293 210.156Z" fill="#39393B"/>
<path d="M47.9339 214.642H28.534C27.4023 214.642 26.4324 213.713 26.4324 212.541V211.692C26.4324 210.52 27.4023 209.59 28.534 209.59H47.9339C49.0656 209.59 49.9951 210.52 49.9951 211.692V212.541C49.9951 213.713 49.0656 214.642 47.9339 214.642Z" fill="#DF615C"/>
<path d="M38.3147 257.969C22.4715 257.969 12.4078 255.463 14.0245 244.308C15.0753 237.235 20.5719 230.324 24.4923 226.201C25.0312 225.609 25.5432 225.083 26.0282 224.625C27.4427 223.211 28.4127 222.362 28.4127 222.362L28.4531 222.119L28.736 220.543L29.0594 218.765L29.7869 214.642L30.0294 213.187L38.3147 212.824L46.9639 213.187L47.1659 214.642L47.4489 216.906L47.9743 220.543L48.1764 222.119L48.2168 222.362C48.2168 222.362 49.1868 223.211 50.6417 224.625C51.0998 225.083 51.6117 225.609 52.1776 226.201C56.0575 230.324 61.5542 237.235 62.605 244.308C64.2217 255.463 54.158 257.969 38.3147 257.969Z" fill="#DF615C"/>
<path d="M48.1764 222.12H28.4532L28.7361 220.543H47.9743L48.1764 222.12Z" fill="#A92F4B"/>
<path d="M52.1776 226.201H24.4924C25.0313 225.609 25.5432 225.083 26.0282 224.625H50.6418C51.0999 225.083 51.6118 225.609 52.1776 226.201Z" fill="#A92F4B"/>
<path d="M47.4489 216.906L29.0594 218.765L29.7869 214.643H47.1659L47.4489 216.906Z" fill="#A92F4B"/>
<path d="M82 36.2721C82 54.0158 67.4549 68.3798 49.4698 68.3798C31.545 68.3798 17 54.0158 17 36.2721C17 18.5283 31.545 4.16433 49.4698 4.16433C67.4549 4.16433 82 18.5283 82 36.2721Z" fill="#CED3E6"/>
<path d="M82 32.1077C82 49.7911 67.4549 64.2154 49.4698 64.2154C31.545 64.2154 17 49.7911 17 32.1077C17 14.364 31.545 0 49.4698 0C67.4549 0 82 14.364 82 32.1077Z" fill="#0C0ABD"/>
<path d="M49.4698 58.1801C34.9247 58.1801 23.0353 46.4717 23.0353 32.1077C23.0353 17.6834 34.9247 5.97492 49.4698 5.97492C64.0752 5.97492 75.9044 17.6834 75.9044 32.1077C75.9044 46.4717 64.0752 58.1801 49.4698 58.1801Z" fill="white"/>
<path d="M75.9044 32.1077C75.9044 32.7917 75.8843 33.4757 75.844 34.1597C74.7577 20.701 63.3509 10.0789 49.4698 10.0789C35.5886 10.0789 24.182 20.701 23.156 34.1597C23.0755 33.4757 23.0353 32.7917 23.0353 32.1077C23.0353 17.6834 34.9247 5.97492 49.4698 5.97492C64.0752 5.97492 75.9044 17.6834 75.9044 32.1077Z" fill="#CED3E6"/>
<path d="M49.4698 34.8237C49.2887 34.8237 49.1077 34.7029 48.9267 34.5219L36.0112 17.3213C35.7697 17.0196 35.8301 16.5971 36.1318 16.3557C36.4336 16.1746 36.8561 16.235 37.0371 16.5367L49.7112 33.3148L64.0752 27.0985C64.4374 26.9778 64.7995 27.0985 64.9202 27.4606C65.1012 27.7624 64.9202 28.1848 64.6184 28.3055L49.7716 34.7633C49.6509 34.8035 49.5503 34.8237 49.4698 34.8237Z" fill="#39393B"/>
</svg>
