<svg width="186" height="233" viewBox="0 0 186 233" fill="none" xmlns="http://www.w3.org/2000/svg">
<path d="M185.697 227.477C185.697 230.522 145.34 233 95.5313 233C45.7222 233 5.36519 230.522 5.36519 227.477C5.36519 224.433 45.7222 221.99 95.5313 221.99C145.34 221.99 185.697 224.433 185.697 227.477Z" fill="#CED3E6"/>
<path d="M108.7 55.5352L108.807 56.0662L108.913 56.4911L109.054 57.3053C109.149 57.8245 109.231 58.3437 109.302 58.8629C109.444 59.9013 109.574 60.928 109.692 61.9428C109.904 63.9489 110.057 65.9549 110.152 67.961C110.246 69.967 110.282 71.9731 110.258 73.9791C110.234 75.9852 110.152 77.9912 110.01 79.9973C109.869 81.9797 109.668 83.9622 109.408 85.9446C109.267 86.9712 109.161 87.9625 108.984 88.9537C108.913 89.4493 108.83 89.9449 108.736 90.4405L108.453 91.892C108.382 92.3876 108.276 92.8832 108.169 93.3788C108.063 93.8744 107.957 94.37 107.851 94.8656C107.638 95.8215 107.391 96.8127 107.143 97.8039C107.037 98.2641 106.895 98.7597 106.753 99.2553L106.364 100.707L106.258 101.061L106.187 101.238L106.081 101.627C105.975 101.981 105.868 102.264 105.762 102.583C105.656 102.866 105.514 103.149 105.408 103.397C105.267 103.68 105.16 103.893 105.019 104.141L104.842 104.495C104.771 104.613 104.712 104.719 104.665 104.813L104.452 105.132L104.275 105.415C104.169 105.592 104.028 105.769 103.921 105.946C103.39 106.654 102.93 107.221 102.434 107.752C101.974 108.283 101.514 108.743 101.054 109.203C100.133 110.053 99.2484 110.796 98.3988 111.504C96.6287 112.885 94.9295 114.053 93.2303 115.15C89.8318 117.345 86.4687 119.221 83.0348 120.956C79.6717 122.726 76.2378 124.355 72.8039 125.912C71.1047 126.691 69.3818 127.446 67.6354 128.178C66.7858 128.555 65.9244 128.921 65.0511 129.275L63.7413 129.806L62.3961 130.373L56.4487 116.956L57.5815 116.354L58.7852 115.752L61.157 114.513C62.7383 113.687 64.3077 112.837 65.8654 111.964C69.016 110.265 72.0959 108.495 75.105 106.69C76.6154 105.793 78.0905 104.884 79.5301 103.964C80.9815 103.008 82.3622 102.052 83.7074 101.096C85.0527 100.14 86.2917 99.1491 87.3891 98.2287C87.9201 97.7331 88.4157 97.2729 88.8051 96.8481C89.1946 96.4587 89.4778 96.0693 89.5486 95.9277C89.525 95.9277 89.5132 95.9277 89.5132 95.9277V95.9631C89.4896 95.9631 89.4778 95.9749 89.4778 95.9985C89.4424 96.0339 89.4424 96.0339 89.407 96.1047C89.407 96.1401 89.3362 96.2463 89.3362 96.3171C89.2654 96.3879 89.2654 96.4941 89.1946 96.6003V96.7065C89.1946 96.7065 89.1946 96.7065 89.1946 96.6711V96.6357L89.2299 96.4941L89.3008 96.2109L89.584 95.0072C89.6548 94.5824 89.7256 94.193 89.8318 93.7682C90.0088 92.954 90.1504 92.1398 90.292 91.3256C90.3628 90.9361 90.4336 90.5113 90.469 90.1219C90.5398 89.6971 90.6106 89.3077 90.6814 88.8829C90.8938 87.2544 91.1062 85.5906 91.2478 83.9622C91.3894 82.3101 91.4956 80.6463 91.5664 78.9706C91.6136 77.3186 91.6254 75.6548 91.6018 73.9791C91.5782 72.3271 91.5074 70.675 91.3894 69.023C91.295 67.3709 91.1416 65.7307 90.9292 64.1022C90.8348 63.2998 90.7286 62.5092 90.6106 61.7304C90.5398 61.3292 90.469 60.9398 90.3982 60.5622L90.3274 60.0311L90.2566 59.6417L108.7 55.5352Z" fill="#EA9B7A"/>
<path d="M88.9822 60.102L85.5837 85.6614C90.646 88.4935 95.3898 90.5113 99.7795 91.2902L88.9822 60.102Z" fill="#A92F4B"/>
<path d="M96.1332 99.6094C96.0624 99.6094 95.9916 99.5859 95.9208 99.5387C93.3011 98.1226 89.6902 96.919 89.6548 96.919C89.407 96.8482 89.3008 96.6004 89.3716 96.3526C89.4424 96.1048 89.6902 95.9986 89.938 96.0694C90.0796 96.1048 93.6551 97.3084 96.3456 98.7598C96.558 98.866 96.6288 99.1493 96.5226 99.3617C96.4518 99.5387 96.2748 99.6094 96.1332 99.6094Z" fill="#D46A43"/>
<path d="M90.0442 97.0252C89.8318 97.0252 89.6194 96.8482 89.584 96.6358C89.584 96.388 89.761 96.1756 90.0088 96.1402C91.8496 95.9278 94.2923 95.9278 94.3985 95.9278C94.6463 95.9278 94.8587 96.1048 94.8587 96.3526C94.8587 96.6004 94.6463 96.8128 94.3985 96.8128C94.3631 96.8128 91.9204 96.8128 90.0796 97.0252C90.0796 97.0252 90.0678 97.0252 90.0442 97.0252Z" fill="#D46A43"/>
<path d="M41.5803 201.953L36.9074 209.565L28.0572 205.635L32.0929 197.457L41.5803 201.953Z" fill="#EA9B7A"/>
<path d="M0.0196672 209.954L33.5089 224.787C33.9691 224.433 34.3939 223.867 34.7834 223.123C36.2348 220.362 37.3322 215.441 38.1464 212.397C38.2408 212.043 38.3352 211.712 38.4296 211.406C38.5713 210.91 38.7129 210.485 38.8545 210.202C39.8811 207.865 37.6508 207.37 37.6508 207.37C32.7655 209.175 31.1371 202.52 28.1988 203.157C28.1988 203.157 26.9244 203.405 23.2073 204.644C19.4902 205.848 14.2508 205.423 9.68411 205.317C3.80756 205.21 1.4711 206.662 0.550681 207.972C-0.157337 208.998 0.0196672 209.954 0.0196672 209.954Z" fill="#FAAF3A"/>
<path d="M0.0196672 209.954L33.5089 224.787C33.9691 224.433 34.3939 223.866 34.7834 223.123L0.550681 207.971C-0.157337 208.998 0.0196672 209.954 0.0196672 209.954Z" fill="#C77E2E"/>
<path d="M30.0751 223.265L31.1017 223.69C30.6061 222.132 30.4291 219.972 31.6681 217.53C33.2965 214.308 36.2702 212.963 38.1465 212.397C38.2409 212.043 38.3353 211.712 38.4297 211.405C36.4472 211.901 32.8363 213.282 30.8893 217.14C29.7211 219.477 29.7211 221.601 30.0751 223.265Z" fill="#C77E2E"/>
<path d="M22.8887 206.839C23.1365 206.98 23.4197 206.91 23.5967 206.662C23.8091 206.414 23.7737 206.024 23.4905 205.812L21.6496 204.396C21.3664 204.184 20.977 204.219 20.8 204.502C20.5876 204.75 20.623 205.139 20.9062 205.352L22.747 206.768C22.7942 206.815 22.8415 206.839 22.8887 206.839Z" fill="#D7D7D7"/>
<path d="M25.7207 206.025C25.9685 206.131 26.2871 206.06 26.4641 205.848C26.6765 205.6 26.6057 205.21 26.3579 204.998L24.4817 203.547C24.2339 203.37 23.8445 203.405 23.6321 203.653C23.4197 203.936 23.4905 204.325 23.7383 204.502L25.6145 205.954C25.6617 205.977 25.6971 206.001 25.7207 206.025Z" fill="#D7D7D7"/>
<path d="M20.269 207.157C20.5168 207.263 20.8 207.193 20.977 206.98C21.1894 206.697 21.1186 206.308 20.8708 206.131L18.9946 204.679C18.7468 204.467 18.3573 204.502 18.1449 204.785C17.9679 205.033 18.0033 205.423 18.2511 205.635L20.1274 207.086C20.1746 207.11 20.2218 207.134 20.269 207.157Z" fill="#D7D7D7"/>
<path d="M17.6493 207.405C17.8971 207.511 18.1803 207.441 18.3573 207.193C18.5697 206.945 18.5343 206.556 18.2511 206.343L16.4103 204.927C16.1271 204.715 15.7377 204.75 15.5607 205.033C15.3483 205.281 15.3837 205.671 15.6669 205.883L17.5077 207.299C17.5549 207.346 17.6021 207.382 17.6493 207.405Z" fill="#D7D7D7"/>
<path d="M14.8881 207.476C15.1359 207.582 15.4191 207.511 15.5961 207.264C15.8085 207.016 15.7731 206.626 15.4899 206.449L13.649 204.998C13.3658 204.785 12.9764 204.821 12.7994 205.104C12.587 205.352 12.6224 205.741 12.9056 205.954L14.7465 207.37C14.7937 207.417 14.8409 207.452 14.8881 207.476Z" fill="#D7D7D7"/>
<path d="M11.9852 207.299C12.233 207.405 12.5516 207.334 12.7286 207.122C12.941 206.839 12.8702 206.449 12.6224 206.272L10.7461 204.821C10.4983 204.608 10.1089 204.644 9.89651 204.927C9.7195 205.175 9.75491 205.564 10.0027 205.777L11.879 207.228C11.9262 207.252 11.9616 207.275 11.9852 207.299Z" fill="#D7D7D7"/>
<path d="M62.3607 128.709C65.476 125.629 90.0088 118.797 106.293 123.363C108.134 126.939 110.506 136.037 104.7 144.462C83.2826 147.967 71.3171 155.153 71.3171 155.153C71.3171 155.153 63.7413 172.677 59.2454 179.12C54.7141 185.563 44.377 205.989 44.377 205.989L28.8006 199.334C28.8006 199.334 53.8999 137.028 62.3607 128.709Z" fill="#39393B"/>
<path d="M46.0409 202.166C45.9937 202.166 45.9347 202.154 45.8639 202.13L30.6415 195.794C30.3937 195.687 30.2875 195.404 30.3937 195.192C30.4645 194.944 30.7477 194.838 30.9601 194.944L46.2179 201.281C46.4657 201.387 46.5719 201.635 46.4657 201.883C46.3949 202.06 46.2179 202.166 46.0409 202.166Z" fill="#585859"/>
<path d="M43.492 200.856C43.4211 200.856 43.3621 200.844 43.3149 200.821C43.1025 200.75 42.9609 200.467 43.0671 200.254C43.1025 200.183 46.2886 192.218 53.7228 180.925C61.1216 169.703 68.839 150.728 68.9452 150.551C69.016 150.304 69.2992 150.197 69.5116 150.304C69.7594 150.41 69.8656 150.658 69.7594 150.87C69.6886 151.082 61.9358 170.128 54.4662 181.421C47.1028 192.643 43.9168 200.502 43.9168 200.573C43.846 200.75 43.669 200.856 43.492 200.856Z" fill="#585859"/>
<path d="M80.8753 203.299L79.7071 212.113H70.0426L70.3966 203.051L80.8753 203.299Z" fill="#EA9B7A"/>
<path d="M46.147 227.407H82.7515C83.0348 226.911 83.1764 226.238 83.2472 225.389C83.4596 222.273 82.4683 217.353 82.0081 214.237C81.9373 213.86 81.8901 213.518 81.8665 213.211C81.7957 212.68 81.7603 212.255 81.7603 211.936C81.7603 209.387 79.4947 209.812 79.4947 209.812C75.7776 213.459 71.6003 208.007 69.1222 209.812C69.1222 209.812 68.0956 210.556 65.1573 213.175C62.2544 215.795 57.3337 217.53 53.121 219.264C47.6693 221.565 46.147 223.831 45.8284 225.389C45.5806 226.628 46.147 227.407 46.147 227.407Z" fill="#FAAF3A"/>
<path d="M46.147 227.406H82.7515C83.0347 226.911 83.1763 226.238 83.2471 225.389H45.8284C45.5806 226.628 46.147 227.406 46.147 227.406Z" fill="#C77E2E"/>
<path d="M79.0344 227.407H80.0964C79.0344 226.168 78.0078 224.291 78.1494 221.565C78.3264 217.919 80.4858 215.512 82.0081 214.237C81.9373 213.86 81.8901 213.518 81.8665 213.211C80.238 214.45 77.4768 217.176 77.2644 221.495C77.1581 224.114 78.0078 226.061 79.0344 227.407Z" fill="#C77E2E"/>
<path d="M65.7945 215.335C66.0777 215.335 66.3255 215.158 66.3963 214.875C66.4671 214.556 66.2547 214.237 65.9361 214.131L63.635 213.565C63.3164 213.494 62.9978 213.706 62.927 214.025C62.8562 214.344 63.0332 214.662 63.3518 214.733L65.6528 215.335C65.7001 215.335 65.7473 215.335 65.7945 215.335Z" fill="#D7D7D7"/>
<path d="M68.0601 213.423C68.3433 213.423 68.5911 213.246 68.6619 212.963C68.7327 212.644 68.5203 212.326 68.2017 212.255L65.9361 211.688C65.6175 211.582 65.2634 211.795 65.1926 212.113C65.1218 212.432 65.2989 212.75 65.6175 212.857L67.9185 213.423C67.9657 213.423 68.0129 213.423 68.0601 213.423Z" fill="#D7D7D7"/>
<path d="M63.4934 216.68C63.7766 216.68 64.0244 216.468 64.0952 216.22C64.166 215.901 63.989 215.547 63.635 215.476L61.3694 214.91C61.0507 214.839 60.6967 215.016 60.6259 215.335C60.5551 215.689 60.7321 216.007 61.0861 216.078L63.3518 216.645C63.399 216.668 63.4462 216.68 63.4934 216.68Z" fill="#D7D7D7"/>
<path d="M61.2278 217.955C61.4756 217.955 61.7234 217.777 61.7942 217.494C61.9004 217.176 61.688 216.822 61.3694 216.751L59.0683 216.184C58.7497 216.114 58.4311 216.291 58.3603 216.609C58.2541 216.963 58.4665 217.282 58.7851 217.353L61.0862 217.919C61.1334 217.943 61.1806 217.955 61.2278 217.955Z" fill="#D7D7D7"/>
<path d="M58.7143 219.123C58.9975 219.123 59.2453 218.946 59.3161 218.663C59.3869 218.344 59.1745 218.025 58.8559 217.954L56.5902 217.353C56.2716 217.282 55.9176 217.494 55.8468 217.813C55.776 218.131 55.953 218.45 56.2716 218.556L58.5727 219.123C58.6199 219.123 58.6671 219.123 58.7143 219.123Z" fill="#D7D7D7"/>
<path d="M56.0239 220.149C56.2717 220.149 56.5195 219.937 56.5903 219.689C56.6965 219.371 56.4841 219.017 56.1655 218.946L53.8644 218.379C53.5458 218.308 53.2272 218.486 53.1564 218.804C53.0502 219.158 53.2626 219.477 53.5812 219.548L55.8823 220.114C55.9295 220.138 55.9767 220.149 56.0239 220.149Z" fill="#D7D7D7"/>
<path d="M154.297 130.302C154.273 130.444 154.25 130.585 154.226 130.727C154.155 130.774 154.084 130.833 154.014 130.904C148.314 135.258 141.694 138.161 134.897 139.789C134.661 139.86 134.425 139.919 134.189 139.966C133.033 140.226 131.876 140.462 130.72 140.674C129.139 140.934 127.557 141.135 125.976 141.276C124.584 141.394 123.215 141.465 121.87 141.489C115.993 141.595 110.435 140.816 105.727 139.329C105.562 139.282 105.385 139.223 105.196 139.152C103.945 138.727 102.765 138.255 101.656 137.736C101.49 137.665 101.325 137.595 101.16 137.524C100.476 137.17 99.8266 136.804 99.213 136.426C99.2838 134.196 99.3192 131.47 99.2838 128.603C99.2838 128.343 99.2838 128.095 99.2838 127.859C99.2484 123.859 99.1422 119.505 98.9652 115.54C98.9652 115.351 98.9652 115.162 98.9652 114.973C98.859 112.92 98.7528 110.938 98.682 109.168C98.6584 108.979 98.6466 108.802 98.6466 108.637C98.5758 107.15 98.505 105.84 98.4342 104.743C98.4106 104.459 98.387 104.188 98.3634 103.928C98.3398 103.716 98.328 103.504 98.328 103.291C98.2572 102.536 98.1982 101.793 98.151 101.061C98.033 99.8809 97.915 98.7362 97.797 97.627C97.6554 96.3526 97.5138 95.1253 97.3722 93.9453C97.1834 92.6709 96.9946 91.4437 96.8058 90.2636C96.5934 88.9892 96.3809 87.7738 96.1685 86.6173C95.3897 82.4754 94.5047 78.9353 93.6197 75.8909C93.5489 75.6785 93.4899 75.466 93.4427 75.2536C93.0651 74.05 92.6992 72.9172 92.3452 71.8552C92.2744 71.6192 92.2036 71.3949 92.1328 71.1825C90.1504 65.3414 88.5219 61.8013 88.5219 59.4294C88.4511 54.5087 92.062 52.9511 95.8145 50.9686C95.9797 50.8742 96.1567 50.7798 96.3455 50.6854C96.9474 50.3314 97.5846 49.9774 98.2218 49.588C98.4814 49.4228 98.7292 49.2458 98.9652 49.057C99.154 48.939 99.331 48.821 99.4962 48.703C100.983 47.5701 102.257 46.1187 103.107 44.0654L117.303 41.0918C117.303 41.0918 118.648 41.7998 120.949 42.4016C121.162 42.4724 121.374 42.5314 121.586 42.5786C121.87 42.6258 122.153 42.6848 122.436 42.7556C122.625 42.7792 122.814 42.8146 123.002 42.8618C123.144 42.8854 123.286 42.909 123.427 42.9326C124.772 43.145 126.366 43.2866 128.136 43.2512C128.324 43.2512 128.501 43.2394 128.667 43.2158C128.808 43.2158 128.938 43.2158 129.056 43.2158C130.26 43.145 131.416 43.2866 132.525 43.6406C132.738 43.7114 132.95 43.794 133.162 43.8884C137.765 45.7293 141.375 51.2164 143.712 59.6772C144.373 62.0373 145.022 64.3384 145.659 66.5804C145.706 66.8164 145.765 67.0524 145.836 67.2884C145.978 67.784 146.119 68.2797 146.261 68.7753C146.308 68.9405 146.355 69.1175 146.402 69.3063C146.874 71.0291 147.335 72.7402 147.783 74.4394C147.83 74.6282 147.877 74.8052 147.925 74.9704C147.925 74.994 147.925 75.0058 147.925 75.0058C147.972 75.1002 148.007 75.1946 148.031 75.289L148.279 76.2803C149.836 82.3338 151.146 88.1396 151.996 94.0515C152.161 95.2552 152.314 96.4824 152.456 97.7332C152.503 98.0164 152.539 98.3468 152.562 98.7244C152.562 98.7952 152.574 98.866 152.598 98.9368C152.598 99.0549 152.609 99.1846 152.633 99.3262C152.633 99.397 152.633 99.4561 152.633 99.5033C152.881 101.734 153.164 104.849 153.447 108.247C153.471 108.412 153.494 108.589 153.518 108.778C154.155 116.708 154.757 126.16 154.297 130.302Z" fill="#DF615C"/>
<path d="M111.108 52.42C116.772 51.2164 119.852 44.1362 119.993 43.853C120.064 43.6406 119.958 43.3928 119.746 43.322C119.569 43.2158 119.321 43.322 119.215 43.5344C119.215 43.6052 116.099 50.7916 110.612 51.6766C105.267 52.5616 103.107 48.5967 103.036 48.4551C102.93 48.2427 102.682 48.1719 102.47 48.2781C102.293 48.3843 102.222 48.6321 102.293 48.8091C102.328 48.8799 104.806 53.4821 110.754 52.4908C110.872 52.4672 110.99 52.4436 111.108 52.42Z" fill="#A92F4B"/>
<path d="M116.878 127.789C122.188 126.656 127.711 123.93 133.198 119.646C140.738 113.734 145.694 106.902 145.73 106.831C145.871 106.654 145.836 106.406 145.659 106.265C145.482 106.123 145.199 106.159 145.093 106.336C145.022 106.406 140.136 113.168 132.667 119.009C125.834 124.355 115.391 129.983 104.382 126.479C104.169 126.408 103.957 126.514 103.886 126.727C103.815 126.939 103.921 127.187 104.134 127.258C108.205 128.532 112.453 128.709 116.878 127.789Z" fill="#A92F4B"/>
<path d="M113.692 123.717C121.976 121.841 126.436 109.309 126.613 108.778C126.684 108.566 126.578 108.353 126.366 108.283C126.153 108.176 125.941 108.318 125.87 108.53C125.799 108.637 121.374 121.133 113.515 122.939C113.303 122.974 113.161 123.186 113.196 123.399C113.267 123.647 113.48 123.753 113.692 123.717Z" fill="#A92F4B"/>
<path d="M98.3634 103.928C99.39 103.22 100.346 102.335 101.125 101.344C102.966 98.9368 103.213 96.4588 101.833 94.4055C101.549 94.0043 101.29 93.6267 101.054 93.2727C98.1864 89.0954 97.9032 88.6706 98.151 81.8382C98.2218 79.6788 97.62 77.9795 96.3455 76.7759C95.4605 75.9971 94.4339 75.5368 93.4427 75.2536C93.4899 75.466 93.5489 75.6785 93.6197 75.8909C94.4339 76.1387 95.2835 76.5635 95.9561 77.2007C97.1244 78.2627 97.6554 79.8204 97.5846 81.8028C97.3368 88.8122 97.7262 89.3786 100.594 93.5559C100.83 93.9099 101.089 94.2993 101.372 94.7241C103.072 97.2022 101.691 99.7511 100.7 101.025C100.027 101.875 99.213 102.654 98.328 103.291C98.328 103.504 98.3398 103.716 98.3634 103.928Z" fill="#A92F4B"/>
<path d="M152.633 99.5031C151.536 100.176 150.474 100.565 149.447 100.778C146.686 101.379 144.314 100.53 142.792 98.9721C140.951 97.1313 140.243 93.9806 142.402 91.4671C144.526 89.0598 143.606 87.7854 142.473 86.157C141.34 84.5285 139.924 82.5461 141.411 79.0414C142.225 77.0236 143.535 75.6429 145.234 74.9703C146.119 74.6163 146.969 74.4747 147.783 74.4393C147.83 74.6281 147.877 74.8051 147.925 74.9703C147.146 75.0057 146.296 75.1119 145.447 75.4659C143.889 76.1031 142.685 77.3776 141.907 79.2538C140.561 82.4753 141.765 84.1745 142.933 85.8384C144.101 87.5022 145.234 89.0953 142.827 91.8211C141.057 93.839 141.199 96.6356 143.146 98.6181C145.163 100.601 148.668 101.309 152.598 98.9367C152.598 99.0547 152.609 99.1845 152.633 99.3261C152.633 99.3969 152.633 99.4559 152.633 99.5031Z" fill="#A92F4B"/>
<path fill-rule="evenodd" clip-rule="evenodd" d="M118.259 92.2105C121.763 88.812 120.666 86.157 119.356 83.1479C118.117 80.2096 116.736 76.9173 119.073 72.3506C119.12 72.2562 119.167 72.1736 119.215 72.1028C120.135 70.3682 121.976 69.4831 123.887 69.8726C125.799 70.262 127.109 71.7842 127.286 73.7313C127.569 77.0235 129.162 81.0592 131.923 85.4136C133.8 88.3518 134.189 91.5733 132.985 94.724C131.463 98.7951 127.463 102.3 123.958 103.787C123.533 103.975 123.109 104.129 122.684 104.247C119.993 105.026 117.02 103.893 115.674 101.556C114.081 98.8305 115.037 95.3258 118.259 92.2105ZM116.135 101.273C117.374 103.433 120.064 104.459 122.542 103.716C126.118 102.689 130.826 98.9367 132.49 94.5116C133.623 91.5025 133.304 88.5288 131.499 85.6968C130.224 83.7143 129.209 81.8263 128.454 80.0326C127.487 77.767 126.92 75.6783 126.755 73.7667C126.613 72.0674 125.445 70.7576 123.781 70.4036C122.967 70.262 122.224 70.3328 121.516 70.616C120.772 70.97 120.135 71.5364 119.71 72.3506C119.663 72.445 119.616 72.5276 119.569 72.5984C117.338 76.9527 118.613 79.9972 119.852 82.9355C121.162 86.0154 122.401 88.9182 118.613 92.5999C115.604 95.5382 114.683 98.7597 116.135 101.273Z" fill="#A92F4B"/>
<path d="M92.1328 71.1824C92.2036 71.3948 92.2744 71.619 92.3452 71.855C94.2569 72.6338 95.9915 72.5984 97.3722 72.2798C98.0802 72.1382 98.7174 71.9258 99.213 71.7134C102.682 70.2266 105.019 67.0051 104.948 65.058C104.948 64.35 104.559 63.819 103.921 63.5712C100.204 62.226 98.682 59.7479 98.1156 54.1899C97.974 52.6677 97.3722 51.4641 96.3455 50.6853C96.1567 50.7797 95.9797 50.8741 95.8145 50.9685C95.8617 50.9921 95.8971 51.0157 95.9207 51.0393C96.8766 51.7473 97.443 52.8447 97.5846 54.2254C98.1864 60.0665 99.7794 62.6508 103.744 64.1022C104.169 64.2438 104.417 64.5624 104.417 65.0934C104.488 66.8635 102.151 69.8372 99.0006 71.2178C97.5138 71.855 94.9649 72.4922 92.1328 71.1824Z" fill="#A92F4B"/>
<path fill-rule="evenodd" clip-rule="evenodd" d="M111.78 59.9957C112.736 58.1195 114.471 56.9159 116.453 56.7035C118.153 56.5619 119.392 57.1991 120.1 58.5443C120.985 60.3144 119.852 61.3764 118.754 62.3676C117.515 63.5004 116.241 64.7041 116.913 67.1467C117.551 69.5186 116.913 71.501 115.214 72.4569C114.86 72.6457 114.506 72.7755 114.152 72.8463C113.09 73.0587 112.028 72.8109 111.356 72.0674C108.7 69.1646 110.223 63.111 111.78 59.9957ZM111.745 71.7134C112.453 72.4923 113.834 72.5985 114.966 71.9612C116.418 71.147 116.984 69.4124 116.382 67.2883C115.639 64.5271 117.161 63.111 118.4 61.9782C119.498 60.9516 120.312 60.2081 119.604 58.7921C119.038 57.6593 117.976 57.1283 116.524 57.2699C116.335 57.2699 116.146 57.2935 115.958 57.3407C114.4 57.6593 113.019 58.7567 112.276 60.2435C110.754 63.2526 109.267 69.023 111.745 71.7134Z" fill="#A92F4B"/>
<path fill-rule="evenodd" clip-rule="evenodd" d="M103.426 83.9976C103.815 80.9885 106.258 78.5813 109.267 78.2981C111.037 78.1565 112.241 78.7937 112.772 80.1389C113.515 82.0506 112.205 83.4312 110.931 84.741C109.444 86.3341 108.028 87.8209 109.621 90.122C111.037 92.1398 111.32 93.8391 110.435 94.7595C110.152 95.0781 109.762 95.2905 109.267 95.3967C108.205 95.6091 106.753 95.2905 105.267 94.4055C104.275 93.8391 103.674 92.6708 103.39 91.2194C102.93 89.0953 103.107 86.3695 103.426 83.9976ZM105.55 93.9453C107.426 95.0427 109.267 95.2551 110.046 94.4055C110.718 93.6621 110.435 92.2106 109.196 90.4406C107.355 87.7501 109.054 85.9447 110.541 84.387C111.745 83.1126 112.878 81.909 112.276 80.3513C111.816 79.1831 110.86 78.7229 109.302 78.8645C109.066 78.8645 108.842 78.8881 108.63 78.9353C107.426 79.2185 106.329 79.8557 105.514 80.7407C104.665 81.6611 104.134 82.794 103.957 84.0684C103.249 89.414 103.815 92.9186 105.55 93.9453Z" fill="#A92F4B"/>
<path d="M98.9652 115.54C101.16 114.761 101.868 115.858 102.93 117.416C103.886 118.832 105.054 120.567 107.709 121.204C108.594 121.416 109.479 121.416 110.258 121.239C112.418 120.779 114.152 119.186 114.966 117.416C116.099 115.009 115.604 112.601 113.692 111.15C112.842 110.513 112.382 109.946 112.311 109.345C112.205 108.495 112.842 107.645 113.515 106.796C114.471 105.592 115.533 104.211 114.719 102.441C114.081 101.061 112.842 100.247 111.285 100.14C108.7 99.9633 105.798 101.698 103.886 104.601C102.293 107.079 100.204 108.176 98.6466 108.637C98.6466 108.825 98.6584 109.002 98.682 109.168C100.346 108.707 102.612 107.575 104.346 104.884C105.798 102.689 107.815 101.202 109.798 100.778C110.294 100.683 110.777 100.648 111.249 100.671C112.63 100.778 113.657 101.486 114.223 102.689C114.896 104.141 114.011 105.273 113.09 106.442C112.382 107.362 111.639 108.318 111.78 109.415C111.887 110.159 112.382 110.867 113.338 111.61C115.391 113.132 115.285 115.504 114.506 117.204C113.444 119.434 110.789 121.381 107.815 120.673C105.373 120.106 104.311 118.513 103.39 117.133C102.328 115.54 101.408 114.159 98.9652 114.973C98.9652 115.162 98.9652 115.351 98.9652 115.54Z" fill="#A92F4B"/>
<path fill-rule="evenodd" clip-rule="evenodd" d="M126.507 108.955C126.472 108.849 126.295 106.194 127.817 104.636C128.596 103.822 129.693 103.433 131.074 103.539C133.835 103.68 135.039 102.76 136.455 101.663C137.375 100.955 138.402 100.14 139.995 99.6093C142.225 98.8659 143.889 100.247 144.526 101.84C145.199 103.574 144.774 105.981 142.225 107.15C139.924 108.176 138.119 107.929 136.703 107.716C135.216 107.504 134.118 107.362 133.056 108.566C131.994 109.769 130.72 110.548 129.552 110.796C129.021 110.902 128.525 110.902 128.065 110.796C127.251 110.548 126.684 109.911 126.507 108.991C126.507 108.967 126.507 108.955 126.507 108.955ZM128.206 110.265C129.445 110.619 131.286 109.769 132.632 108.212C133.233 107.539 133.8 107.256 134.437 107.114C135.18 106.973 135.924 107.079 136.773 107.185C138.225 107.398 139.853 107.645 142.013 106.654C144.243 105.627 144.597 103.539 144.031 102.017C143.5 100.671 142.048 99.5031 140.172 100.14C138.65 100.636 137.694 101.379 136.773 102.087C135.357 103.185 134.012 104.247 131.038 104.07C129.835 103.999 128.879 104.318 128.206 104.99C126.897 106.335 127.003 108.672 127.038 108.884C127.18 109.628 127.605 110.088 128.206 110.265Z" fill="#A92F4B"/>
<path d="M150.19 122.018C148.349 125.063 149.128 128.496 150.969 130.019C151.854 130.762 152.881 131.045 154.014 130.904C154.084 130.833 154.155 130.774 154.226 130.727C154.25 130.585 154.273 130.443 154.297 130.302C153.199 130.55 152.173 130.337 151.323 129.629C149.659 128.213 148.951 125.098 150.651 122.301C152.385 119.434 151.04 118.549 149.588 117.593C148.243 116.743 146.898 115.858 147.075 113.274C147.181 112.035 147.712 111.008 148.633 110.265C149.411 109.592 150.438 109.238 151.429 109.026C152.137 108.884 152.881 108.814 153.518 108.778C153.494 108.589 153.471 108.412 153.447 108.247C151.925 108.283 149.766 108.601 148.279 109.84C147.252 110.69 146.65 111.823 146.544 113.239C146.332 116.142 147.96 117.204 149.305 118.053C150.721 118.974 151.677 119.611 150.19 122.018Z" fill="#A92F4B"/>
<path d="M105.196 139.152C105.385 139.223 105.562 139.282 105.727 139.329C105.762 138.48 105.939 136.71 107.178 135.506C108.24 134.515 109.763 134.125 111.78 134.338C114.435 134.621 115.639 135.718 116.737 136.71C118.507 138.338 119.746 139.117 124.419 136.072C126.224 134.904 127.852 134.231 129.304 133.948C131.605 133.453 133.41 133.913 134.331 134.869C135.499 136.072 135.428 137.949 134.189 139.966C134.425 139.919 134.673 139.86 134.933 139.789C136.03 137.736 135.959 135.789 134.72 134.515C133.056 132.78 129.056 132.426 124.135 135.612C119.569 138.586 118.648 137.736 117.091 136.32C116.028 135.329 114.683 134.09 111.851 133.807C109.656 133.559 107.957 133.984 106.824 135.117C105.514 136.391 105.231 138.196 105.196 139.152Z" fill="#A92F4B"/>
<path fill-rule="evenodd" clip-rule="evenodd" d="M136.632 127.541C138.189 126.479 137.942 125.983 137.446 124.992C137.021 124.142 136.455 123.009 136.703 121.169C136.844 120.107 137.304 119.292 138.119 118.761C139.959 117.487 142.969 118.23 143.11 118.266C143.11 118.266 143.122 118.266 143.146 118.266C145.871 119.505 146.119 122.372 146.013 125.311C145.871 129.098 144.066 131.683 140.88 132.603C140.785 132.627 140.691 132.639 140.597 132.639C138.508 133.099 136.278 131.895 135.605 130.444C135.074 129.382 135.464 128.32 136.632 127.541ZM136.065 130.231C136.667 131.506 138.827 132.603 140.703 132.072C144.491 131.01 145.376 127.789 145.482 125.311C145.624 121.558 144.88 119.682 142.933 118.761C142.685 118.691 139.995 118.124 138.402 119.222C137.765 119.67 137.375 120.343 137.234 121.239C137.021 122.903 137.517 123.93 137.942 124.744C138.508 125.912 138.791 126.691 136.915 127.966C135.995 128.603 135.676 129.382 136.065 130.231Z" fill="#A92F4B"/>
<path d="M101.16 137.524C101.325 137.595 101.49 137.665 101.656 137.736C102.789 136.426 103.284 134.975 103.036 133.488C102.682 131.01 100.629 128.957 99.2838 127.859C99.2838 128.095 99.2838 128.343 99.2838 128.603C100.558 129.7 102.222 131.506 102.505 133.559C102.718 134.939 102.257 136.249 101.231 137.453C101.207 137.477 101.184 137.5 101.16 137.524Z" fill="#A92F4B"/>
<path d="M90.7522 19.7096C90.7522 19.7096 82.7162 18.0103 82.5038 14.9304C82.3267 12.0984 85.6898 12.3816 85.6898 12.3816C85.6898 12.3816 81.7957 6.00942 84.026 4.73499C86.2563 3.49596 89.0883 7.07145 89.0883 7.07145C89.0883 7.07145 87.0351 -0.504348 89.7609 0.0266658C92.4868 0.557679 92.8408 4.73499 92.8408 4.73499C92.8408 4.73499 101.939 1.51351 107.107 3.07115C110.612 4.13317 111.462 7.49626 111.462 7.49626C111.462 7.49626 113.55 6.25723 115.037 7.03605C116.489 7.77947 115.143 10.3991 115.143 10.3991C115.143 10.3991 117.444 12.1692 116.736 14.9658C116.028 17.7625 114.046 23.2851 114.046 23.2851L90.7522 19.7096Z" fill="#39393B"/>
<path d="M102.08 42.0121L102.859 45.6938C103.355 45.9534 103.851 46.1658 104.346 46.331C111.568 48.8445 117.48 42.6139 117.48 42.6139L114.789 29.7988L103.603 40.5606L102.08 42.0121Z" fill="#EA9B7A"/>
<path d="M102.08 42.0121L102.859 45.6938C103.355 45.9534 103.851 46.1658 104.346 46.331C109.373 43.0034 112.134 36.4542 112.134 36.4542L103.603 40.5607L102.08 42.0121Z" fill="#39393B"/>
<path d="M94.9649 12.0984C94.9649 12.0984 86.2209 14.8242 91.4248 23.462C91.4248 23.462 95.6729 14.5056 94.9649 12.0984Z" fill="#39393B"/>
<path d="M94.0091 26.6127C94.0091 26.6127 91.3894 24.5594 90.7168 27.2853C90.0796 30.0112 92.0266 34.8611 95.0711 33.3388L94.0091 26.6127Z" fill="#D46A43"/>
<path d="M93.6196 35.7816C93.6196 35.7816 95.2127 43.3928 103.142 41.7289C111.037 40.0297 115.108 32.7017 115.32 32.3477L115.073 30.7193L113.763 22.2938L113.09 17.7979C113.09 17.7979 112.382 9.58493 104.488 9.72653C98.682 9.83273 93.655 11.8506 91.6372 15.3199C90.8938 16.5943 90.5398 18.0457 90.7522 19.7096L92.1682 27.7456L92.5222 29.728L93.6196 35.7816Z" fill="#EA9B7A"/>
<path d="M109.798 23.2851C109.798 23.2851 108.63 27.9934 106.045 27.781C103.461 27.5686 100.594 27.8518 98.6112 29.3386C98.6112 29.3386 94.6109 28.7368 92.6992 30.7547C91.4602 32.0645 94.4339 42.0122 99.9564 42.4016C105.479 42.7556 112.134 39.4279 112.807 34.1532C113.444 28.8784 112.453 24.7011 112.453 24.7011L109.798 23.2851Z" fill="#39393B"/>
<path d="M96.9827 31.5688C96.9827 31.5688 101.443 31.1086 103.638 29.8696C103.638 29.8696 104.629 34.2239 100.841 34.6133C97.797 34.8965 96.9827 31.5688 96.9827 31.5688Z" fill="#D7D7D7"/>
<path d="M102.753 26.542C102.859 27.1084 104.098 27.3208 105.514 27.0022C106.93 26.719 107.957 26.011 107.851 25.48C107.745 24.9136 106.506 24.7012 105.09 24.9844C103.674 25.303 102.611 25.9756 102.753 26.542Z" fill="#D46A43"/>
<path d="M92.5222 29.7281C92.7346 29.7045 92.947 29.6691 93.1594 29.6219C94.5755 29.3032 95.6021 28.6306 95.4959 28.0642C95.3897 27.4978 94.1507 27.2854 92.7346 27.604C92.5458 27.6512 92.357 27.6984 92.1682 27.7456L92.5222 29.7281Z" fill="#D46A43"/>
<path d="M102.187 23.4621C102.328 24.2409 102.824 24.7719 103.249 24.6657C103.674 24.5949 103.886 23.8869 103.709 23.1435C103.567 22.3647 103.072 21.8337 102.647 21.9045C102.222 22.0107 102.01 22.6833 102.187 23.4621Z" fill="#39393B"/>
<path d="M94.6109 25.055C94.7879 25.8338 95.2481 26.3648 95.7083 26.2586C96.1331 26.1878 96.3455 25.4798 96.1685 24.7364C96.0269 23.9576 95.5313 23.4266 95.1065 23.4974C94.6817 23.6036 94.4693 24.2762 94.6109 25.055Z" fill="#39393B"/>
<path d="M99.3192 28.0641C99.4962 28.0287 99.6024 27.8871 99.567 27.7101C99.5316 27.5331 99.3546 27.4269 99.1776 27.4623C98.0447 27.7101 97.3721 27.2145 97.1243 26.9667C97.8323 24.1346 98.5404 21.2672 98.5404 21.2318C98.5758 21.0548 98.4696 20.8778 98.2925 20.8424C98.1155 20.807 97.9739 20.9132 97.9031 21.0902C97.9031 21.1256 97.1951 24.0992 96.4517 27.0021C96.4517 27.0729 96.4517 27.1791 96.5225 27.2499C96.5579 27.3207 97.4429 28.489 99.3192 28.0641Z" fill="#39393B"/>
<path d="M105.267 19.1431C104.913 18.3997 103.921 17.019 101.337 17.4438C101.018 17.4792 100.771 17.7625 100.735 18.0811C100.735 18.4705 101.054 18.8245 101.443 18.8245C102.151 18.7891 103.249 18.9661 104.028 19.9573C104.275 20.2759 104.771 20.2759 105.054 19.9927L105.125 19.9573C105.337 19.7449 105.373 19.4263 105.267 19.1431Z" fill="#39393B"/>
<path d="M92.062 21.9398C92.062 21.0902 92.416 19.4263 94.9649 18.7891C95.2835 18.7183 95.6021 18.8599 95.7437 19.1431C95.9207 19.4971 95.7791 19.9574 95.3897 20.099C94.7525 20.3468 93.832 20.9486 93.5134 22.1876C93.4072 22.577 92.9824 22.754 92.593 22.6124H92.5222C92.239 22.5062 92.062 22.223 92.062 21.9398Z" fill="#39393B"/>
<path d="M112.17 29.7988C112.241 29.8696 113.727 31.9936 115.32 32.3476L115.073 30.7192C115.073 30.7192 113.798 30.79 112.17 29.7988Z" fill="#39393B"/>
<path d="M112.453 24.2055C112.453 24.2055 114.648 19.4618 117.586 22.1877C119.958 24.4533 117.94 32.0999 113.798 30.5069L112.453 24.2055Z" fill="#EA9B7A"/>
<path d="M113.975 29.197C114.117 29.1616 114.223 29.02 114.223 28.843C113.904 25.6569 116.276 24.0285 116.382 23.9577C116.524 23.8869 116.559 23.6745 116.453 23.5329C116.347 23.3912 116.17 23.3558 116.028 23.4266C115.887 23.5328 113.232 25.3383 113.586 28.9138C113.586 29.0908 113.763 29.197 113.94 29.197C113.94 29.197 113.952 29.197 113.975 29.197Z" fill="#39393B"/>
<path d="M116.489 26.6836C116.595 26.6482 116.666 26.5774 116.701 26.5066C116.772 26.3296 116.736 26.1526 116.559 26.0818C116.418 26.011 115.108 25.3383 114.223 25.7986C114.046 25.8694 113.975 26.0464 114.081 26.2234C114.152 26.365 114.329 26.4358 114.506 26.365C115.002 26.1172 115.993 26.4712 116.276 26.6482C116.347 26.6718 116.418 26.6836 116.489 26.6836Z" fill="#39393B"/>
<path d="M91.6372 15.3199C91.7552 15.5795 91.9204 15.7801 92.1328 15.9217C94.0091 17.1961 97.5492 15.8509 100.7 14.1162C103.851 12.3462 106.753 14.2933 106.753 14.2933C106.47 17.7271 109.727 17.3377 109.55 19.922C109.408 22.5063 110.329 25.6923 110.329 25.6923L112.276 25.0197C112.453 23.7807 113.232 22.8249 113.763 22.2939L113.09 17.7979C113.09 17.7979 112.382 9.58493 104.452 9.72654C98.682 9.83274 93.6551 11.8506 91.6372 15.3199Z" fill="#39393B"/>
<path d="M150.792 123.611C150.792 123.611 158.332 153.419 119.144 153.419C98.2218 153.419 88.2387 151.401 88.2387 151.401C88.2387 151.401 87.7431 169.88 86.7873 177.704C85.796 185.492 82.3622 204.927 82.3622 204.927L65.8653 206.202C65.8653 206.202 63.2103 138.515 73.3349 132.285C83.4242 126.054 97.974 125.877 122.932 123.47C122.932 123.47 145.34 119.682 150.792 123.611Z" fill="#39393B"/>
<path d="M80.0965 199.511C80.0729 199.511 80.0375 199.511 79.9903 199.511C79.7425 199.44 79.6009 199.192 79.6717 198.98C81.9373 189.457 82.8578 175.792 83.5658 164.853C84.2738 154.056 84.6986 148.356 85.8314 147.365C87.0705 146.268 90.7522 146.657 96.8411 147.294C104.382 148.109 115.745 149.312 128.029 147.896C134.154 147.224 138.827 144.816 141.942 140.816C147.535 133.63 146.261 123.505 146.225 123.399C146.19 123.151 146.367 122.939 146.615 122.903C146.863 122.868 147.11 123.045 147.146 123.293C147.181 123.717 148.491 133.842 142.65 141.347C139.358 145.56 134.508 148.073 128.136 148.817C115.745 150.233 104.311 148.994 96.7349 148.215C91.4956 147.648 87.3891 147.188 86.4332 148.038C86.2208 148.215 85.796 149.135 85.3712 153.242C85.0526 156.286 84.7694 160.287 84.4508 164.889C83.7428 175.898 82.8224 189.563 80.5213 199.157C80.4859 199.369 80.3089 199.511 80.0965 199.511Z" fill="#585859"/>
<path d="M66.0424 200.856C65.7946 200.856 65.6176 200.679 65.5822 200.431C65.5822 200.183 65.7592 199.971 66.007 199.971L82.8932 198.944C83.141 198.944 83.3534 199.121 83.3534 199.369C83.3534 199.617 83.1764 199.829 82.9286 199.829L66.0778 200.856C66.0542 200.856 66.0424 200.856 66.0424 200.856Z" fill="#585859"/>
<path d="M111.391 132.143H62.0066C61.9004 132.143 61.7942 132.037 61.7942 131.931V125.842C61.7942 125.735 61.9004 125.629 62.0066 125.629H111.391C111.532 125.629 111.603 125.735 111.603 125.842V131.931C111.603 132.037 111.532 132.143 111.391 132.143Z" fill="#CED3E6"/>
<path d="M56.5903 132.143C54.7495 132.143 53.0856 130.868 52.6254 129.063L43.2796 94.1931C42.7131 92.0337 44.3416 89.945 46.5364 89.945H68.839C70.3258 89.945 71.6711 90.9716 72.0605 92.4231L83.2118 132.143H56.5903Z" fill="#D7D7D7"/>
<path d="M72.0604 92.4231L83.1409 131.789H85.6898L74.6093 92.4231C74.2199 90.9717 72.8747 89.945 71.3878 89.945H68.839C70.3258 89.945 71.671 90.9717 72.0604 92.4231Z" fill="#CED3E6"/>
<path d="M65.7591 111.61C66.2901 113.805 64.9095 115.575 62.7146 115.575C60.5197 115.575 58.3603 113.805 57.8293 111.61C57.3337 109.416 58.7143 107.645 60.8738 107.645C63.0686 107.645 65.2635 109.416 65.7591 111.61Z" fill="#CED3E6"/>
<path d="M96.2039 117.912C96.2039 117.912 86.0793 118.62 82.8578 121.7L84.8049 128.709C84.8049 128.709 90.8584 126.231 92.5223 126.479C94.2215 126.727 95.2127 129.452 100.806 127.789L96.2039 117.912Z" fill="#EA9B7A"/>
<path d="M96.2393 117.451L97.3721 116.991L98.5758 116.496C99.3546 116.165 100.145 115.823 100.948 115.469C102.529 114.761 104.086 114.041 105.621 113.309C108.736 111.787 111.78 110.23 114.754 108.53C117.692 106.867 120.524 105.061 123.109 103.149C123.769 102.677 124.407 102.194 125.02 101.698C125.61 101.202 126.188 100.707 126.755 100.211C127.888 99.1845 128.914 98.1579 129.693 97.1667C130.083 96.6711 130.437 96.1754 130.72 95.7152C130.956 95.314 131.168 94.8656 131.357 94.37C131.746 93.3788 132.065 92.1751 132.277 90.9007C132.702 88.281 132.738 85.272 132.454 82.1921C132.171 79.1122 131.64 75.9261 130.932 72.74C130.555 71.1588 130.142 69.5894 129.693 68.0317C129.481 67.2293 129.245 66.4505 128.985 65.6953C128.867 65.294 128.749 64.9164 128.631 64.5624L128.454 63.996L128.348 63.7482L128.313 63.6066L128.277 63.5712V63.5358C126.153 59.1107 128.029 53.7652 132.454 51.6411C136.915 49.517 142.26 51.3933 144.385 55.8184C144.597 56.2432 144.762 56.6798 144.88 57.1282L145.163 58.0841L145.234 58.2965L145.305 58.5089L145.411 58.8983L145.588 59.6417C145.706 60.1137 145.824 60.5857 145.942 61.0577C146.155 62.0254 146.367 62.9812 146.579 63.9252C146.957 65.8369 147.299 67.7485 147.606 69.6602C148.172 73.5189 148.562 77.4484 148.597 81.4841C148.633 83.5019 148.562 85.5552 148.385 87.6792C148.172 89.7679 147.854 91.9273 147.323 94.1222C146.792 96.2816 146.048 98.5473 144.916 100.778C144.349 101.91 143.677 103.008 142.933 104.07C142.154 105.096 141.411 106.017 140.632 106.831C139.039 108.53 137.411 109.911 135.782 111.15C134.154 112.424 132.49 113.557 130.826 114.584C127.498 116.673 124.135 118.443 120.737 120.071C117.338 121.664 113.94 123.151 110.506 124.496C108.783 125.157 107.048 125.806 105.302 126.443C104.429 126.75 103.555 127.045 102.682 127.328L101.372 127.788L99.9918 128.249C96.9827 129.204 93.7612 127.541 92.8054 124.567C91.885 121.699 93.3364 118.655 96.0623 117.522L96.2393 117.451Z" fill="#EA9B7A"/>
<path d="M137.623 98.2642C137.576 98.2642 137.54 98.2524 137.517 98.2288C134.047 97.2022 130.224 97.3792 130.153 97.3792C129.976 97.3792 129.799 97.2376 129.799 97.0252C129.799 96.8482 129.941 96.6712 130.153 96.6712C130.295 96.6712 134.154 96.4942 137.694 97.5562C137.906 97.627 138.012 97.804 137.942 98.0164C137.906 98.158 137.765 98.2642 137.623 98.2642Z" fill="#D46A43"/>
<path d="M131.038 97.3791C130.932 97.3791 130.826 97.3083 130.755 97.2375C130.649 97.0959 130.649 96.8835 130.826 96.7419C132.1 95.6445 133.729 95.1489 133.764 95.1135C133.977 95.0781 134.154 95.1842 134.224 95.3612C134.26 95.5383 134.154 95.7507 133.977 95.7861C133.977 95.8215 132.454 96.2817 131.286 97.2729C131.215 97.3437 131.133 97.3791 131.038 97.3791Z" fill="#D46A43"/>
<path d="M150.226 75.7138L142.898 77.7317L142.331 77.8733L137.269 79.2539L136.667 79.4309L130.153 81.201L129.658 78.8999L129.552 78.3689L128.348 72.9172L128.242 72.3862L126.011 62.1553C125.41 59.7834 125.02 56.8452 125.374 54.4025C125.834 50.827 128.985 46.1895 134.755 45.9063C135.817 45.8355 136.773 45.9771 137.694 46.3311C137.871 46.3665 138.048 46.4727 138.225 46.5435C139.959 47.3223 141.482 48.7737 142.791 50.65C142.886 50.8152 142.98 50.9686 143.075 51.1102C145.553 54.8981 147.252 60.1374 148.385 65.0936C148.432 65.2824 148.479 65.4712 148.526 65.66C149.057 67.9964 149.447 70.2621 149.73 72.2091C149.777 72.516 149.824 72.811 149.872 73.0942C150.013 74.0854 150.131 74.9586 150.226 75.7138Z" fill="#DF615C"/>
<path d="M149.73 72.2091C148.88 71.4303 147.712 70.8639 145.871 71.1825C143.747 71.5719 142.048 70.8639 141.375 69.3417C140.844 68.1734 141.092 66.7928 141.906 66.1556C143.57 64.8811 146.119 64.9873 148.526 65.66C148.479 65.4712 148.432 65.2824 148.385 65.0936C145.907 64.4563 143.323 64.4209 141.588 65.7308C140.809 66.3326 140.455 67.3946 140.561 68.4566C140.608 68.8342 140.703 69.2001 140.844 69.5541C141.659 71.3241 143.57 72.1383 145.978 71.7135C147.925 71.3595 149.022 72.1383 149.872 73.0942C149.824 72.8109 149.777 72.5159 149.73 72.2091Z" fill="#A92F4B"/>
<path d="M142.083 56.1725C140.597 54.0131 141.729 52.5616 143.075 51.1102C142.98 50.9686 142.886 50.8152 142.791 50.65C141.34 52.1722 139.889 53.9423 141.659 56.4911C142.862 58.2612 143.181 59.7126 142.473 60.456C141.729 61.3057 139.853 61.0933 137.977 59.9958C136.242 58.9692 135.711 55.4645 136.384 50.1544C136.561 48.8445 137.127 47.7117 137.942 46.7913C138.036 46.7205 138.13 46.6379 138.225 46.5435C138.048 46.4727 137.871 46.3665 137.694 46.3311C136.703 47.3223 136.065 48.6321 135.853 50.0482C135.57 52.42 135.393 55.1459 135.853 57.2699C136.136 58.7214 136.703 59.8896 137.694 60.456C139.181 61.3411 140.667 61.6597 141.729 61.4473C142.19 61.341 142.579 61.1286 142.898 60.8454C143.747 59.8896 143.464 58.1904 142.083 56.1725Z" fill="#A92F4B"/>
<path d="M128.383 72.4569C127.18 65.3059 125.657 58.6151 125.622 58.5443C125.587 58.3673 125.445 58.2965 125.303 58.3319C125.162 58.3673 125.091 58.5089 125.126 58.6505C125.126 58.7213 126.649 65.3767 127.852 72.4923C127.923 72.7755 128.383 72.8109 128.383 72.4569Z" fill="#A92F4B"/>
<path d="M126.436 63.8191C126.389 63.8191 126.342 63.8073 126.295 63.7837L123.533 62.0137C123.392 61.9429 123.356 61.7659 123.463 61.6243C123.533 61.5181 123.71 61.4827 123.817 61.5535L126.578 63.3235C126.719 63.3943 126.755 63.5713 126.649 63.7129C126.613 63.7837 126.507 63.8191 126.436 63.8191Z" fill="#A92F4B"/>
<path d="M108.523 64.5979C107.603 64.5979 106.753 64.2557 105.975 63.5712C101.62 59.7125 101.62 45.7646 101.656 45.1628C101.656 44.8796 101.868 44.6672 102.151 44.6672C102.434 44.6672 102.647 44.8796 102.647 45.1628C102.647 45.3044 102.647 59.2523 106.647 62.8278C107.355 63.4297 108.099 63.6421 108.948 63.5359C114.294 62.8278 116.772 47.1806 117.232 41.2333C117.267 40.9501 117.515 40.7377 117.798 40.7731C118.082 40.7731 118.294 41.0209 118.259 41.3041C118.259 41.3749 117.798 46.862 116.489 52.42C114.683 60.0666 112.17 64.1377 109.054 64.5625C108.889 64.5861 108.712 64.5979 108.523 64.5979Z" fill="#D7D7D7"/>
<path d="M149.128 195.121H96.1685C94.9295 195.121 93.9383 194.13 93.9383 192.891C93.9383 191.652 94.9295 190.661 96.1685 190.661H149.128C150.367 190.661 151.359 191.652 151.359 192.891C151.359 194.13 150.367 195.121 149.128 195.121Z" fill="#0C0ABD"/>
<path d="M91.3186 229.389C91.2242 229.389 91.118 229.377 91 229.354C89.7964 229.177 88.9113 228.079 89.0883 226.84L98.7174 154.835C98.8944 153.702 99.8148 152.888 100.948 152.888H144.137C145.27 152.888 146.225 153.702 146.367 154.835L155.854 226.84C156.031 228.079 155.146 229.212 153.943 229.354C152.704 229.531 151.571 228.646 151.429 227.442L142.19 157.384H102.93L93.5489 227.442C93.3719 228.575 92.416 229.389 91.3186 229.389Z" fill="#0C0ABD"/>
<path d="M113.48 155.118H141.517C150.403 155.118 159.926 150.268 161.271 141.489C163.112 129.736 163.572 118.372 163.041 107.929C162.474 96.1401 157.908 85.1658 148.597 77.8378C148.597 77.8378 152.633 123.363 149.022 135.966C144.172 152.746 113.48 155.118 113.48 155.118Z" fill="#0C0ABD"/>
<path d="M27.597 61.3764V74.8287C27.597 76.6342 29.0484 78.0502 30.8185 78.0502H55.2805L62.6793 80.7053C63.4227 80.9885 64.1661 80.2451 63.8475 79.5017L61.0862 72.2799V61.3764C61.0862 59.6064 59.6348 58.1549 57.8293 58.1549H30.8185C29.0484 58.1549 27.597 59.6064 27.597 61.3764Z" fill="#0C0ABD"/>
<path d="M48.8375 68.492C48.8375 69.7665 49.8995 70.8285 51.1739 70.8285C52.4838 70.8285 53.5104 69.7665 53.5104 68.492C53.5104 67.2176 52.4838 66.1556 51.1739 66.1556C49.8995 66.1556 48.8375 67.2176 48.8375 68.492Z" fill="#0C0ABD"/>
<path d="M41.4741 68.492C41.4741 69.7665 42.5007 70.8285 43.8106 70.8285C45.085 70.8285 46.147 69.7665 46.147 68.492C46.147 67.2176 45.085 66.1556 43.8106 66.1556C42.5007 66.1556 41.4741 67.2176 41.4741 68.492Z" fill="#0C0ABD"/>
<path d="M34.0753 68.492C34.0753 69.7664 35.1373 70.8285 36.4118 70.8285C37.7216 70.8285 38.7482 69.7664 38.7482 68.492C38.7482 67.2176 37.7216 66.1556 36.4118 66.1556C35.1373 66.1556 34.0753 67.2176 34.0753 68.492Z" fill="#0C0ABD"/>
</svg>
