<svg width="331" height="259" viewBox="0 0 331 259" fill="none" xmlns="http://www.w3.org/2000/svg">
<path d="M290.466 239.522C290.466 243.655 225.454 247.003 145.233 247.003C65.0119 247.003 0 243.655 0 239.522C0 235.348 65.0119 232 145.233 232C225.454 232 290.466 235.348 290.466 239.522Z" fill="#CED3E6"/>
<path d="M207.969 258.843H138.122V214H207.969V258.843Z" fill="white"/>
<path d="M138 246.763L207.847 241.183L207.889 233H138.083L138 246.763Z" fill="#CED3E6"/>
<path d="M331 36.7206V212.579C331 217.745 326.784 221.92 321.659 221.92H23.3405C18.1743 221.92 14 217.745 14 212.579V36.7206C14 31.5543 18.1743 27.38 23.3405 27.38H321.659C326.784 27.38 331 31.5543 331 36.7206Z" fill="#CED3E6"/>
<path d="M331 36.7206V199.602H302.11V27.38H321.659C326.784 27.38 331 31.5544 331 36.7206Z" fill="#585859"/>
<path d="M319.097 36.7206V212.579C319.097 217.745 314.923 221.92 309.798 221.92H23.3405C18.1743 221.92 14 217.745 14 212.579V36.7206C14 31.5543 18.1743 27.38 23.3405 27.38H309.798C309.936 27.38 310.073 27.38 310.211 27.38C310.294 27.38 310.39 27.38 310.5 27.38C310.583 27.4076 310.652 27.4214 310.707 27.4214C310.845 27.4214 310.969 27.4351 311.079 27.4627C311.162 27.4627 311.244 27.4765 311.327 27.504C311.355 27.504 311.396 27.504 311.451 27.504C311.506 27.5316 311.575 27.5453 311.658 27.5453C315.915 28.4133 319.097 32.2156 319.097 36.7206Z" fill="white"/>
<path fill-rule="evenodd" clip-rule="evenodd" d="M319.097 36.7206V199.602H14V36.7206C14 31.5543 18.1743 27.38 23.3405 27.38H309.798C309.936 27.38 310.073 27.38 310.211 27.38C310.294 27.38 310.39 27.38 310.5 27.38C310.583 27.4076 310.652 27.4214 310.707 27.4214C310.845 27.4214 310.969 27.4351 311.079 27.4627C311.162 27.4627 311.244 27.4765 311.327 27.504C311.355 27.504 311.396 27.504 311.451 27.504C311.506 27.5316 311.575 27.5453 311.658 27.5453C315.915 28.4133 319.097 32.2156 319.097 36.7206ZM307.029 42.0108C307.029 40.6056 305.871 39.4897 304.466 39.4897H28.6721C27.2669 39.4897 26.1096 40.6056 26.1096 42.0108V183.318C26.1096 184.723 27.2669 185.839 28.6721 185.839H304.466C305.871 185.839 307.029 184.723 307.029 183.318V42.0108Z" fill="#39393B"/>
<path d="M307.029 42.0108V183.318C307.029 184.723 305.871 185.839 304.466 185.839H28.6721C27.2669 185.839 26.1096 184.723 26.1096 183.318V42.0108C26.1096 40.6055 27.2669 39.4896 28.6721 39.4896H304.466C305.871 39.4896 307.029 40.6055 307.029 42.0108Z" fill="#CED3E6"/>
<path d="M307.029 42.0108V55.3603H26.1096V42.0108C26.1096 40.6055 27.2669 39.4896 28.6721 39.4896H304.466C305.871 39.4896 307.029 40.6055 307.029 42.0108Z" fill="white"/>
<path d="M285.248 47.177C285.248 48.3756 284.297 49.3675 283.099 49.3675C281.9 49.3675 280.95 48.3756 280.95 47.177C280.95 46.0198 281.9 45.0279 283.099 45.0279C284.297 45.0279 285.248 46.0198 285.248 47.177Z" fill="#DF615C"/>
<path d="M292.233 47.1771C292.233 48.3756 291.282 49.3676 290.083 49.3676C288.885 49.3676 287.934 48.3756 287.934 47.1771C287.934 46.0198 288.885 45.0279 290.083 45.0279C291.282 45.0279 292.233 46.0198 292.233 47.1771Z" fill="#5392F3"/>
<path d="M272.105 49.4915H52.6434C51.5688 49.4915 50.6595 48.5823 50.6595 47.4664V46.9291C50.6595 45.8132 51.5688 44.9039 52.6434 44.9039H272.105C273.221 44.9039 274.089 45.8132 274.089 46.9291V47.4664C274.089 48.5823 273.221 49.4915 272.105 49.4915Z" fill="#D2DCEC"/>
<path d="M36.2768 47.177V49.3262C36.2768 49.6155 35.9462 49.7808 35.6569 49.6568L33.8384 48.5822L32.0198 47.549C31.7719 47.3836 31.7719 47.0117 32.0198 46.8464L33.8384 45.8131L35.6569 44.7385C35.9462 44.6146 36.2768 44.7799 36.2768 45.0692V47.177Z" fill="black"/>
<path d="M39.4592 47.177V49.3262C39.4592 49.6155 39.7899 49.7808 40.0379 49.6568L41.8977 48.5822L43.7162 47.549C43.9642 47.3836 43.9642 47.0117 43.7162 46.8464L41.8977 45.8131L40.0379 44.7385C39.7899 44.6146 39.4592 44.7799 39.4592 45.0692V47.177Z" fill="black"/>
<path d="M295.167 48.9956L295.043 48.9129C294.836 48.7063 294.836 48.3343 295.043 48.1277L297.936 45.2346C298.184 45.0279 298.515 45.0279 298.721 45.2346L298.804 45.3172C299.011 45.5652 299.011 45.8958 298.804 46.1025L295.911 48.9956C295.704 49.2022 295.374 49.2022 295.167 48.9956Z" fill="#39393B"/>
<path d="M298.721 48.9956L298.804 48.9129C299.011 48.7063 299.011 48.3343 298.804 48.1277L295.911 45.2346C295.704 45.0279 295.374 45.0279 295.167 45.2346L295.043 45.3172C294.836 45.5652 294.836 45.8958 295.043 46.1025L297.936 48.9956C298.184 49.2022 298.515 49.2022 298.721 48.9956Z" fill="#39393B"/>
<path d="M269.212 180.177H63.1825C60.2481 180.177 57.851 177.779 57.851 174.845V63.8744C57.851 60.94 60.2481 58.5842 63.1825 58.5842H269.212C272.146 58.5842 274.502 60.94 274.502 63.8744V174.845C274.502 177.779 272.146 180.177 269.212 180.177Z" fill="white"/>
<path d="M120.59 120.786H73.0603C72.3577 120.786 71.7378 120.207 71.7378 119.463C71.7378 118.719 72.3577 118.141 73.0603 118.141H120.59C121.292 118.141 121.912 118.719 121.912 119.463C121.912 120.207 121.292 120.786 120.59 120.786Z" fill="#CED3E6"/>
<path d="M120.59 109.627H73.0603C72.3577 109.627 71.7378 109.048 71.7378 108.304C71.7378 107.56 72.3577 106.981 73.0603 106.981H120.59C121.292 106.981 121.912 107.56 121.912 108.304C121.912 109.048 121.292 109.627 120.59 109.627Z" fill="#CED3E6"/>
<path d="M120.59 131.945H73.0603C72.3577 131.945 71.7378 131.366 71.7378 130.622C71.7378 129.92 72.3577 129.3 73.0603 129.3H120.59C121.292 129.3 121.912 129.92 121.912 130.622C121.912 131.366 121.292 131.945 120.59 131.945Z" fill="#CED3E6"/>
<path d="M266.525 120.786H219.037C218.293 120.786 217.715 120.207 217.715 119.463C217.715 118.719 218.293 118.141 219.037 118.141H266.525C267.269 118.141 267.848 118.719 267.848 119.463C267.848 120.207 267.269 120.786 266.525 120.786Z" fill="#CED3E6"/>
<path d="M266.525 109.627H219.037C218.293 109.627 217.715 109.048 217.715 108.304C217.715 107.56 218.293 106.981 219.037 106.981H266.525C267.269 106.981 267.848 107.56 267.848 108.304C267.848 109.048 267.269 109.627 266.525 109.627Z" fill="#CED3E6"/>
<path d="M266.525 131.945H219.037C218.293 131.945 217.715 131.366 217.715 130.622C217.715 129.92 218.293 129.3 219.037 129.3H266.525C267.269 129.3 267.848 129.92 267.848 130.622C267.848 131.366 267.269 131.945 266.525 131.945Z" fill="#CED3E6"/>
<path d="M57.851 161.289H274.502V179.061C274.502 179.681 274.006 180.177 273.386 180.177H59.0082C58.3882 180.177 57.851 179.681 57.851 179.061V161.289Z" fill="#39393B"/>
<path d="M253.217 168.274V166.703H255.242V165.257H252.515C252.143 165.257 251.812 165.587 251.812 165.959V168.274H253.217Z" fill="white"/>
<path d="M253.217 171.125H251.812V173.564C251.812 173.977 252.143 174.266 252.515 174.266H255.242V172.861H253.217V171.125Z" fill="white"/>
<path d="M259.417 168.274H260.822V165.959C260.822 165.587 260.491 165.257 260.119 165.257H257.516V166.703H259.417V168.274Z" fill="white"/>
<path d="M259.417 171.125V172.861H257.516V174.266H260.119C260.491 174.266 260.822 173.977 260.822 173.564V171.125H259.417Z" fill="white"/>
<path d="M70.4979 170.092V165.587L74.3829 167.819L78.2679 170.092L74.3829 172.324L70.4979 174.597V170.092Z" fill="white"/>
<path d="M92.0722 174.225H91.0803C90.667 174.225 90.3777 173.894 90.3777 173.522V166.744C90.3777 166.331 90.667 166.042 91.0803 166.042H92.0722C92.4855 166.042 92.7748 166.331 92.7748 166.744V173.522C92.7748 173.894 92.4855 174.225 92.0722 174.225Z" fill="white"/>
<path d="M97.1558 174.225H96.1225C95.7092 174.225 95.4199 173.894 95.4199 173.522V166.744C95.4199 166.331 95.7092 166.042 96.1225 166.042H97.1558C97.5277 166.042 97.817 166.331 97.817 166.744V173.522C97.817 173.894 97.5277 174.225 97.1558 174.225Z" fill="white"/>
<path d="M274.502 161.289H57.851V157.735H274.502V161.289Z" fill="#CED3E6"/>
<path d="M169.028 157.735V161.289H57.851V157.735H169.028Z" fill="#DF615C"/>
<path d="M239.868 143.93H242.306V149.262H245.571V151.163H239.868V143.93Z" fill="#39393B"/>
<path d="M246.274 143.93H248.712V151.163H246.274V143.93Z" fill="#39393B"/>
<path d="M257.64 143.93L254.581 151.163H252.143L249.084 143.93H251.729L253.465 148.146L255.243 143.93H257.64Z" fill="#39393B"/>
<path d="M263.88 149.344V151.163H257.846V143.93H263.756V145.749H260.285V146.617H263.343V148.353H260.285V149.344H263.88Z" fill="#39393B"/>
<path d="M235.859 147.485C235.859 149.138 234.495 150.46 232.883 150.46C231.23 150.46 229.866 149.138 229.866 147.485C229.866 145.831 231.23 144.509 232.883 144.509C234.495 144.509 235.859 145.831 235.859 147.485Z" fill="#DF615C"/>
<path fill-rule="evenodd" clip-rule="evenodd" d="M84.3435 149.51C84.3435 151.163 82.773 152.238 80.4998 152.238C78.268 152.238 76.6975 151.163 76.6975 149.51C76.6975 148.642 77.1108 147.981 77.8134 147.526C77.3174 147.113 76.9868 146.575 76.9868 145.873C76.9868 144.302 78.4333 143.31 80.4998 143.31C82.5663 143.31 84.0129 144.302 84.0129 145.873C84.0129 146.575 83.7236 147.113 83.1863 147.526C83.8889 147.981 84.3435 148.642 84.3435 149.51ZM81.4504 149.386C81.4504 148.849 81.0371 148.518 80.4998 148.518C79.9625 148.518 79.5906 148.849 79.5906 149.386C79.5906 149.964 79.9625 150.295 80.4998 150.295C81.0371 150.295 81.4504 149.964 81.4504 149.386ZM79.8386 145.997C79.8386 146.451 80.1279 146.699 80.4998 146.699C80.9131 146.699 81.2024 146.451 81.2024 145.997C81.2024 145.542 80.9131 145.253 80.4998 145.253C80.1279 145.253 79.8386 145.542 79.8386 145.997Z" fill="#39393B"/>
<path fill-rule="evenodd" clip-rule="evenodd" d="M84.8809 147.774C84.8809 144.963 86.4514 143.31 88.7245 143.31C90.9563 143.31 92.5682 144.963 92.5682 147.774C92.5682 150.584 90.9563 152.238 88.7245 152.238C86.4514 152.238 84.8809 150.584 84.8809 147.774ZM89.6751 147.774C89.6751 146.121 89.2618 145.625 88.7245 145.625C88.1459 145.625 87.7326 146.121 87.7326 147.774C87.7326 149.427 88.1459 149.923 88.7245 149.923C89.2618 149.923 89.6751 149.427 89.6751 147.774Z" fill="#39393B"/>
<path d="M71.6965 145.377C71.6965 146.823 70.5393 147.981 69.0928 147.981C67.6462 147.981 66.4476 146.823 66.4476 145.377C66.4476 143.93 67.6462 142.773 69.0928 142.773C70.5393 142.773 71.6965 143.93 71.6965 145.377Z" fill="#DF615C"/>
<path d="M73.9696 151.99H64.1744C64.1744 151.99 65.2903 148.89 69.01 148.89C69.0376 148.89 69.0651 148.89 69.0927 148.89C69.0927 148.89 69.1065 148.89 69.134 148.89C72.8537 148.89 73.9696 151.99 73.9696 151.99Z" fill="#DF615C"/>
<path d="M99.1395 86.2751C99.1395 86.2751 97.8582 94.2517 91.9481 95.6983C87.2365 96.8555 82.7315 92.2679 81.2023 90.4907C80.8303 90.0361 80.6237 89.7881 80.6237 89.7881C80.6237 89.7881 80.2517 89.8294 79.7557 89.8294C78.5159 89.7881 76.2841 89.5401 75.4575 88.0109C74.2176 85.8618 78.6812 84.3739 78.6812 84.3739C78.6812 84.3739 76.408 82.3074 76.9453 80.8195C77.5239 79.373 80.5823 79.0423 80.5823 79.0423C80.5823 79.0423 77.276 76.8932 78.3919 75.0333C80.0864 72.2229 83.4754 75.3226 83.7648 75.488C83.5581 75.24 79.2598 70.8177 81.6156 69.9911C83.6408 69.3298 87.0298 71.603 89.2203 73.9174C89.5923 74.2481 89.7989 74.4547 89.7989 74.4547C89.7989 74.4547 89.9229 74.372 90.1709 74.2067C91.2455 73.4628 94.6758 71.479 96.825 73.2975C99.4701 75.488 99.1395 86.2751 99.1395 86.2751Z" fill="#EA9B7A"/>
<path d="M93.0226 91.1933C92.8573 91.2347 92.6919 91.2347 92.5679 91.152C92.3613 90.9867 92.2786 90.6974 92.4439 90.4907C93.1879 89.3335 93.4359 88.1763 93.1466 86.9777C92.3613 84.002 88.3523 81.9355 88.311 81.9355C88.1043 81.8115 88.0216 81.5222 88.1043 81.2742C88.2283 81.0675 88.5176 80.9849 88.7656 81.0675C88.9309 81.1915 93.1466 83.382 94.0558 86.7711C94.4278 88.2176 94.1385 89.6228 93.1879 91.028C93.1603 91.0831 93.1052 91.1382 93.0226 91.1933Z" fill="#D96C63"/>
<path d="M88.931 79.6622C88.931 80.1995 88.7243 80.6541 88.2697 80.9434C88.187 80.9985 88.0906 81.0399 87.9804 81.0674C87.7324 81.1776 87.4569 81.2465 87.1538 81.2741C87.3742 81.4394 87.5671 81.6047 87.7324 81.77C87.8977 81.9353 88.0217 82.1144 88.1044 82.3073C88.187 82.5966 88.2284 83.0099 87.8977 83.5059C87.1538 84.4978 85.4179 84.9111 84.0127 85.0764C85.0046 85.655 85.8726 86.4403 86.1619 87.2669C86.3685 87.8042 86.2859 88.3001 85.9966 88.6721C85.7899 88.9614 85.4179 89.2094 84.9633 89.416C83.8887 89.9533 82.2769 90.284 81.2023 90.4906C80.8303 90.036 80.6237 89.788 80.6237 89.788C80.6237 89.788 80.2517 89.8293 79.7557 89.8293C79.8108 89.7742 79.8797 89.7329 79.9624 89.7053C81.6982 89.4987 84.674 88.9201 85.2526 88.1348C85.3353 88.0108 85.4179 87.8868 85.2939 87.5975C84.9633 86.6883 83.3101 85.4897 81.8636 85.1591C81.6156 85.0764 81.4503 84.8698 81.4916 84.6218C81.5329 84.4151 81.7396 84.2085 81.9462 84.2498C83.1035 84.2498 86.2859 84.0432 87.1538 82.9273C87.2778 82.7619 87.2364 82.6793 87.1951 82.638C87.1538 82.4313 86.8645 82.1833 86.4925 81.9767C85.7486 81.5634 84.5913 81.1501 83.7234 80.9434C83.6408 80.9159 83.5719 80.8745 83.5168 80.8194C83.3928 80.6954 83.3514 80.5301 83.3928 80.3648C83.4341 80.1168 83.7234 79.9928 83.9714 80.0342C84.1367 80.0755 84.4674 80.1582 84.8807 80.2821C85.6659 80.3648 86.4098 80.4061 86.9885 80.3648C87.3191 80.3235 87.6084 80.2822 87.7737 80.1582C87.8977 80.0755 87.9804 79.9515 88.0217 79.6622C88.0217 79.2489 87.8151 78.7529 87.4844 78.257C87.4018 78.0917 87.4018 77.885 87.5257 77.7197C87.5257 77.7197 87.5395 77.7197 87.5671 77.7197C87.7324 77.4304 88.1457 77.4717 88.311 77.761C88.683 78.4223 88.931 79.0836 88.931 79.6622Z" fill="#D96C63"/>
<path d="M85.5006 70.9417C86.3272 71.4376 87.0298 71.8923 87.6911 72.5122C88.3524 73.1735 88.7657 73.4628 89.2203 73.9174C89.2203 73.9587 89.2616 73.8348 89.2203 73.9174L80.2517 35.8113C80.1277 35.2327 79.2598 35.4393 79.3425 36.0179L85.5006 70.9417Z" fill="#39393B"/>
<path d="M93.3119 92.0612C90.2122 94.0864 89.3443 92.5985 89.3443 92.5985L87.7737 83.6299C87.8013 83.6024 87.8426 83.5611 87.8977 83.506C88.2284 83.01 88.187 82.5967 88.1044 82.3074C88.0217 82.1145 87.8977 81.9354 87.7324 81.7701C87.6222 81.6599 87.4982 81.5497 87.3604 81.4395L87.3191 81.2328C87.5671 81.2053 87.7875 81.1502 87.9804 81.0675C88.0906 81.0399 88.187 80.9986 88.2697 80.9435C88.5728 80.7506 88.7656 80.5026 88.8483 80.1996C89.234 80.5578 89.7025 80.7644 90.2535 80.8195C90.3913 80.8195 90.5428 80.8195 90.7081 80.8195L93.3119 92.0612Z" fill="#39393B"/>
<path d="M96.0398 78.0918C95.9158 78.1744 94.5519 79.373 92.94 80.1583C92.0721 80.6129 91.1215 80.9022 90.2536 80.8195C89.5372 80.7369 88.9724 80.42 88.5591 79.8689C87.0712 77.8851 88.3524 75.2813 89.2203 73.9174C89.5923 74.2481 89.799 74.4547 89.799 74.4547C89.799 74.4547 89.923 74.3721 90.1709 74.2067C89.3857 75.364 88.1044 77.6785 89.303 79.2903C89.551 79.6485 89.8954 79.8414 90.3363 79.8689C91.9895 80.0343 94.5519 78.1331 95.4198 77.3891C95.5851 77.2238 95.8744 77.2652 96.0811 77.4305C96.2464 77.6371 96.2051 77.9264 96.0398 78.0918Z" fill="#D96C63"/>
<path d="M144.065 68.8752V68.8338V68.9165L144.024 68.9992L143.982 69.2885L143.858 69.9084C143.803 70.1013 143.748 70.3079 143.693 70.5284C143.666 70.7488 143.624 70.9692 143.569 71.1896C143.376 72.0438 143.156 72.9117 142.908 73.7934C142.412 75.5706 141.916 77.3478 141.296 79.125C140.717 80.8608 140.097 82.5967 139.395 84.2912C139.023 85.1178 138.651 85.9857 138.279 86.8123C137.907 87.6389 137.494 88.4655 137.122 89.2921C136.295 90.904 135.427 92.5158 134.518 94.0864C134.311 94.4583 134.063 94.8303 133.815 95.2436C133.567 95.6156 133.361 95.9876 133.113 96.3595C132.617 97.1035 132.121 97.8474 131.625 98.5913C130.592 100.038 129.476 101.402 128.36 102.807C127.203 104.13 126.045 105.411 124.805 106.651C124.502 106.954 124.185 107.257 123.855 107.56L122.904 108.428L122.408 108.882L122.284 108.965L122.367 108.924L122.45 108.841C122.56 108.758 122.684 108.676 122.822 108.593C123.318 108.221 123.937 107.973 124.557 107.808C124.681 107.767 124.805 107.725 124.971 107.684C125.026 107.684 125.095 107.67 125.177 107.643H125.343C125.453 107.615 125.563 107.601 125.673 107.601C125.784 107.601 125.88 107.601 125.963 107.601C126.004 107.601 126.045 107.601 126.087 107.601C126.114 107.601 126.142 107.601 126.169 107.601C126.252 107.601 126.335 107.601 126.376 107.643C126.403 107.643 126.445 107.643 126.5 107.643H126.541C126.707 107.684 126.417 107.643 126.004 107.477C125.591 107.312 125.053 107.023 124.475 106.651C123.855 106.32 123.235 105.865 122.574 105.411C121.21 104.46 119.846 103.344 118.441 102.146C117.035 100.947 115.63 99.6659 114.225 98.302C112.82 96.9795 111.428 95.6018 110.051 94.169C108.673 92.7638 107.309 91.3311 105.959 89.8707C105.27 89.1268 104.595 88.3829 103.934 87.6389L101.991 85.5311L86.9059 96.8142L87.4018 97.5994L87.8978 98.302L88.8484 99.6659C89.4821 100.575 90.1296 101.471 90.7909 102.352C92.1135 104.143 93.4774 105.907 94.8826 107.643C96.2878 109.378 97.7343 111.073 99.2635 112.767C100.035 113.622 100.82 114.462 101.619 115.289C102.418 116.115 103.245 116.942 104.099 117.768C105.794 119.422 107.612 121.033 109.637 122.604C110.671 123.389 111.745 124.175 112.902 124.96C114.101 125.745 115.382 126.489 116.87 127.192C118.399 127.894 120.094 128.597 122.326 129.051L122.698 129.134C122.863 129.162 123.014 129.189 123.152 129.217C123.455 129.244 123.758 129.286 124.061 129.341C124.351 129.341 124.681 129.382 125.012 129.382L125.508 129.423C125.673 129.423 125.88 129.423 126.045 129.423C126.403 129.423 126.748 129.41 127.079 129.382C127.464 129.355 127.85 129.327 128.236 129.299C128.429 129.272 128.608 129.244 128.773 129.217C128.993 129.189 129.2 129.148 129.393 129.093C129.765 129.01 130.178 128.927 130.55 128.803C132.162 128.349 133.774 127.605 135.138 126.654C135.496 126.434 135.827 126.2 136.13 125.952L136.378 125.745L136.584 125.58L136.75 125.414L137.452 124.794L138.858 123.555C139.298 123.141 139.739 122.714 140.18 122.273C141.957 120.579 143.569 118.76 145.181 116.9C146.71 114.999 148.239 113.057 149.603 111.073C150.967 109.048 152.207 106.981 153.406 104.915L154.274 103.303C154.563 102.807 154.811 102.27 155.1 101.732C155.376 101.181 155.637 100.644 155.885 100.121L156.629 98.4673C158.613 94.1277 160.184 89.6641 161.424 85.1178C162.044 82.8447 162.581 80.5302 162.994 78.1744C163.201 77.0171 163.407 75.8186 163.573 74.62C163.6 74.3169 163.628 74.0139 163.655 73.7108C163.711 73.4077 163.752 73.1046 163.779 72.8015C163.807 72.4984 163.835 72.1816 163.862 71.8509L163.945 70.6937L144.065 68.8752Z" fill="#0C0ABD"/>
<path d="M96.7837 94.5409C96.825 95.2435 97.4449 95.7808 98.1476 95.6982C98.8915 95.6568 99.4288 95.0369 99.3461 94.293C99.3048 93.5903 98.6435 93.0531 97.9409 93.1357C97.2383 93.1771 96.701 93.797 96.7837 94.5409Z" fill="#C77E2E"/>
<path d="M123.772 116.859C124.02 116.859 124.227 116.694 124.309 116.446C125.343 112.271 125.219 107.023 125.219 106.816C125.219 106.485 124.929 106.279 124.64 106.279C124.351 106.279 124.103 106.527 124.103 106.857C124.103 106.899 124.227 112.147 123.235 116.156C123.152 116.446 123.317 116.776 123.648 116.818C123.676 116.845 123.717 116.859 123.772 116.859Z" fill="#C77E2E"/>
<path d="M127.327 112.809C127.409 112.809 127.492 112.795 127.575 112.767C127.822 112.643 127.946 112.313 127.822 112.023C127.74 111.858 125.963 108.304 125.095 107.229C124.888 106.981 124.557 106.94 124.309 107.146C124.061 107.312 124.02 107.684 124.227 107.89C125.012 108.882 126.789 112.478 126.831 112.519C126.913 112.726 127.12 112.809 127.327 112.809Z" fill="#C77E2E"/>
<path d="M92.7746 105.287C92.8986 105.287 93.064 105.245 93.1879 105.121C97.8169 100.327 108.315 92.7638 108.397 92.6811C108.645 92.5158 108.728 92.1852 108.521 91.9372C108.356 91.6892 108.025 91.6065 107.777 91.8132C107.653 91.8958 97.073 99.5005 92.3613 104.377C92.1547 104.584 92.1547 104.956 92.4027 105.163C92.4854 105.245 92.6507 105.287 92.7746 105.287Z" fill="#C77E2E"/>
<path d="M97.2796 101.195C97.3899 101.195 97.5001 101.154 97.6103 101.071C97.8583 100.906 97.8996 100.534 97.6929 100.286L92.0721 93.5903C91.8654 93.3423 91.5348 93.301 91.2868 93.5077C91.0802 93.7143 91.0388 94.0449 91.2455 94.2929L96.825 101.03C96.949 101.154 97.1143 101.195 97.2796 101.195Z" fill="#C77E2E"/>
<path d="M157.787 232.17L165.309 187.781L165.887 184.144L144.272 176.54L143.032 176.085L137.866 174.266C137.866 174.266 137.452 176.168 136.832 179.433C136.75 179.818 136.667 180.232 136.584 180.673C134.559 191.17 130.757 212.786 129.724 232.17H157.787Z" fill="#39393B"/>
<path d="M153.943 232.17C157.208 214.48 161.382 188.608 161.63 187.12C161.672 186.789 161.465 186.5 161.134 186.417C160.804 186.376 160.514 186.583 160.473 186.913C160.39 187.285 156.051 214.15 152.744 232.17H153.943Z" fill="#585859"/>
<path d="M201.555 160.09C201.555 160.09 203.208 175.548 199.695 184.144C196.182 192.782 150.636 188.319 139.064 180.59C134.27 177.407 144.437 148.105 144.437 148.105L201.555 160.09Z" fill="#39393B"/>
<path d="M136.584 180.672C137.273 180.562 137.948 180.383 138.61 180.135C139.657 179.805 140.648 179.322 141.585 178.689C142.577 178.069 143.445 177.325 144.272 176.539C149.273 171.456 150.76 163.81 150.843 163.438C150.884 163.107 150.678 162.818 150.347 162.735C150.058 162.694 149.727 162.901 149.686 163.231C149.645 163.314 148.115 171.249 143.032 176.085C142.398 176.691 141.709 177.242 140.965 177.738C140.056 178.317 139.092 178.771 138.072 179.102C137.659 179.24 137.246 179.35 136.832 179.433C136.75 179.818 136.667 180.232 136.584 180.672Z" fill="#585859"/>
<path d="M164.647 184.971C164.647 185.301 164.895 185.549 165.226 185.591C165.557 185.591 165.805 185.343 165.846 185.053C165.929 182.946 166.053 180.755 166.177 178.606C166.204 178.22 166.232 177.834 166.259 177.449C166.714 170.423 167.292 163.479 167.747 158.561C167.775 158.175 167.816 157.803 167.871 157.445C167.954 156.343 168.036 155.392 168.119 154.593C167.733 154.538 167.348 154.469 166.962 154.387C166.879 155.213 166.796 156.164 166.714 157.28C166.659 157.638 166.617 158.01 166.59 158.396C166.177 163.273 165.557 170.133 165.102 177.159C165.074 177.545 165.061 177.931 165.061 178.317C164.895 180.548 164.771 182.822 164.647 184.971Z" fill="#585859"/>
<path d="M162.994 177.531C163.201 177.614 163.986 177.986 165.061 178.317C165.419 178.427 165.791 178.523 166.177 178.606C166.562 178.689 166.934 178.744 167.292 178.771C167.995 178.813 168.698 178.73 169.276 178.441C169.979 178.11 170.434 177.49 170.599 176.663C171.012 174.473 171.921 165.504 172.5 159.14C172.555 158.726 172.596 158.341 172.624 157.982C172.707 156.949 172.789 156.04 172.872 155.255C172.486 155.2 172.1 155.144 171.715 155.089C171.632 155.875 171.549 156.825 171.467 157.858C171.412 158.244 171.37 158.63 171.343 159.016C170.723 165.339 169.855 174.349 169.442 176.457C169.359 176.953 169.111 177.242 168.739 177.449C168.119 177.738 167.21 177.655 166.259 177.449C165.887 177.366 165.474 177.283 165.102 177.159C164.441 176.953 163.862 176.705 163.531 176.54C163.242 176.374 162.87 176.498 162.746 176.787C162.581 177.077 162.705 177.407 162.994 177.531Z" fill="#585859"/>
<path d="M195.893 232.169C197.711 215.679 199.778 193.65 200.976 180.879C201.004 180.493 201.031 180.108 201.059 179.722C201.596 174.101 201.927 170.547 201.927 170.547C199.116 169.389 194.074 170.175 188.66 171.704C188.274 171.814 187.889 171.924 187.503 172.034C177.914 174.928 167.788 179.763 167.788 179.763V232.169H195.893Z" fill="#39393B"/>
<path d="M193.165 232.169C194.694 213.86 196.554 187.409 196.595 187.037C196.595 186.707 196.347 186.459 196.058 186.417C195.727 186.417 195.438 186.665 195.397 186.955C195.397 187.327 193.537 213.86 191.966 232.169H193.165Z" fill="#585859"/>
<path d="M184.279 163.438C184.32 163.686 185.106 167.86 187.503 172.034C188.908 174.514 190.85 176.994 193.496 178.689C195.727 180.135 198.248 180.879 200.976 180.879C201.004 180.493 201.031 180.108 201.059 179.722C198.538 179.722 196.223 179.061 194.157 177.738C191.76 176.209 189.982 173.936 188.66 171.704C186.263 167.53 185.436 163.273 185.436 163.231C185.354 162.901 185.064 162.694 184.734 162.735C184.403 162.818 184.196 163.107 184.279 163.438Z" fill="#585859"/>
<path d="M137.452 159.14C150.058 170.877 179.857 177.159 202.795 165.959C205.316 159.057 208.085 134.507 208.829 127.15C208.994 125.69 209.118 124.23 209.201 122.769C209.656 115.702 209.573 108.635 209.242 101.195C209.215 100.782 209.187 100.382 209.16 99.9966C208.87 93.8798 208.416 87.5563 208.002 80.8195C207.176 67.5113 202.712 59.2867 194.983 58.0881C191.429 57.5095 188.577 56.4762 186.469 55.5257C186.222 55.3879 185.987 55.2639 185.767 55.1537C183.246 53.8725 181.841 52.7152 181.841 52.7152H164.647C163.159 54.9057 161.3 56.2696 159.274 57.2202C159.054 57.3304 158.834 57.4268 158.613 57.5095C152.496 60.1546 145.346 59.6173 143.9 67.0154C142.949 71.6443 146.504 81.1502 146.132 100.451C146.104 101.856 146.063 103.331 146.008 104.874C145.925 106.279 145.828 107.753 145.718 109.296C145.608 110.701 145.484 112.161 145.346 113.677C145.208 114.999 145.057 116.349 144.892 117.727C144.726 119.132 144.533 120.593 144.313 122.108C143.156 130.126 140.097 148.807 137.452 159.14Z" fill="#0C0ABD"/>
<path d="M196.471 163.149C196.416 163.149 196.361 163.135 196.306 163.107C196.058 163.066 195.893 162.777 195.975 162.487C205.523 127.44 203.58 91.7719 203.58 91.4413C203.539 91.152 203.787 90.904 204.076 90.904C204.365 90.8627 204.572 91.0693 204.613 91.3586C204.613 91.7306 206.556 127.522 196.967 162.777C196.885 162.983 196.678 163.149 196.471 163.149Z" fill="#C77E2E"/>
<path d="M144.561 117.603C144.85 117.603 145.098 117.396 145.14 117.107C146.255 106.981 146.297 86.8123 146.297 86.6057C146.297 86.2751 146.049 86.0271 145.718 86.0271C145.429 86.0271 145.181 86.2751 145.181 86.6057C145.181 86.8123 145.14 106.899 144.024 116.983C143.982 117.272 144.189 117.562 144.52 117.603C144.547 117.603 144.561 117.603 144.561 117.603Z" fill="#C77E2E"/>
<path d="M168.16 155.792C168.202 156.495 168.863 157.032 169.566 156.99C170.268 156.908 170.805 156.288 170.764 155.585C170.681 154.883 170.062 154.345 169.359 154.387C168.615 154.469 168.119 155.089 168.16 155.792Z" fill="#C77E2E"/>
<path d="M167.954 162.074C167.995 162.777 168.656 163.314 169.359 163.273C170.062 163.19 170.599 162.57 170.557 161.867C170.475 161.123 169.855 160.627 169.152 160.669C168.408 160.751 167.912 161.371 167.954 162.074Z" fill="#C77E2E"/>
<path fill-rule="evenodd" clip-rule="evenodd" d="M152.786 93.0119C149.397 89.0855 150.678 80.3236 150.719 79.9516C150.761 79.7037 151.009 79.497 151.298 79.497H162.746C163.035 79.497 163.242 79.7037 163.283 79.9516C163.366 80.3236 164.606 89.0855 161.258 93.0119C160.184 94.2518 158.737 94.8717 157.001 94.8717C155.307 94.8717 153.86 94.2518 152.786 93.0119ZM151.794 80.6129C151.546 82.4314 151.008 89.2095 153.654 92.2679C154.522 93.2598 155.596 93.7558 157.001 93.7558C158.448 93.7558 159.522 93.2598 160.39 92.2679C163.035 89.2095 162.457 82.4314 162.25 80.6129H151.794Z" fill="#C77E2E"/>
<path d="M183.411 10.2695C180.187 8.203 170.103 7.16975 170.103 7.16975C170.103 7.16975 168.408 2.78878 166.549 1.54889C162.292 -1.30287 161.754 4.44198 161.754 4.44198C161.754 4.44198 157.621 -1.38553 153.86 0.30899C150.141 1.96218 154.894 7.3764 154.894 7.3764C154.894 7.3764 149.273 6.34315 149.934 11.0961C150.554 15.8904 155.927 17.9982 155.927 17.9982C155.927 17.9982 154.274 20.6846 155.1 25.0656C155.927 29.4052 157.828 29.6119 157.828 29.6119L181.097 31.7197C181.097 31.7197 185.891 31.7197 187.131 25.6855C188.412 19.6514 184.238 17.1302 184.238 17.1302C184.238 17.1302 186.924 12.584 183.411 10.2695Z" fill="#39393B"/>
<path d="M164.358 49.8222V54.2031C164.882 54.5889 165.405 54.9471 165.929 55.2777C173.533 59.824 181.717 54.2031 181.717 54.2031V38.9938L166.425 48.4996L164.358 49.8222Z" fill="#EA9B7A"/>
<path d="M164.358 49.6982V54.2031C164.882 54.5888 165.405 54.947 165.929 55.2777C172.376 52.7152 177.088 45.9371 177.088 45.9371L166.425 48.4996L164.358 49.6982Z" fill="#39393B"/>
<path d="M181.675 49.7395C181.675 49.7395 186.8 50.6074 188.205 56.4349C183.204 61.6425 178.824 66.1888 171.673 67.5113V57.0136C171.673 57.0136 177.956 55.443 181.675 49.7395Z" fill="#0C0ABD"/>
<path d="M164.234 51.2687C164.234 51.2687 159.646 52.2193 157.869 58.0881C162.457 63.6677 164.937 65.7755 171.673 67.5113V57.0136C171.673 57.0136 167.912 56.9722 164.234 51.2687Z" fill="#0C0ABD"/>
<path d="M161.63 132.647L164.606 139.797L165.928 142.98L169.689 152.072L171.508 148.559L172.128 147.319L173.616 144.509L174.236 143.269L175.682 140.459L176.344 139.219L177.79 136.408L178.451 135.168L179.815 132.523L179.774 132.234L179.567 130.167L179.071 125.414L178.865 123.307L178.369 118.554L178.162 116.446L177.666 111.693L177.459 109.626L177.005 104.874L176.757 102.766L176.302 98.0127L176.096 95.9049L175.6 91.1933L175.393 89.0855L174.897 84.3326L174.69 82.2247L174.194 77.4718L173.988 75.4053L173.492 70.4871L169.855 70.3217L169.772 71.1483L169.524 72.8015L169.028 76.6039L168.822 78.2571L168.326 82.0181L168.119 83.6713L167.582 87.4323L167.375 89.1268L166.879 92.8878L166.672 94.541L166.176 98.3021L165.928 99.9553L165.432 103.758L165.226 105.411L164.73 109.172L164.523 110.825L164.027 114.586L163.779 116.281L163.283 120.042L163.077 121.695L162.581 125.456L162.374 127.15L161.878 130.911L161.63 132.565V132.647Z" fill="#39393B"/>
<path d="M169.524 72.8016L174.194 77.4718L173.988 75.4053L169.772 71.1484L169.524 72.8016Z" fill="#585859"/>
<path d="M168.822 78.2571L174.897 84.3326L174.691 82.2248L169.028 76.6039L168.822 78.2571Z" fill="#585859"/>
<path d="M168.119 83.6713L175.6 91.1933L175.393 89.0855L168.326 82.0181L168.119 83.6713Z" fill="#585859"/>
<path d="M167.375 89.1268L176.302 98.0127L176.096 95.9049L167.582 87.4323L167.375 89.1268Z" fill="#585859"/>
<path d="M166.672 94.5411L177.005 104.874L176.757 102.766L166.879 92.8879L166.672 94.5411Z" fill="#585859"/>
<path d="M165.929 99.9553L177.666 111.693L177.46 109.626L166.177 98.3021L165.929 99.9553Z" fill="#585859"/>
<path d="M165.226 105.411L178.369 118.554L178.162 116.446L165.433 103.758L165.226 105.411Z" fill="#585859"/>
<path d="M164.523 110.825L179.071 125.414L178.865 123.307L164.73 109.172L164.523 110.825Z" fill="#585859"/>
<path d="M163.779 116.281L179.774 132.234L179.567 130.167L164.027 114.586L163.779 116.281Z" fill="#585859"/>
<path d="M163.077 121.695L177.79 136.408L178.451 135.168L163.283 120.042L163.077 121.695Z" fill="#585859"/>
<path d="M162.374 127.15L175.682 140.459L176.344 139.219L162.581 125.456L162.374 127.15Z" fill="#585859"/>
<path d="M161.63 132.565L173.616 144.509L174.236 143.269L161.878 130.911L161.63 132.565Z" fill="#585859"/>
<path d="M164.606 139.797L165.929 142.98L171.508 148.559L172.128 147.319L164.606 139.797Z" fill="#585859"/>
<path d="M173.492 70.4871L171.673 73.1736L169.855 70.3218L169.524 72.7603L171.673 74.9094L173.698 72.347L173.492 70.4871Z" fill="#585859"/>
<path d="M176.509 65.9821L171.673 73.1735L167.044 65.9821L171.673 59.9479L176.509 65.9821Z" fill="#39393B"/>
<path d="M179.32 70.9004C179.457 70.9004 179.581 70.8591 179.691 70.7764C184.486 66.9328 188.536 57.0549 188.743 56.6416C188.825 56.3936 188.701 56.063 188.412 55.939C188.123 55.815 187.833 55.939 187.709 56.2283C187.668 56.3523 183.824 65.6515 179.444 69.5365L172.128 59.6174C172.045 59.4934 171.88 59.4107 171.673 59.4107C171.508 59.4107 171.343 59.4934 171.26 59.6587L164.441 69.2886C163.408 67.4287 160.68 62.4278 158.365 57.8402C158.241 57.5509 157.911 57.4269 157.621 57.5922C157.373 57.7162 157.249 58.0468 157.373 58.3361C160.266 64.1637 163.862 70.5285 163.903 70.6111C163.986 70.7764 164.151 70.9004 164.358 70.9004C164.565 70.9004 164.73 70.8178 164.854 70.6524L171.715 60.8986L178.906 70.6524C178.989 70.7764 179.113 70.8591 179.278 70.9004C179.278 70.9004 179.292 70.9004 179.32 70.9004Z" fill="#C77E2E"/>
<path d="M171.715 60.5266C172.004 60.5266 172.252 60.2786 172.252 59.948V57.4682C172.252 57.1789 172.004 56.9309 171.715 56.9309C171.384 56.9309 171.136 57.1789 171.136 57.4682V59.948C171.136 60.2786 171.384 60.5266 171.715 60.5266Z" fill="#C77E2E"/>
<path d="M158.903 30.3971C158.903 30.3971 156.423 27.4627 155.018 30.3971C153.612 33.3315 154.687 39.283 158.489 38.3324L158.903 30.3971Z" fill="#D96C63"/>
<path d="M156.257 40.7296C156.257 40.7296 156.257 49.7395 165.639 49.7395C175.021 49.7395 181.386 42.3828 181.717 42.0522C181.717 42.0246 181.717 42.0108 181.717 42.0108L181.84 40.1097L182.336 30.2732L182.626 24.9829C182.626 24.9829 183.824 15.4771 174.814 13.7412C168.202 12.46 162.043 13.5759 158.902 17.0063C158.792 17.1165 158.696 17.2267 158.613 17.3369C157.621 18.5768 157.001 20.0234 156.836 21.8005L156.547 31.2651L156.464 33.5795L156.257 40.7296Z" fill="#EA9B7A"/>
<path d="M167.044 24.4456C167.044 24.4456 171.012 27.4214 173.368 25.5202C175.724 23.6604 170.227 21.5939 168.45 21.7592C166.631 21.9245 165.887 23.7843 167.044 24.4456Z" fill="#39393B"/>
<path d="M162.746 24.4456C162.746 24.4456 158.82 27.4214 156.464 25.5202C154.108 23.6604 159.605 21.5939 161.382 21.7592C163.201 21.9245 163.945 23.7843 162.746 24.4456Z" fill="#39393B"/>
<path d="M165.887 41.8868C167.375 42.0108 168.491 41.0602 168.574 41.0189C168.739 40.8949 168.739 40.6056 168.615 40.4403C168.45 40.275 168.202 40.2336 168.036 40.399C167.954 40.4403 166.672 41.5149 165.143 40.8536C164.937 40.7709 164.689 40.8536 164.565 41.0602C164.482 41.2669 164.565 41.5149 164.771 41.5975C165.157 41.7628 165.529 41.8593 165.887 41.8868Z" fill="#D96C63"/>
<path d="M169.938 35.4393C169.938 35.4393 164.193 36.5965 161.3 36.3072C161.3 36.3072 162.374 40.6055 166.672 39.531C169.979 38.663 169.938 35.4393 169.938 35.4393Z" fill="white"/>
<path d="M158.613 17.3369C160.101 16.841 161.176 17.3369 163.449 18.3288C166.796 19.7754 170.516 18.4941 173.781 16.7996C177.088 15.1051 179.03 17.4609 177.914 18.9901C176.798 20.5193 176.922 21.7592 178.162 23.7017C179.402 25.6855 175.806 26.5948 177.79 28.124C178.658 28.744 178.575 29.7359 178.245 30.6451C177.873 31.5957 178.741 32.629 179.774 32.4223C180.849 32.133 182.337 30.2732 182.337 30.2732L182.626 24.9829C182.626 24.9829 183.824 15.4771 174.814 13.7412C168.202 12.46 162.044 13.5759 158.902 17.0063C158.792 17.1165 158.696 17.2267 158.613 17.3369Z" fill="#39393B"/>
<path d="M168.822 32.4223C168.822 33.0836 170.186 33.6209 171.839 33.6209C173.533 33.6209 174.897 33.0836 174.897 32.4223C174.897 31.761 173.533 31.2237 171.839 31.2237C170.186 31.2237 168.822 31.761 168.822 32.4223Z" fill="#D96C63"/>
<path d="M156.464 33.5795C156.712 33.6071 156.96 33.6209 157.208 33.6209C158.861 33.6209 160.225 33.0836 160.225 32.4223C160.225 31.761 158.861 31.2237 157.208 31.2237C156.988 31.2237 156.767 31.2375 156.547 31.2651L156.464 33.5795Z" fill="#D96C63"/>
<path d="M167.499 28.7853C167.499 29.6945 167.912 30.4385 168.408 30.4385C168.946 30.4385 169.359 29.6945 169.359 28.7853C169.359 27.876 168.946 27.1734 168.408 27.1734C167.912 27.1734 167.499 27.876 167.499 28.7853Z" fill="#39393B"/>
<path d="M158.406 28.7853C158.406 29.6945 158.82 30.4385 159.316 30.4385C159.853 30.4385 160.266 29.6945 160.266 28.7853C160.266 27.876 159.853 27.1734 159.316 27.1734C158.82 27.1734 158.406 27.876 158.406 28.7853Z" fill="#39393B"/>
<path d="M178.782 38.3738C178.823 38.4565 179.981 41.2256 181.717 42.0522C181.717 42.0246 181.717 42.0108 181.717 42.0108L181.84 40.1097C181.84 40.1097 180.353 39.8617 178.782 38.3738Z" fill="#39393B"/>
<path d="M180.435 32.0917C180.435 32.0917 184.031 27.2148 186.676 31.0171C188.867 34.1995 184.734 42.3829 180.435 39.5724V32.0917Z" fill="#EA9B7A"/>
<path d="M180.931 38.1258C181.097 38.1258 181.262 37.9604 181.303 37.7951C181.675 34.1168 184.775 32.8355 184.899 32.7529C185.106 32.6702 185.188 32.4636 185.106 32.2983C185.023 32.0916 184.816 32.0089 184.61 32.0916C184.486 32.1329 181.014 33.5795 180.559 37.7125C180.518 37.9191 180.683 38.0844 180.89 38.1258C180.89 38.1258 180.904 38.1258 180.931 38.1258Z" fill="#39393B"/>
<path d="M184.403 35.8527C184.486 35.8527 184.61 35.8114 184.692 35.7287C184.816 35.5634 184.775 35.3154 184.61 35.1915C184.486 35.0675 183.122 34.0342 182.006 34.3235C181.84 34.3649 181.716 34.5715 181.758 34.7782C181.799 34.9435 182.006 35.0675 182.212 35.0261C182.832 34.8608 183.824 35.5221 184.155 35.7701C184.238 35.8252 184.32 35.8527 184.403 35.8527Z" fill="#39393B"/>
<path d="M164.565 33.3316C164.771 33.3316 164.937 33.1663 164.937 32.9596C164.937 32.753 164.771 32.5876 164.565 32.5876C163.201 32.5876 162.581 31.885 162.333 31.5544C163.821 28.496 165.309 25.4376 165.309 25.3962C165.391 25.1896 165.35 24.9829 165.143 24.9003C164.978 24.8176 164.73 24.9003 164.647 25.0656C164.647 25.1069 163.118 28.2893 161.589 31.4304C161.548 31.5131 161.548 31.6371 161.589 31.761C161.63 31.8024 162.374 33.3316 164.565 33.3316Z" fill="#39393B"/>
<path d="M254.622 66.8914C254.622 66.8914 259.623 71.9749 264.583 69.9911C268.592 68.3792 269.46 62.841 269.667 60.7745C269.708 60.2786 269.708 59.9479 269.708 59.9479C269.708 59.9479 269.997 59.8239 270.369 59.5346C271.237 58.8734 272.684 57.5921 272.518 56.0629C272.312 53.8724 268.344 55.071 268.344 55.071C268.344 55.071 268.964 52.4672 267.765 51.682C266.608 50.938 264.252 52.2606 264.252 52.2606C264.252 52.2606 265.534 49.0369 263.798 48.2516C261.153 47.0944 260.285 51.062 260.161 51.31C260.202 51.0207 261.442 38.8697 259.375 39.4897C257.557 40.0269 255.862 50.1941 255.449 52.9632C255.366 53.4178 255.325 53.6658 255.325 53.6658C255.325 53.6658 255.201 53.6658 254.953 53.6658C253.754 53.7071 250.324 53.9964 249.663 56.3936C248.919 59.328 254.622 66.8914 254.622 66.8914Z" fill="#EA9B7A"/>
<path d="M264.872 58.2948C264.459 59.2454 264.252 60.2786 264.459 60.9812C264.583 61.4772 264.872 61.8078 265.286 61.9318C265.616 62.0145 265.988 62.0145 266.401 61.9318C267.476 61.7665 268.799 61.1879 269.667 60.7746C269.708 60.2786 269.708 59.948 269.708 59.948C269.708 59.948 269.997 59.824 270.369 59.5347C270.286 59.5347 270.204 59.5485 270.121 59.576C268.799 60.32 266.36 61.3945 265.534 61.1466C265.451 61.1052 265.327 61.0226 265.244 60.7746C264.996 59.948 265.616 58.2535 266.484 57.2615C266.608 57.0962 266.608 56.8896 266.484 56.7243C266.319 56.5589 266.071 56.5589 265.906 56.6829C265.12 57.2615 262.723 58.7494 261.566 58.3775C261.359 58.3361 261.359 58.2535 261.359 58.2121C261.277 58.0055 261.359 57.7162 261.525 57.3855C261.814 56.6829 262.475 55.815 262.971 55.2364C263.026 55.1537 263.054 55.0711 263.054 54.9884C263.095 54.8644 263.054 54.7404 262.93 54.6578C262.764 54.4924 262.516 54.4924 262.351 54.6578C262.145 54.9471 261.359 55.8563 260.863 56.8069C260.698 57.1789 260.574 57.5095 260.533 57.8402C260.505 58.0606 260.505 58.2535 260.533 58.4188C260.615 58.6668 260.822 58.9974 261.277 59.1627C262.351 59.4934 263.798 58.9147 264.872 58.2948Z" fill="#D96C63"/>
<path d="M258.59 54.823C258.755 54.9057 258.879 55.0297 258.879 55.195C258.921 55.7323 259.045 56.1869 259.251 56.4762C259.417 56.6829 259.582 56.7242 259.665 56.6829C259.871 56.6829 260.078 56.6002 260.367 56.4349C260.987 56.1043 261.814 55.3603 262.558 54.6164C262.558 54.6991 262.517 54.7817 262.434 54.8644C261.938 55.443 261.318 56.3109 260.987 57.0135C260.905 57.0686 260.822 57.1237 260.739 57.1789C260.491 57.3166 260.243 57.413 259.995 57.4682C259.913 57.4957 259.816 57.5095 259.706 57.5095C259.251 57.5508 258.879 57.3442 258.59 56.9309C258.301 56.5176 258.136 55.9389 258.053 55.2363C258.053 54.9884 258.301 54.7404 258.59 54.823Z" fill="#D96C63"/>
<path d="M252.721 59.452C252.804 59.452 254.416 59.6173 255.945 59.3693C256.813 59.204 257.681 58.9561 258.218 58.4601C258.687 58.0468 258.935 57.5233 258.962 56.8896C259.003 54.6991 256.772 53.5005 255.449 52.9632C255.366 53.4178 255.325 53.6658 255.325 53.6658C255.325 53.6658 255.201 53.6658 254.953 53.6658C256.069 54.0791 258.177 55.1124 258.136 56.8896C258.136 57.2477 257.984 57.5646 257.681 57.8401C256.606 58.7907 253.796 58.7494 252.804 58.6254C252.556 58.5841 252.391 58.7494 252.349 58.9974C252.308 59.204 252.473 59.4107 252.721 59.452Z" fill="#D96C63"/>
<path d="M261.525 67.3047C261.69 67.2634 261.814 67.1807 261.855 67.0154C261.938 66.8088 261.814 66.5608 261.607 66.4781C260.45 66.0648 259.706 65.3622 259.334 64.3703C258.342 61.8079 260.161 58.2948 260.161 58.2535C260.285 58.0468 260.202 57.7989 259.995 57.7162C259.789 57.5922 259.541 57.6749 259.458 57.8815C259.375 58.0468 257.433 61.7665 258.549 64.6596C259.003 65.8582 259.954 66.7674 261.318 67.2634C261.401 67.291 261.469 67.3047 261.525 67.3047Z" fill="#D96C63"/>
<path d="M200.563 60.9812L209.118 68.4206C210.496 69.7156 211.874 70.983 213.251 72.2229C214.601 73.4904 215.965 74.7441 217.343 75.984C218.748 77.2239 220.112 78.4638 221.476 79.7037C222.881 80.9022 224.245 82.0595 225.609 83.2167C226.973 84.3326 228.337 85.4485 229.576 86.3991C230.238 86.8537 230.858 87.3083 231.354 87.5977L231.684 87.8456L231.808 87.9283C231.85 87.9283 231.85 87.9283 231.85 87.9696C231.905 87.9972 231.946 88.0247 231.974 88.0523C232.015 88.1349 232.015 88.1763 232.056 88.2176C232.098 88.2589 232.222 88.3003 232.47 88.3003C232.966 88.2589 233.875 87.9283 234.867 87.3497C235.9 86.7711 237.057 85.9031 238.173 84.8699C239.289 83.878 240.446 82.7207 241.562 81.4808C243.794 79.001 245.902 76.1906 247.927 73.2562C249.993 70.3218 251.399 68.0486 253.258 64.9489C256.234 68.5446 260.781 70.3218 265.74 69.7018C264.335 73.5042 262.723 77.1825 260.904 80.8609C259.086 84.4979 257.019 88.0936 254.54 91.648C253.3 93.4252 251.977 95.161 250.448 96.8969C248.878 98.5914 247.183 100.327 245.075 101.898C244.001 102.683 242.843 103.468 241.562 104.171C240.281 104.874 238.834 105.493 237.222 105.989C235.611 106.444 233.833 106.775 231.974 106.816C230.155 106.857 228.213 106.609 226.435 106.113C225.554 105.865 224.7 105.562 223.873 105.204L223.294 104.915L222.798 104.667C222.592 104.584 222.468 104.502 222.302 104.419C222.178 104.378 222.013 104.295 221.848 104.212C220.691 103.592 219.699 102.972 218.748 102.352C216.888 101.154 215.194 99.9966 213.499 98.7567C211.846 97.5582 210.275 96.3596 208.705 95.1197C207.134 93.9073 205.591 92.6674 204.076 91.4C202.56 90.1601 201.073 88.9064 199.612 87.639C198.124 86.344 196.65 85.0628 195.19 83.7953C193.73 82.5003 192.283 81.1915 190.85 79.869L188.743 77.8851L187.668 76.8932C187.296 76.5212 186.965 76.2319 186.593 75.86L200.563 60.9812Z" fill="#0C0ABD"/>
<path d="M208.705 96.1529C208.622 96.1529 208.526 96.1116 208.416 96.0289C202.753 92.0613 192.71 83.754 192.628 83.6713C192.38 83.4647 192.38 83.134 192.545 82.9274C192.71 82.7207 193.041 82.6794 193.289 82.8447C193.372 82.9274 203.415 91.276 209.036 95.2023C209.242 95.3677 209.325 95.6983 209.16 95.9049C209.036 96.0703 208.87 96.1529 208.705 96.1529Z" fill="#C77E2E"/>
<path d="M197.009 87.1017C197.009 87.1017 196.995 87.1017 196.967 87.1017L192.958 86.5231C192.669 86.4818 192.504 86.2338 192.545 85.9445C192.586 85.6552 192.834 85.4486 193.124 85.4899L197.091 86.0685C197.381 86.1098 197.587 86.3991 197.546 86.6884C197.505 86.9364 197.298 87.1017 197.009 87.1017Z" fill="#C77E2E"/>
<path d="M262.971 76.1493C263.178 76.0253 263.26 75.8186 263.219 75.5707C263.178 75.2814 262.888 75.116 262.599 75.1574C255.077 76.8106 251.357 69.6192 251.316 69.5778C251.192 69.2885 250.861 69.2059 250.614 69.3299C250.366 69.4538 250.242 69.7845 250.366 70.0325C250.407 70.1151 254.54 78.0091 262.806 76.1906C262.861 76.1906 262.916 76.1768 262.971 76.1493Z" fill="#C77E2E"/>
<path d="M259.086 76.2733C259.196 76.2182 259.279 76.1356 259.334 76.0254L261.814 70.2392C261.938 69.9912 261.814 69.6606 261.525 69.5779C261.277 69.4539 260.946 69.5779 260.822 69.8259L258.383 75.6121C258.259 75.86 258.383 76.1907 258.631 76.3147C258.797 76.356 258.962 76.356 259.086 76.2733Z" fill="#C77E2E"/>
<path d="M254.664 70.7351C254.912 71.1897 255.449 71.355 255.904 71.107C256.358 70.9004 256.524 70.3218 256.276 69.9085C256.069 69.4538 255.49 69.2885 255.077 69.4952C254.622 69.7431 254.457 70.2804 254.664 70.7351Z" fill="#C77E2E"/>
<path d="M230.858 94.7064C231.023 94.6237 231.106 94.4997 231.147 94.3344C231.147 94.2931 231.684 90.9867 232.676 89.0855C232.8 88.8375 232.718 88.5069 232.428 88.3829C232.18 88.2176 231.891 88.3416 231.726 88.5895C230.692 90.656 230.114 94.0038 230.114 94.1277C230.072 94.417 230.238 94.7064 230.527 94.7477C230.665 94.7752 230.775 94.7615 230.858 94.7064Z" fill="#C77E2E"/>
<path d="M234.288 93.5079C234.316 93.4803 234.343 93.4665 234.371 93.4665C234.619 93.2599 234.619 92.9292 234.453 92.7226C234.412 92.6813 232.966 90.9041 232.594 89.2096C232.552 88.9202 232.263 88.7549 231.974 88.7963C231.726 88.8376 231.519 89.1269 231.602 89.4162C231.974 91.4 233.585 93.3012 233.627 93.3839C233.792 93.5905 234.081 93.6318 234.288 93.5079Z" fill="#C77E2E"/>
</svg>
